<?xml version="1.0" encoding="utf-8"?>
<!-- Generator: Adobe Illustrator 19.2.1, SVG Export Plug-In . SVG Version: 6.00 Build 0)  -->
<svg version="1.1" id="Layer_1" xmlns="http://www.w3.org/2000/svg" xmlns:xlink="http://www.w3.org/1999/xlink" x="0px" y="0px"
	 viewBox="0 0 990 510" style="enable-background:new 0 0 990 510;" xml:space="preserve">
<style type="text/css">
	.st0{clip-path:url(#SVGID_2_);}
	.st1{fill:#003A5D;}
</style>
<title>jumproped</title>
<g>
	<defs>
		<rect id="SVGID_1_" width="990" height="510"/>
	</defs>
	<clipPath id="SVGID_2_">
		<use xlink:href="#SVGID_1_"  style="overflow:visible;"/>
	</clipPath>
	<g class="st0">
		<path class="st1" d="M370.7,210.5h-8.5c-0.8,0-1.5-0.7-1.5-1.5v-9.3h-9.4c-0.8,0-1.5-0.7-1.5-1.5v-8.3c0-0.8,0.7-1.5,1.5-1.5h9.4
			v-9.3c0-0.8,0.7-1.5,1.5-1.5h8.5c0.8,0,1.5,0.7,1.5,1.5v9.3h9.4c0.8,0,1.5,0.7,1.5,1.5v8.3c0,0.8-0.7,1.5-1.5,1.5h-9.4v9.3
			C372.2,209.8,371.6,210.5,370.7,210.5z M363.7,207.5h5.5v-9.3c0-0.8,0.7-1.5,1.5-1.5h9.4v-5.3h-9.4c-0.8,0-1.5-0.7-1.5-1.5v-9.3
			h-5.5v9.3c0,0.8-0.7,1.5-1.5,1.5h-9.4v5.3h9.4c0.8,0,1.5,0.7,1.5,1.5V207.5L363.7,207.5z"/>
		<path class="st1" d="M404.9,224.4h-7.7c-0.8,0-1.5-0.7-1.5-1.5c0-0.2,0.1-0.4,0.1-0.6l26.6-55.6c0.2-0.5,0.8-0.8,1.4-0.9h7.7
			c0.8,0,1.5,0.7,1.5,1.5c0,0.2-0.1,0.4-0.1,0.6l-26.6,55.6C406,224,405.5,224.4,404.9,224.4z M399.6,221.4h4.4l25.1-52.6h-4.4
			L399.6,221.4z"/>
		<path class="st1" d="M477.3,207.5h-28.4c-0.8,0-1.5-0.7-1.5-1.5v-8.3c0-0.8,0.7-1.5,1.5-1.5h28.4c0.8,0,1.5,0.7,1.5,1.5v8.3
			C478.8,206.8,478.1,207.5,477.3,207.5z M450.3,204.5h25.4v-5.3h-25.4V204.5z M477.3,191.9h-28.4c-0.8,0-1.5-0.7-1.5-1.5v-8.3
			c0-0.8,0.7-1.5,1.5-1.5h28.4c0.8,0,1.5,0.7,1.5,1.5v8.3C478.8,191.2,478.1,191.9,477.3,191.9C477.3,191.9,477.3,191.9,477.3,191.9
			z M450.3,188.9h25.4v-5.3h-25.4V188.9z"/>
		<path class="st1" d="M498.6,461.5c-1,0-2.1,0-3.1-0.1s-2-0.1-3-0.1h-39.3c-1,0-2,0-3,0.1c-2,0.1-4,0.1-6,0c-4.2-0.5-7.6-3.8-8.1-8
			c-0.5-3.7,1.1-7.4,2.5-10.2l23.2-43.3v-26.1c-1.9-0.1-3.8-0.8-5.2-2.1c-0.9-1.1-1.4-2.5-1.2-3.9c0.3-3.3,3.4-5,6.1-5.1h22.6
			c2.8,0.1,5.9,1.8,6.2,5.1c0.2,1.4-0.3,2.8-1.2,3.9c-1.4,1.3-3.2,2.1-5.2,2.1v26.1l23.2,43.3c1.4,2.8,2.9,6.5,2.5,10.2
			c-0.5,4.2-3.9,7.5-8.1,8C500.6,461.5,499.6,461.5,498.6,461.5z M453.3,458.4h39.3c1,0,2,0,3.1,0.1c1.9,0.1,3.8,0.1,5.6,0
			c2.8-0.3,5.1-2.6,5.4-5.4c0.4-2.9-0.9-6-2.2-8.6l-23.4-43.5c-0.1-0.2-0.2-0.5-0.2-0.7v-27.8c0-0.8,0.7-1.5,1.5-1.5
			c2.1,0,3.8-0.4,4.5-1.2c0.4-0.4,0.5-1,0.5-1.6c-0.1-1.7-2.2-2.3-3.3-2.3h-22.4c-1,0-3,0.6-3.2,2.3c-0.1,0.6,0.1,1.2,0.5,1.6
			c0.7,0.8,2.3,1.2,4.5,1.2c0.8,0,1.5,0.7,1.5,1.5v27.9c0,0.2-0.1,0.5-0.2,0.7l-23.4,43.6c-1.2,2.5-2.5,5.6-2.1,8.5
			c0.3,2.8,2.6,5.1,5.4,5.4c1.9,0.1,3.8,0.1,5.6,0C451.3,458.4,452.3,458.4,453.3,458.4z"/>
		<path class="st1" d="M480.2,363.7c-0.8,0-1.5-0.7-1.5-1.5v-94.5c0-10.2-8.3-18.5-18.5-18.5H197.4c-0.8,0-1.5-0.7-1.5-1.5
			s0.7-1.5,1.5-1.5h262.9c11.9,0,21.5,9.6,21.5,21.5v94.5C481.7,363,481,363.7,480.2,363.7z"/>
		<path class="st1" d="M472.7,363.7c-0.8,0-1.5-0.7-1.5-1.5v-94.5c0-10.2-8.3-18.5-18.5-18.5H189.9c-11.9,0-21.5-9.6-21.5-21.5v-54
			c0-0.8,0.7-1.5,1.5-1.5s1.5,0.7,1.5,1.5v54c0,10.2,8.3,18.5,18.5,18.5h262.9c11.9,0,21.5,9.6,21.5,21.5v94.5
			C474.2,363,473.5,363.7,472.7,363.7z"/>
		<path class="st1" d="M464.7,364.8c-0.8,0-1.5-0.7-1.5-1.5v-94.5c0-10.2-8.3-18.5-18.5-18.5H155.8c-11.9,0-21.5-9.6-21.5-21.5v-54
			c0-0.8,0.7-1.5,1.5-1.5s1.5,0.7,1.5,1.5v54c0,10.2,8.3,18.5,18.5,18.5h288.9c11.9,0,21.5,9.6,21.5,21.5v94.5
			C466.2,364.1,465.5,364.8,464.7,364.8z"/>
		<path class="st1" d="M81.1,339.4H-43.6c-0.8,0-1.5-0.7-1.5-1.5s0.7-1.5,1.5-1.5H81.1c10.2,0,18.5-8.3,18.5-18.5V174.9
			c0-0.8,0.7-1.5,1.5-1.5s1.5,0.7,1.5,1.5v143.1C102.6,329.8,93,339.4,81.1,339.4z"/>
		<path class="st1" d="M1126.7,339.4h-387c-0.8,0-1.5-0.7-1.5-1.5s0.7-1.5,1.5-1.5h387c0.8,0,1.5,0.7,1.5,1.5
			S1127.5,339.4,1126.7,339.4z"/>
		<path class="st1" d="M169.3,165.7c-0.5,0-0.9-0.2-1.2-0.6l-9-12c-0.5-0.7-0.4-1.6,0.3-2.1c0.7-0.5,1.6-0.4,2.1,0.3c0,0,0,0,0,0
			l7.8,10.4l7.8-10.4c0.5-0.7,1.4-0.8,2.1-0.3c0.7,0.5,0.8,1.4,0.3,2.1c0,0,0,0,0,0l-9,12C170.2,165.5,169.8,165.7,169.3,165.7z"/>
		<path class="st1" d="M160.3,153.6c-0.8,0-1.5-0.7-1.5-1.5v-64c0-0.8,0.7-1.5,1.5-1.5h18c0.8,0,1.5,0.7,1.5,1.5V152
			c0,0.8-0.7,1.5-1.5,1.5s-1.5-0.7-1.5-1.5V89.6h-15v62.5C161.8,152.9,161.2,153.6,160.3,153.6C160.3,153.6,160.3,153.6,160.3,153.6
			z"/>
		<path class="st1" d="M177.3,75.4h-16c-1.4,0-2.5-1.1-2.5-2.5v-8.1c0-1.4,1.1-2.5,2.5-2.5h16c1.4,0,2.5,1.1,2.5,2.5v8.1
			C179.8,74.2,178.7,75.4,177.3,75.4z M161.8,72.4h15.1v-7.1h-15.1L161.8,72.4L161.8,72.4z"/>
		<path class="st1" d="M178.6,84.4H160c-0.7,0-1.3-0.6-1.3-1.3s0.6-1.3,1.3-1.3h18.6c0.7,0,1.3,0.6,1.3,1.3S179.3,84.4,178.6,84.4z"
			/>
		<path class="st1" d="M178.6,80.2H160c-0.7,0-1.3-0.6-1.3-1.3s0.6-1.3,1.3-1.3h18.6c0.7,0,1.3,0.6,1.3,1.3
			C179.9,79.6,179.3,80.2,178.6,80.2L178.6,80.2z"/>
		<path class="st1" d="M173.4,151.5c-2-0.1-3.9-0.8-5.5-1.8c-2.1-1.1-4.1-2.2-7.2-1.7c-0.8,0.1-1.6-0.4-1.7-1.2
			c-0.1-0.8,0.4-1.6,1.2-1.7c4.1-0.7,6.9,0.8,9.1,2c2.5,1.4,4.2,2.3,7.3,0.4c0.7-0.4,1.6-0.2,2,0.5c0.4,0.7,0.2,1.6-0.5,2
			C176.7,150.9,175.1,151.4,173.4,151.5z"/>
		<path class="st1" d="M136,165.7c-0.5,0-0.9-0.2-1.2-0.6l-9-12c-0.5-0.7-0.4-1.6,0.3-2.1s1.6-0.4,2.1,0.3c0,0,0,0,0,0l7.8,10.4
			l7.8-10.4c0.5-0.7,1.4-0.8,2.1-0.3c0.7,0.5,0.8,1.4,0.3,2.1c0,0,0,0,0,0l-9,12C136.9,165.5,136.5,165.7,136,165.7z"/>
		<path class="st1" d="M127,153.6c-0.8,0-1.5-0.7-1.5-1.5v-64c0-0.8,0.7-1.5,1.5-1.5h18c0.8,0,1.5,0.7,1.5,1.5V152
			c0,0.8-0.7,1.5-1.5,1.5s-1.5-0.7-1.5-1.5V89.6h-15v62.5C128.5,152.9,127.8,153.6,127,153.6C127,153.6,127,153.6,127,153.6z"/>
		<path class="st1" d="M144,75.4h-16c-1.4,0-2.5-1.1-2.5-2.5v-8.1c0-1.4,1.1-2.5,2.5-2.5h16c1.4,0,2.5,1.1,2.5,2.5v8.1
			C146.5,74.2,145.4,75.4,144,75.4z M128.4,72.4h15.1v-7.1h-15.1V72.4z"/>
		<path class="st1" d="M145.3,84.4h-18.6c-0.7,0-1.3-0.6-1.3-1.3s0.6-1.3,1.3-1.3h18.6c0.7,0,1.3,0.6,1.3,1.3S146,84.4,145.3,84.4z"
			/>
		<path class="st1" d="M145.3,80.2h-18.6c-0.7,0-1.3-0.6-1.3-1.3s0.6-1.3,1.3-1.3h18.6c0.7,0,1.3,0.6,1.3,1.3S146,80.2,145.3,80.2z"
			/>
		<path class="st1" d="M131.1,151.5c-1.7,0-3.3-0.6-4.7-1.5c-0.7-0.4-0.9-1.3-0.5-2c0.4-0.7,1.3-0.9,2-0.5l0,0
			c3.1,1.9,4.8,1,7.3-0.4c2.2-1.2,5-2.7,9.1-2c0.8,0.1,1.4,0.9,1.2,1.7c-0.1,0.8-0.9,1.4-1.7,1.2l0,0c-3.1-0.5-5.1,0.5-7.2,1.7
			C134.9,150.7,133,151.4,131.1,151.5z"/>
		<path class="st1" d="M101.2,165.7c-0.5,0-0.9-0.2-1.2-0.6l-9-12c-0.5-0.7-0.4-1.6,0.3-2.1c0.7-0.5,1.6-0.4,2.1,0.3c0,0,0,0,0,0
			l7.8,10.4l7.8-10.4c0.5-0.7,1.4-0.8,2.1-0.3c0.7,0.5,0.8,1.4,0.3,2.1c0,0,0,0,0,0l-9,12C102.2,165.5,101.7,165.7,101.2,165.7z"/>
		<path class="st1" d="M92.2,153.6c-0.8,0-1.5-0.7-1.5-1.5v-64c0-0.8,0.7-1.5,1.5-1.5h18c0.8,0,1.5,0.7,1.5,1.5V152
			c0,0.8-0.7,1.5-1.5,1.5s-1.5-0.7-1.5-1.5V89.6h-15v62.5C93.7,152.9,93.1,153.6,92.2,153.6C92.3,153.6,92.3,153.6,92.2,153.6z"/>
		<path class="st1" d="M109.3,75.4h-16c-1.4,0-2.5-1.1-2.5-2.5v-8.1c0-1.4,1.1-2.5,2.5-2.5h16c1.4,0,2.5,1.1,2.5,2.5v8.1
			C111.7,74.2,110.6,75.4,109.3,75.4z M93.7,72.4h15.1v-7.1H93.7C93.7,65.3,93.7,72.4,93.7,72.4z"/>
		<path class="st1" d="M110.6,84.4H91.9c-0.7,0-1.3-0.6-1.3-1.3s0.6-1.3,1.3-1.3h18.6c0-0.7,22.7,0,23.4,0c0.7,0,1.3,0.7,1.2,1.4
			c0,0.7-0.7,1.3-1.4,1.2C133.2,84.3,132.7,83.8,110.6,84.4z"/>
		<path class="st1" d="M110.6,80.2H91.9c-0.7,0-1.3-0.6-1.3-1.3s0.6-1.3,1.3-1.3h18.6c0-0.7,32.4,0,33.1,0c0.7,0,1.3,0.6,1.3,1.4
			c0,0.7-0.6,1.3-1.4,1.3C142.9,80.2,142.3,79.6,110.6,80.2z"/>
		<path class="st1" d="M96.3,151.5c-1.7,0-3.3-0.6-4.7-1.5c-0.7-0.4-0.9-1.3-0.5-2c0.4-0.7,1.3-0.9,2-0.5l0,0c3.1,1.9,4.8,1,7.3-0.4
			c2.2-1.2,5-2.7,9.2-2c0.8,0.1,1.4,0.9,1.2,1.7c-0.1,0.8-0.9,1.4-1.7,1.2l0,0c-3.1-0.5-5.1,0.5-7.2,1.7
			C100.2,150.7,98.3,151.4,96.3,151.5z"/>
		<path class="st1" d="M387,497.9c-0.8,0-1.5-0.7-1.5-1.5c0-0.5,0.3-1,0.8-1.3c5.8-3.3,9.4-9.4,9.4-16.1v-0.7c0-0.8,0.7-1.5,1.5-1.5
			s1.5,0.7,1.5,1.5v0.7c0,7.7-4.2,14.9-10.9,18.7C387.5,497.8,387.3,497.9,387,497.9z"/>
		<path class="st1" d="M397.2,480.5c-0.8,0-1.5-0.7-1.5-1.5V357.1c0-10.2-8.3-18.5-18.5-18.5h-73.2l-5.6,4.7
			c-0.7,0.5-1.6,0.4-2.1-0.3c-0.5-0.6-0.4-1.5,0.2-2l6-5c0.3-0.2,0.6-0.4,1-0.4h73.8c11.9,0,21.5,9.6,21.5,21.5V479
			C398.7,479.8,398,480.5,397.2,480.5C397.2,480.5,397.2,480.5,397.2,480.5z"/>
		<path class="st1" d="M371.2,505.5h-73.8c-0.8,0-1.5-0.7-1.5-1.5V342.1c0-0.8,0.7-1.5,1.5-1.5h73.8c11.9,0,21.5,9.6,21.5,21.5V484
			C392.6,495.9,383,505.5,371.2,505.5z M298.9,502.5h72.3c10.2,0,18.5-8.3,18.5-18.5V362.1c0-10.2-8.3-18.5-18.5-18.5h-72.3V502.5
			L298.9,502.5z"/>
		<path class="st1" d="M362.4,409.2h-37c-3.5,0-6.3-2.8-6.3-6.3v-17.3c0-3.5,2.8-6.3,6.3-6.3h37c3.5,0,6.3,2.8,6.3,6.3v17.3
			C368.7,406.4,365.9,409.2,362.4,409.2z M325.4,381.9c-2,0-3.7,1.7-3.7,3.7v17.3c0,2,1.7,3.7,3.7,3.7h37c2,0,3.7-1.7,3.7-3.7v-17.3
			c0-2-1.7-3.7-3.7-3.7H325.4z"/>
		<path class="st1" d="M294,377.2c-7.9,0-13.8-3-13.8-7s5.9-7,13.8-7c1.2,0,2.3,0.1,3.5,0.2c0.8,0,1.4,0.7,1.4,1.5
			c0,0.8-0.7,1.4-1.5,1.4c-0.1,0-0.1,0-0.2,0c-1-0.1-2.1-0.2-3.1-0.2c-6.7,0-10.9,2.4-10.9,4.1s4.3,4.1,10.9,4.1
			c3.8,0,7.5-0.9,9.5-2.2c0.7-0.4,1.6-0.2,2,0.5c0.4,0.6,0.2,1.4-0.4,1.9C302.6,376.2,298.4,377.2,294,377.2z"/>
		<path class="st1" d="M294,371.7c-7.9,0-13.8-3-13.8-7s5.9-7,13.8-7c1.2,0,2.3,0.1,3.5,0.2c0.8,0,1.4,0.7,1.4,1.5
			c0,0.8-0.7,1.4-1.5,1.4c-0.1,0-0.1,0-0.2,0c-1-0.1-2.1-0.2-3.1-0.2c-6.7,0-10.9,2.4-10.9,4.1s4.3,4.1,10.9,4.1
			c3.8,0,7.5-0.9,9.5-2.2c0.6-0.5,1.5-0.4,2,0.3c0.5,0.6,0.4,1.5-0.3,2c0,0-0.1,0.1-0.2,0.1C302.6,370.6,298.4,371.7,294,371.7z"/>
		<path class="st1" d="M294,430.9c-7.9,0-13.8-3-13.8-7s5.9-7,13.8-7c1.2,0,2.3,0.1,3.5,0.2c0.8,0,1.4,0.7,1.4,1.5
			c0,0.8-0.7,1.4-1.5,1.4c-0.1,0-0.1,0-0.2,0c-1-0.1-2.1-0.2-3.1-0.2c-6.7,0-10.9,2.4-10.9,4.1s4.3,4.1,10.9,4.1
			c3.8,0,7.5-0.9,9.5-2.2c0.7-0.4,1.6-0.2,2,0.5c0.4,0.6,0.2,1.4-0.4,1.9C302.6,429.9,298.4,430.9,294,430.9z"/>
		<path class="st1" d="M294,425.4c-7.9,0-13.8-3-13.8-7s5.9-7,13.8-7c1.2,0,2.3,0.1,3.5,0.2c0.8,0,1.4,0.7,1.4,1.5
			c0,0.8-0.7,1.4-1.5,1.4c-0.1,0-0.1,0-0.2,0c-1-0.1-2.1-0.2-3.1-0.2c-6.7,0-10.9,2.4-10.9,4.1s4.3,4.1,10.9,4.1
			c3.8,0,7.5-0.9,9.5-2.2c0.7-0.4,1.6-0.2,2,0.5c0.4,0.6,0.2,1.4-0.4,1.9C302.6,424.4,298.4,425.4,294,425.4z"/>
		<path class="st1" d="M294,485.7c-7.9,0-13.8-3-13.8-7s5.9-7,13.8-7c1.2,0,2.3,0.1,3.5,0.2c0.8,0,1.4,0.7,1.4,1.5
			c0,0.8-0.7,1.4-1.5,1.4c-0.1,0-0.1,0-0.2,0c-1-0.1-2.1-0.2-3.1-0.2c-6.7,0-10.9,2.4-10.9,4.1s4.3,4.1,10.9,4.1
			c3.8,0,7.5-0.9,9.5-2.2c0.6-0.5,1.5-0.4,2,0.3c0.5,0.6,0.4,1.5-0.3,2c0,0-0.1,0.1-0.2,0.1C302.6,484.7,298.4,485.7,294,485.7z"/>
		<path class="st1" d="M294,480.2c-7.9,0-13.8-3-13.8-7s5.9-7,13.8-7c1.2,0,2.3,0.1,3.5,0.2c0.8,0.2,1.3,0.9,1.1,1.7
			c-0.1,0.7-0.8,1.2-1.5,1.1c-1-0.1-2.1-0.2-3.1-0.2c-6.7,0-10.9,2.4-10.9,4.1s4.3,4.1,10.9,4.1c3.8,0,7.5-0.9,9.5-2.2
			c0.7-0.4,1.6-0.2,2,0.5c0.4,0.6,0.2,1.4-0.4,1.9C302.6,479.2,298.4,480.2,294,480.2z"/>
		<path class="st1" d="M557.1,383.3c-0.8,0-1.5-0.7-1.5-1.5l-0.1-92.1V183.5c0-11.9,9.6-21.5,21.5-21.5h69.3c0.8,0,1.5,0.7,1.5,1.5
			s-0.7,1.5-1.5,1.5H577c-10.2,0-18.5,8.3-18.5,18.5v106.2l0.1,92.1C558.6,382.6,557.9,383.3,557.1,383.3L557.1,383.3L557.1,383.3z"
			/>
		<path class="st1" d="M537.1,54.5h-69.3c-0.8,0-1.5-0.7-1.5-1.5s0.7-1.5,1.5-1.5h69.3c10.2,0,18.5-8.3,18.5-18.5v-159.2
			c0-0.8,0.7-1.5,1.5-1.5s1.5,0.7,1.5,1.5V33C558.6,44.9,549,54.5,537.1,54.5z"/>
		<path class="st1" d="M284.1,54.5h-47c-11.9,0-21.5-9.6-21.5-21.5v-55.4c0-0.8,0.7-1.5,1.5-1.5s1.5,0.7,1.5,1.5V33
			c0,10.2,8.3,18.5,18.5,18.5h229.7c0.8,0,1.5,0.7,1.5,1.5s-0.7,1.5-1.5,1.5L284.1,54.5L284.1,54.5z"/>
		<path class="st1" d="M537.1,564.5h-69.3c-0.8,0-1.5-0.7-1.5-1.5s0.7-1.5,1.5-1.5h69.3c10.2,0,18.5-8.3,18.5-18.5V383.8l-0.1-92.1
			c0-0.8,0.7-1.5,1.5-1.5l0,0c0.8,0,1.5,0.7,1.5,1.5l0.1,92.1V543C558.6,554.9,549,564.5,537.1,564.5z"/>
		<path class="st1" d="M284.1,564.5h-47c-11.9,0-21.5-9.6-21.5-21.5V370.5c0-0.8,0.7-1.5,1.5-1.5s1.5,0.7,1.5,1.5V543
			c0,10.2,8.3,18.5,18.5,18.5h229.7c0.8,0,1.5,0.7,1.5,1.5s-0.7,1.5-1.5,1.5H284.1z"/>
		<path class="st1" d="M226.1,371.5h-4.3c-0.8,0-1.5-0.7-1.5-1.5s0.7-1.5,1.5-1.5h3.8c0.7-0.5,1.2-1.3,1.4-2.2
			c0.1-0.7,0.8-1.2,1.5-1.2h0.5c1,0,1.8-0.8,1.8-1.8c0-0.3-0.4-9.1,2.1-13.5c1.2-2.4,2.8-4.5,4.8-6.3c1.1-1,1.4-1.3,1.4-3.4v-0.7
			c0,0,0-0.1,0-0.1c0-0.1,0-0.2-0.1-0.3c-0.2-0.1-0.5-0.2-0.8-0.2H232c-0.8,0-1.5-0.7-1.5-1.5v-9.8l-0.6-3.6c0-0.2,0-0.4-0.1-0.5
			h-2.2c-0.1,0.1-0.1,0.2-0.1,0.3l-0.1,0.3c-0.1,0.7-0.2,1.4-0.3,2.1c-0.1,0.5-0.1,0.9-0.2,1.4v9.8c0,0.8-0.7,1.5-1.5,1.5h-8.6
			c-0.8,0-1.5-0.7-1.5-1.5v-9.8c-0.1-0.5-0.1-0.9-0.2-1.4c-0.1-0.7-0.2-1.4-0.3-2.1l-0.1-0.3c0-0.1,0-0.2-0.1-0.3h-2.2
			c-0.1,0.2-0.1,0.3-0.1,0.5l-0.6,3.6v9.8c0,0.8-0.7,1.5-1.5,1.5l0,0H204c-0.3,0-0.5,0-0.8,0.2c-0.1,0.1-0.1,0.2-0.1,0.3
			c0,0,0,0.1,0,0.1v0.7c0,2.1,0.3,2.3,1.3,3.4c2,1.8,3.6,4,4.8,6.4c2.4,4.5,2,13.2,2,13.6c0,1,0.8,1.7,1.8,1.7h0.5
			c0.7,0,1.3,0.5,1.5,1.2c0.2,0.9,0.7,1.7,1.5,2.2c0.7,0.5,0.8,1.4,0.3,2.1c-0.5,0.6-1.4,0.8-2,0.4c-1.1-0.7-1.9-1.8-2.4-3
			c-2.4-0.3-4.2-2.4-4.2-4.8c0.1-2.4,0-9-1.7-12.1c-1.1-2.1-2.5-4-4.2-5.6c-1.4-1.4-2.3-2.3-2.3-5.5v-0.6c0-0.9,0.3-1.8,0.9-2.5
			c0.8-0.8,1.9-1.2,3-1.1h4.8v-8.5c0-0.1,0-0.2,0-0.2l0.6-3.6c0.1-0.8,0.4-1.6,0.9-2.2c0.6-0.6,1.4-0.9,2.2-0.9h2.2
			c0.9,0,1.7,0.4,2.3,1c0.4,0.5,0.7,1.1,0.8,1.8v0.3c0.1,0.7,0.2,1.5,0.3,2.2c0.1,0.5,0.1,1,0.2,1.4c0,0.1,0,0.2,0,0.2v8.5h5.6v-8.5
			c0-0.1,0-0.2,0-0.2c0.1-0.5,0.1-1,0.2-1.4c0.1-0.7,0.2-1.5,0.3-2.2l0.1-0.3c0.1-0.7,0.3-1.3,0.8-1.8c0.6-0.6,1.4-1,2.3-1h2.2
			c0.8,0,1.6,0.4,2.2,1c0.5,0.6,0.8,1.4,0.9,2.2l0.6,3.6c0,0.1,0,0.2,0,0.2v8.5h4.8c1.1-0.1,2.2,0.3,3,1.1c0.6,0.7,0.9,1.6,0.9,2.5
			v0.7c0,3.2-0.8,4.2-2.3,5.5c-1.7,1.6-3.2,3.5-4.2,5.6c-1.7,3.1-1.8,9.7-1.7,12c0,2.4-1.8,4.5-4.2,4.8c-0.5,1.4-1.5,2.5-2.8,3.3
			C226.6,371.5,226.4,371.5,226.1,371.5z"/>
		<path class="st1" d="M820.3,225H671.4c-6.3,0-11.5-5.2-11.5-11.5V112c0-6.3,5.2-11.5,11.5-11.5h148.9c6.3,0,11.5,5.2,11.5,11.5
			v101.5C831.8,219.8,826.6,225,820.3,225z M671.4,103.5c-4.7,0-8.5,3.8-8.5,8.5v101.5c0,4.7,3.8,8.5,8.5,8.5h148.9
			c4.7,0,8.5-3.8,8.5-8.5V112c0-4.7-3.8-8.5-8.5-8.5H671.4z"/>
		<path class="st1" d="M816.3,213H675.4c-0.8,0-1.5-0.7-1.5-1.5V114c0-0.8,0.7-1.5,1.5-1.5h140.9c0.8,0,1.5,0.7,1.5,1.5v97.4
			C817.8,212.3,817.1,213,816.3,213z M676.9,210h137.9v-94.4H676.9V210z"/>
		<circle class="st1" cx="668.6" cy="162.7" r="1.5"/>
		<path class="st1" d="M659.9,172h-10.7c-1.4,0-2.5-1.1-2.5-2.5V156c0-1.4,1.1-2.5,2.5-2.5h11.3c0.8,0,1.5,0.7,1.5,1.5
			s-0.7,1.5-1.5,1.5h-10.8V169h10.2c0.8,0,1.5,0.7,1.5,1.5S660.7,172,659.9,172z"/>
		<path class="st1" d="M660.7,369.1c-24.9,0-30.5-22.6-30.5-30.5c0-8.4,5.5-30.3,30.5-30.3c9.5,0,23.6,8.6,24.2,9
			c0.1,0.1,6.1,4,12.4,4.1c0.7,0,1.5,0,2.3,0c4.1-0.1,9.8-0.3,11.5,4.6c0.3,0.8-0.1,1.6-0.9,1.9c-0.8,0.3-1.6-0.1-1.9-0.9l0,0
			c-0.9-2.6-4.3-2.7-8.6-2.6c-0.9,0-1.7,0-2.5,0c-7.1-0.2-13.6-4.4-13.9-4.6c-0.1-0.1-14-8.5-22.6-8.5c-22.6,0-27.5,19.7-27.5,27.3
			c0,7.1,5,27.5,27.5,27.5c8.6,0,22.5-8.4,22.7-8.5s6.8-4.3,13.8-4.6c3,0,5.5-2.3,5.9-5.2c0-0.8,0.7-1.5,1.5-1.5s1.5,0.7,1.5,1.5
			c-0.3,4.6-4.2,8.2-8.8,8.2c-6.2,0.2-12.3,4.1-12.3,4.1C684.3,360.5,670.2,369.1,660.7,369.1z"/>
		<path class="st1" d="M711.9,352.4L711.9,352.4c-0.9,0-1.5-0.7-1.5-1.6c0.2-8.1-0.5-16.1-2.1-24c-0.2-0.8,0.4-1.6,1.2-1.8
			c0.8-0.2,1.6,0.4,1.8,1.2c1.6,8.1,2.3,16.4,2.1,24.7C713.4,351.7,712.7,352.4,711.9,352.4z"/>
		<path class="st1" d="M716.6,352.4L716.6,352.4c-0.9,0-1.5-0.7-1.5-1.6c0.2-8.1-0.5-16.1-2.1-24c-0.2-0.8,0.4-1.6,1.2-1.8
			c0.8-0.2,1.6,0.4,1.8,1.2c1.6,8.1,2.3,16.4,2.1,24.7C718.1,351.7,717.4,352.4,716.6,352.4z"/>
		<path class="st1" d="M721.3,352.4L721.3,352.4c-0.9,0-1.5-0.7-1.5-1.6c0.2-8.1-0.5-16.1-2.1-24c-0.2-0.8,0.4-1.6,1.2-1.8
			c0.8-0.2,1.6,0.4,1.8,1.2c1.6,8.1,2.3,16.4,2.1,24.7C722.8,351.7,722.1,352.4,721.3,352.4z"/>
		<path class="st1" d="M725.7,348.2c-0.8,0-1.5-0.7-1.5-1.5c0-0.4,0.2-0.8,0.4-1.1l3.5-3.5v-6.5l-3.6-3.9c-0.6-0.6-0.6-1.5-0.1-2.1
			c0.6-0.6,1.5-0.6,2.1-0.1c0.1,0.1,0.1,0.1,0.2,0.2l4,4.4c0.2,0.3,0.4,0.6,0.4,1v7.7c0,0.4-0.2,0.8-0.5,1.1l-4,3.9
			C726.4,348,726.1,348.2,725.7,348.2z"/>
		<path class="st1" d="M662.3,352.1c-0.8,0-1.5-0.7-1.5-1.5c0-0.6,0.4-1.2,1-1.4l23.4-8.7c0.2-0.1,0.3-0.1,0.5-0.1h20.7
			c0.8,0,1.5,0.7,1.5,1.5s-0.7,1.5-1.5,1.5H686l-23.2,8.6C662.6,352.1,662.5,352.1,662.3,352.1z"/>
		<path class="st1" d="M706.4,337h-20.7c-0.2,0-0.4,0-0.5-0.1l-23.4-8.7c-0.8-0.2-1.3-1-1.1-1.8c0.2-0.8,1-1.3,1.8-1.1
			c0.1,0,0.2,0.1,0.3,0.1l23.2,8.6h20.4c0.8-0.1,1.6,0.5,1.6,1.3c0.1,0.8-0.5,1.6-1.3,1.6C706.5,337,706.5,337,706.4,337z"/>
		<path class="st1" d="M620.1,340.2h-16.5c-0.8,0-1.5-0.7-1.5-1.5s0.7-1.5,1.5-1.5h16.5c0.8,0,1.5,0.7,1.5,1.5
			S620.9,340.2,620.1,340.2z"/>
		<path class="st1" d="M625.5,318.4c-0.3,0-0.6-0.1-0.8-0.2L611,309c-0.7-0.5-0.9-1.4-0.4-2.1c0.5-0.7,1.4-0.9,2.1-0.4l13.7,9.1
			c0.7,0.4,0.9,1.4,0.5,2.1C626.6,318.1,626.1,318.4,625.5,318.4z"/>
		<path class="st1" d="M643.5,304c-0.6,0-1.1-0.4-1.4-0.9l-6.4-15.1c-0.3-0.8,0.1-1.6,0.9-1.9c0.7-0.3,1.6,0.1,1.9,0.8l6.4,15.1
			c0.3,0.8,0,1.6-0.8,2C643.9,303.9,643.7,304,643.5,304z"/>
		<path class="st1" d="M611.8,370.8c-0.8,0-1.5-0.7-1.5-1.5c0-0.5,0.3-1,0.7-1.3l13.7-9.1c0.7-0.5,1.6-0.3,2.1,0.4
			c0.5,0.7,0.3,1.6-0.4,2.1l0,0l-13.7,9.1C612.4,370.7,612.1,370.8,611.8,370.8z"/>
		<path class="st1" d="M637,391.2c-0.2,0-0.4,0-0.6-0.1c-0.8-0.3-1.1-1.2-0.8-2c0,0,0,0,0,0l6.4-15.1c0.4-0.7,1.2-1.1,2-0.7
			c0.7,0.3,1,1.2,0.8,1.9l-6.4,15.1C638.2,390.8,637.7,391.2,637,391.2z"/>
		<path class="st1" d="M66.7,457.9c-0.2,0-0.3,0-0.5-0.1L-35.2,424c-0.6-0.2-1-0.8-1-1.4c0-0.6,0.4-1.2,1-1.4L67,382.4
			c0.3-0.1,0.7-0.1,1.1,0l100.3,38.8c0.8,0.3,1.2,1.2,0.9,1.9c-0.2,0.4-0.5,0.7-0.9,0.9L67.2,457.8C67,457.9,66.9,457.9,66.7,457.9z
			 M-30.3,422.5l97,32.3l96.8-32.3l-95.9-37.1L-30.3,422.5z"/>
		<path class="st1" d="M66.7,493.6L66.7,493.6c-0.4,0-0.8-0.2-1.1-0.5c-0.2-0.2-16.9-16.6-59.7-20.3c-0.8-0.1-1.4-0.7-1.4-1.5v-27.7
			c0-0.8,0.7-1.5,1.5-1.5c0.2,0,0.3,0,0.5,0.1L67,463.4l59.6-21.4c0.8-0.3,1.6,0.1,1.9,0.9c0.1,0.2,0.1,0.3,0.1,0.5V472
			c0,0.8-0.6,1.5-1.4,1.5c-0.4,0-41.5,1.8-59.3,19.7C67.5,493.5,67.1,493.6,66.7,493.6z M7.6,470.1c37.4,3.5,54.8,16.3,59.1,20
			c7.9-7.4,20.3-12.9,36.8-16.4c7.3-1.5,14.6-2.6,22-3.1v-25l-58,20.9c-0.3,0.1-0.7,0.1-1,0l-59-20.6V470.1z"/>
		<path class="st1" d="M66.6,422.9c-1.3,0-13.1-0.1-13.1-4.8c0-2,2.2-3.4,6.5-4.2c0.8-0.2,1.6,0.4,1.8,1.2c0.2,0.8-0.4,1.6-1.2,1.8
			c-1.4,0.2-2.7,0.6-3.8,1.3c1,0.7,4.6,1.8,10,1.8c5.9,0,9.7-1.3,10.2-2c0.4-0.7,1.4-0.9,2.1-0.5c0.7,0.4,0.9,1.3,0.5,2
			C77.8,422,71.6,422.9,66.6,422.9z"/>
		<path class="st1" d="M137.6,478.6c-0.8,0-1.5-0.7-1.5-1.5V434c0-0.8,0.7-1.5,1.5-1.5s1.5,0.7,1.5,1.5v43.1
			C139.1,478,138.5,478.6,137.6,478.6z"/>
		<path class="st1" d="M140.4,490.7c-5,0-9-3.5-9-7.7c0-3.2,2.4-6.1,5.9-7.2c0.8-0.3,1.6,0.1,1.9,0.9c0.3,0.8-0.1,1.6-0.9,1.9
			c-0.1,0-0.1,0-0.2,0.1c-2.3,0.7-3.8,2.5-3.8,4.4c0,2.6,2.7,4.7,6,4.7s6-2.1,6-4.7c0-0.7-0.2-1.3-0.5-1.9c-0.4-0.7-0.2-1.6,0.5-2.1
			c0.7-0.4,1.6-0.2,2.1,0.5c0.6,1,1,2.2,1,3.4C149.4,487.3,145.4,490.7,140.4,490.7z"/>
		<path class="st1" d="M133.3,549c-0.8,0-1.5-0.7-1.5-1.5v-46.7c0-5.9,1.1-9.9,3.1-11.7c0.8-0.7,1.8-1.1,2.8-1l-0.4,3
			c0,0,0.1,0,0.1,0c-0.7,0-2.6,1.9-2.6,9.7v46.7C134.8,548.3,134.2,549,133.3,549z"/>
		<path class="st1" d="M147.2,540.1c-0.8,0-1.5-0.7-1.5-1.5v-38.3c0-7.8-1.9-9.6-2.6-9.7h0.1l-0.4-3c1-0.1,2.1,0.3,2.8,1
			c2.1,1.8,3.1,5.7,3.1,11.6v38.3C148.7,539.4,148.1,540.1,147.2,540.1C147.2,540.1,147.2,540.1,147.2,540.1z"/>
		<path class="st1" d="M140.3,544.2c-0.8,0-1.5-0.7-1.5-1.5v-53.1c0-0.8,0.7-1.5,1.5-1.5s1.5,0.7,1.5,1.5v53.1
			C141.8,543.5,141.2,544.2,140.3,544.2z"/>
		<path class="st1" d="M1056.7,457.9c-0.2,0-0.3,0-0.5-0.1L954.8,424c-0.8-0.3-1.2-1.1-1-1.9c0.1-0.4,0.5-0.8,0.9-0.9l102.3-38.8
			c0.3-0.1,0.7-0.1,1.1,0l100.3,38.8c0.8,0.3,1.2,1.2,0.9,1.9c-0.2,0.4-0.5,0.7-0.9,0.9l-101.2,33.8
			C1057,457.8,1056.8,457.9,1056.7,457.9z M959.7,422.5l97,32.3l96.8-32.3l-95.9-37.1L959.7,422.5z"/>
		<path class="st1" d="M1056.7,493.6L1056.7,493.6c-0.4,0-0.8-0.2-1.1-0.5c-0.2-0.2-16.9-16.6-59.7-20.3c-0.8-0.1-1.4-0.7-1.4-1.5
			v-27.7c0-0.8,0.7-1.5,1.5-1.5c0.2,0,0.3,0,0.5,0.1l60.4,21.1l59.6-21.4c0.8-0.3,1.6,0.1,1.9,0.9c0.1,0.2,0.1,0.3,0.1,0.5V472
			c0,0.8-0.6,1.5-1.4,1.5c-0.4,0-41.5,1.8-59.3,19.7C1057.5,493.5,1057.1,493.6,1056.7,493.6z M997.5,470.1
			c37.4,3.5,54.8,16.3,59.1,20c7.9-7.4,20.3-12.9,36.8-16.4c7.3-1.5,14.6-2.6,22-3.1v-25l-58.1,20.9c-0.3,0.1-0.7,0.1-1,0
			l-58.9-20.6L997.5,470.1L997.5,470.1z"/>
		<path class="st1" d="M1056.6,422.9c-1.3,0-13.1-0.1-13.1-4.8c0-2,2.2-3.4,6.5-4.2c0.8-0.2,1.6,0.4,1.8,1.2
			c0.2,0.8-0.4,1.6-1.2,1.8c-1.4,0.2-2.7,0.6-3.8,1.3c1,0.7,4.6,1.8,10,1.8c5.9,0,9.7-1.3,10.2-2c0.4-0.7,1.4-0.9,2.1-0.5
			c0.7,0.4,0.9,1.3,0.5,2C1067.8,422,1061.6,422.9,1056.6,422.9z"/>
		<path class="st1" d="M1127.7,478.6c-0.8,0-1.5-0.7-1.5-1.5V434c0-0.8,0.7-1.5,1.5-1.5s1.5,0.7,1.5,1.5v43.1
			C1129.2,478,1128.5,478.6,1127.7,478.6z"/>
		<path class="st1" d="M1130.4,490.7c-5,0-9-3.5-9-7.7c0-3.2,2.4-6.1,5.9-7.2c0.8-0.2,1.6,0.3,1.8,1.1c0.2,0.7-0.2,1.5-0.9,1.8
			c-2.3,0.7-3.8,2.5-3.8,4.4c0,2.6,2.7,4.7,6,4.7s6-2.1,6-4.7c0-0.7-0.2-1.3-0.5-1.9c-0.4-0.7-0.2-1.6,0.5-2.1
			c0.7-0.4,1.6-0.2,2.1,0.5c0.6,1,1,2.2,1,3.4C1139.4,487.3,1135.4,490.7,1130.4,490.7z"/>
		<path class="st1" d="M1123.3,549c-0.8,0-1.5-0.7-1.5-1.5v-46.7c0-5.9,1.1-9.9,3.1-11.7c0.8-0.7,1.8-1.1,2.8-1l-0.4,3
			c0,0,0.1,0,0.1,0c-0.7,0-2.6,1.9-2.6,9.7v46.7C1124.8,548.3,1124.2,549,1123.3,549z"/>
		<path class="st1" d="M1137.2,540.1c-0.8,0-1.5-0.7-1.5-1.5v-38.3c0-7.8-1.9-9.6-2.6-9.7h0.1l-0.4-3c1-0.1,2.1,0.3,2.8,1
			c2.1,1.8,3.1,5.7,3.1,11.6v38.3C1138.7,539.4,1138.1,540.1,1137.2,540.1C1137.2,540.1,1137.2,540.1,1137.2,540.1z"/>
		<path class="st1" d="M1130.3,544.2c-0.8,0-1.5-0.7-1.5-1.5v-53.1c0-0.8,0.7-1.5,1.5-1.5s1.5,0.7,1.5,1.5v53.1
			C1131.8,543.5,1131.2,544.2,1130.3,544.2z"/>
		<path class="st1" d="M66.7-52.1c-0.2,0-0.3,0-0.5-0.1L-35.2-86c-0.6-0.2-1-0.8-1-1.4c0-0.6,0.4-1.2,1-1.4L67-127.6
			c0.3-0.1,0.7-0.1,1.1,0l100.3,38.8c0.8,0.3,1.2,1.2,0.9,1.9c-0.2,0.4-0.5,0.7-0.9,0.9L67.2-52.2C67-52.1,66.9-52.1,66.7-52.1z
			 M-30.3-87.5l97,32.3l96.8-32.3l-95.9-37.1L-30.3-87.5z"/>
		<path class="st1" d="M66.7-16.4L66.7-16.4c-0.4,0-0.8-0.2-1.1-0.5C65.4-17,48.7-33.4,5.9-37.1c-0.8-0.1-1.4-0.7-1.4-1.5v-27.7
			c0-0.8,0.7-1.5,1.5-1.5c0.2,0,0.3,0,0.5,0.1L67-46.6L126.6-68c0.8-0.3,1.6,0.1,1.9,0.9c0.1,0.2,0.1,0.3,0.1,0.5V-38
			c0,0.8-0.6,1.5-1.4,1.5c-0.4,0-41.5,1.8-59.3,19.7C67.5-16.5,67.1-16.4,66.7-16.4z M7.6-39.9c37.4,3.5,54.8,16.3,59.1,20
			c7.9-7.4,20.3-12.9,36.8-16.4c7.3-1.5,14.6-2.6,22-3.1v-25l-58,20.9c-0.3,0.1-0.7,0.1-1,0l-59-20.6V-39.9z"/>
		<path class="st1" d="M66.6-87.1c-1.3,0-13.1-0.1-13.1-4.8c0-2,2.2-3.4,6.5-4.2c0.8-0.2,1.6,0.4,1.8,1.2c0.2,0.8-0.4,1.6-1.2,1.8
			c-1.4,0.2-2.7,0.6-3.8,1.3c1,0.7,4.6,1.8,10,1.8c5.9,0,9.7-1.3,10.2-2c0.4-0.7,1.4-0.9,2.1-0.5c0.7,0.4,0.9,1.3,0.5,2
			C77.8-88,71.6-87.1,66.6-87.1z"/>
		<path class="st1" d="M137.6-31.4c-0.8,0-1.5-0.7-1.5-1.5V-76c0-0.8,0.7-1.5,1.5-1.5s1.5,0.7,1.5,1.5v43.1
			C139.1-32,138.5-31.4,137.6-31.4z"/>
		<path class="st1" d="M140.4-19.3c-5,0-9-3.5-9-7.7c0-3.2,2.4-6.1,5.9-7.2c0.8-0.3,1.6,0.1,1.9,0.9c0.3,0.8-0.1,1.6-0.9,1.9
			c-0.1,0-0.1,0-0.2,0.1c-2.3,0.7-3.8,2.5-3.8,4.4c0,2.6,2.7,4.7,6,4.7s6-2.1,6-4.7c0-0.7-0.2-1.3-0.5-1.9c-0.4-0.7-0.2-1.6,0.5-2.1
			c0.7-0.4,1.6-0.2,2.1,0.5c0.6,1,1,2.2,1,3.4C149.4-22.7,145.4-19.3,140.4-19.3z"/>
		<path class="st1" d="M133.3,39c-0.8,0-1.5-0.7-1.5-1.5V-9.2c0-5.9,1.1-9.9,3.1-11.7c0.8-0.7,1.8-1.1,2.8-1l-0.4,3h0.1
			c-0.7,0-2.6,1.9-2.6,9.7v46.7C134.8,38.3,134.2,39,133.3,39z"/>
		<path class="st1" d="M147.2,30.1c-0.8,0-1.5-0.7-1.5-1.5V-9.7c0-7.8-1.9-9.6-2.6-9.7h0.1l-0.4-3c1-0.1,2.1,0.3,2.8,1
			c2.1,1.8,3.1,5.7,3.1,11.6v38.3C148.7,29.4,148.1,30.1,147.2,30.1C147.2,30.1,147.2,30.1,147.2,30.1z"/>
		<path class="st1" d="M140.3,34.2c-0.8,0-1.5-0.7-1.5-1.5v-53.1c0-0.8,0.7-1.5,1.5-1.5s1.5,0.7,1.5,1.5v53.1
			C141.8,33.5,141.2,34.2,140.3,34.2z"/>
		<path class="st1" d="M796.8,196.8H695.9c-0.8,0-1.5-0.7-1.5-1.5s0.7-1.5,1.5-1.5h100.9c0.8,0,1.5,0.7,1.5,1.5
			S797.7,196.8,796.8,196.8z"/>
		<path class="st1" d="M496.9,443.4c-2.6,1.7-5.7,2.6-8.8,2.5c-6.3-0.3-10.8-5-11.8-6.1v-0.1l-0.3-0.3c-5-5-10.4-7.5-15.9-7.2
			c-3.3,0.2-6.5,1.2-9.3,3v3.7c2.7-2.2,6-3.4,9.4-3.7c4.5-0.2,9,1.8,13.3,6l0.2,0.3c0.2,0.3,5.8,7,14.2,7.4h0.9
			c2.8,0,5.6-0.7,8.2-2.1v-3.5L496.9,443.4z"/>
		<path class="st1" d="M721.4,196.4c-0.8,0-1.4-0.6-1.4-1.4v-26c0-0.3-0.1-0.5-0.3-0.6h-16.8c-0.2,0.1-0.3,0.4-0.3,0.6v26
			c0,0.8-0.6,1.4-1.4,1.4s-1.4-0.6-1.4-1.4v-26c-0.1-1.8,1.3-3.3,3-3.4h16.8c1.8,0.1,3.1,1.6,3,3.4v26
			C722.8,195.8,722.2,196.3,721.4,196.4z"/>
		<path class="st1" d="M756.3,196.4c-0.8,0-1.4-0.6-1.4-1.4v-41c0-0.3-0.1-0.5-0.3-0.6h-16.8c-0.2,0.1-0.3,0.4-0.3,0.6v41
			c0,0.8-0.6,1.4-1.4,1.4s-1.4-0.6-1.4-1.4v-41c-0.1-1.8,1.3-3.3,3-3.4h16.8c1.8,0.1,3.1,1.6,3,3.4v41
			C757.6,195.8,757,196.3,756.3,196.4z"/>
		<path class="st1" d="M791.2,196.4c-0.8,0-1.4-0.6-1.4-1.4v-58c0-0.3-0.1-0.5-0.3-0.6h-16.8c-0.2,0.1-0.3,0.4-0.3,0.6v58
			c0,0.8-0.6,1.4-1.4,1.4s-1.4-0.6-1.4-1.4v-58c-0.1-1.8,1.3-3.3,3-3.4h16.8c1.8,0.1,3.1,1.6,3,3.4v58
			C792.5,195.8,791.9,196.3,791.2,196.4z"/>
		<path class="st1" d="M918.3,276.9c-2.6,1.7-5.7,2.6-8.8,2.5c-6.3-0.3-10.8-5-11.8-6.1v-0.1l-0.3-0.3c-5-5-10.4-7.5-15.9-7.2
			c-3.3,0.2-6.5,1.2-9.3,3v3.7c2.7-2.2,6-3.5,9.4-3.7c4.5-0.2,9,1.8,13.3,6l0.2,0.3c0.2,0.3,5.8,7,14.2,7.4h0.8
			c2.8,0,5.6-0.7,8.2-2.1L918.3,276.9L918.3,276.9z"/>
		<path class="st1" d="M918.9,296c-1,0-2.1,0-3.1-0.1s-2-0.1-3-0.1h-39.3c-1,0-2,0-3,0.1c-2,0.1-4,0.1-6,0c-4.2-0.5-7.6-3.8-8.1-8
			c-0.5-3.7,1.1-7.4,2.5-10.2l23.3-43.4v-26.1c-1.9-0.1-3.8-0.8-5.2-2.1c-0.9-1.1-1.4-2.5-1.2-3.9c0.3-3.3,3.4-5,6.1-5.1h22.6
			c2.8,0.1,5.9,1.8,6.2,5.1c0.2,1.4-0.3,2.8-1.2,3.9c-1.4,1.3-3.2,2.1-5.2,2.1v26.1l23.2,43.3c1.4,2.8,2.9,6.5,2.5,10.2
			c-0.5,4.2-3.9,7.5-8.1,8C920.9,296,919.9,296,918.9,296z M873.6,292.9h39.3c1,0,2,0,3,0.1c1.9,0.1,3.8,0.1,5.6,0
			c2.8-0.3,5.1-2.6,5.4-5.4c0.4-2.9-0.9-6-2.2-8.6l-23.3-43.5c-0.1-0.2-0.2-0.5-0.2-0.7v-27.9c0-0.8,0.7-1.5,1.5-1.5
			c2.1,0,3.8-0.4,4.5-1.2c0.4-0.4,0.5-1,0.5-1.6c-0.2-1.7-2.2-2.3-3.3-2.3H882c-1,0-3,0.6-3.2,2.3c-0.1,0.6,0.1,1.2,0.5,1.6
			c0.7,0.8,2.3,1.2,4.5,1.2c0.8,0,1.5,0.7,1.5,1.5v27.9c0,0.2-0.1,0.5-0.2,0.7L861.7,279c-1.2,2.5-2.5,5.6-2.2,8.5
			c0.3,2.8,2.6,5.1,5.4,5.4c1.9,0.1,3.8,0.1,5.6,0C871.5,292.9,872.6,292.9,873.6,292.9z"/>
		<path class="st1" d="M964.5,295.9c-6.1,0-11.1-5-11.1-11.1v-76.6c-1.9-0.1-3.8-0.8-5.2-2.1c-0.9-1.1-1.4-2.5-1.2-3.9
			c0.3-3.3,3.4-5,6.1-5.1h22.6c2.8,0.1,5.9,1.8,6.2,5.1c0.2,1.4-0.3,2.8-1.2,3.9c-1.4,1.3-3.2,2.1-5.2,2.1v76.6
			C975.6,290.9,970.6,295.9,964.5,295.9z M953.3,200.1c-1,0-3,0.6-3.2,2.3c-0.1,0.6,0.1,1.2,0.5,1.6c0.7,0.8,2.3,1.2,4.5,1.2
			c0.8,0,1.5,0.7,1.5,1.5v78c-0.2,4.4,3.3,8.2,7.8,8.3c4.4,0.2,8.2-3.3,8.3-7.8c0-0.2,0-0.4,0-0.6v-78c0-0.8,0.7-1.5,1.5-1.5
			c2.1,0,3.8-0.4,4.5-1.2c0.4-0.4,0.5-1,0.5-1.6c-0.2-1.7-2.2-2.3-3.3-2.3H953.3L953.3,200.1z"/>
		<path class="st1" d="M65.6,262.4c-1.4-0.3-2.9-0.5-4.4-0.4c-8.2,0.4-13.7,6.5-14.3,7.3l-0.2,0.2c-4.4,4.4-9,6.5-13.5,6.3
			c-6.3-0.3-10.9-5-11.8-6.1v-0.1l-0.3-0.3c-1.7-1.7-3.6-3.2-5.6-4.5v3.6c1.1,0.8,2.2,1.7,3.2,2.7l0.2,0.3c0.2,0.3,5.8,7,14.2,7.4
			c5.5,0.3,10.8-2.1,15.8-7.2l0.3-0.3c0-0.1,5-5.9,12.2-6.2c1.4-0.1,2.9,0.1,4.3,0.5L65.6,262.4L65.6,262.4z"/>
		<path class="st1" d="M51.1,235.4c-0.8,0-1.5-0.7-1.5-1.5v-27.1c0-0.8,0.7-1.5,1.5-1.5c2.1,0,3.8-0.4,4.5-1.2
			c0.4-0.4,0.5-1,0.5-1.6c-0.2-1.7-2.2-2.3-3.3-2.3H30.3c-1,0-3,0.6-3.2,2.3c-0.1,0.6,0.1,1.2,0.5,1.6c0.7,0.8,2.3,1.2,4.5,1.2
			c0.8,0,1.5,0.7,1.5,1.5v26.9c0,0.8-0.7,1.5-1.5,1.5s-1.5-0.7-1.5-1.5v-25.4c-1.9-0.1-3.8-0.8-5.2-2.1c-0.9-1.1-1.4-2.5-1.2-3.9
			c0.3-3.3,3.4-5,6.1-5.1h22.6c2.8,0.1,5.9,1.8,6.2,5.1c0.2,1.4-0.3,2.8-1.2,3.9c-1.4,1.3-3.2,2.1-5.2,2.1v25.6
			C52.6,234.7,51.9,235.4,51.1,235.4z"/>
		<path class="st1" d="M41.6,295.9c-18,0-32.5-14.6-32.4-32.6c0-14,9.1-26.5,22.4-30.8c0.8-0.3,1.6,0.1,1.9,0.9
			c0.3,0.8-0.1,1.6-0.9,1.9c-0.1,0-0.1,0-0.2,0.1c-15.5,5-24,21.7-19,37.2c5,15.5,21.7,24,37.2,19c15.5-5,24-21.7,19-37.2
			c-2.9-9-10-16.1-19-19c-0.8-0.3-1.2-1.1-1-1.9c0.3-0.8,1.1-1.2,1.9-1c17.1,5.5,26.4,23.9,20.9,41
			C68.1,286.8,55.6,295.9,41.6,295.9z"/>
		<path class="st1" d="M285.2,185.4c-11.3,0-20.5-9.2-20.5-20.5s9.2-20.5,20.5-20.5s20.5,9.2,20.5,20.5c0,5.2-2,10.2-5.5,14
			C296.3,183,290.9,185.4,285.2,185.4z M285.2,147.4c-9.7,0-17.5,7.8-17.5,17.5s7.8,17.5,17.5,17.5c4.8,0,9.5-2,12.8-5.5
			c6.6-7.1,6.2-18.1-0.8-24.7C293.9,149,289.7,147.4,285.2,147.4L285.2,147.4z"/>
		<path class="st1" d="M231.7,203.6c-7.2,0-13-5.8-13-13c0-7.2,5.8-13,13-13s13,5.8,13,13c0,3.3-1.2,6.4-3.5,8.8
			C238.8,202.1,235.4,203.6,231.7,203.6z M231.7,180.6c-5.5,0-10,4.5-10,10c0,5.5,4.5,10,10,10c5.5,0,10-4.5,10-10
			c0-2.8-1.2-5.4-3.2-7.3C236.7,181.6,234.3,180.6,231.7,180.6L231.7,180.6z"/>
		<path class="st1" d="M285.2,177.9c-7.2,0-13-5.8-13-13c0-7.2,5.8-13,13-13s13,5.8,13,13c0,3.3-1.2,6.4-3.5,8.8
			C292.3,176.4,288.8,177.9,285.2,177.9z M285.2,154.9c-2.8,0-5.4,1.2-7.3,3.2c-3.8,4-3.5,10.4,0.5,14.1c1.8,1.7,4.3,2.7,6.8,2.7
			c5.5,0,10-4.5,10-10C295.2,159.4,290.7,154.9,285.2,154.9L285.2,154.9z"/>
		<path class="st1" d="M827.9,433.1c-24.7,0-50.2-6.5-50.2-17.5s25.5-17.5,50.2-17.5s50.2,6.5,50.2,17.5S852.6,433.1,827.9,433.1z
			 M827.9,401.1c-12.9,0-24.9,1.6-34,4.6c-8.3,2.7-13.2,6.4-13.2,9.9s5,7.2,13.2,9.9c9.1,3,21.1,4.6,34,4.6s24.9-1.6,34-4.6
			c8.3-2.7,13.2-6.4,13.2-9.9s-5-7.2-13.2-9.9C852.8,402.7,840.7,401.1,827.9,401.1L827.9,401.1z"/>
		<path class="st1" d="M827.9,465.8c-11,0-17.5-25.5-17.5-50.2s6.5-50.2,17.5-50.2s17.5,25.5,17.5,50.2S838.8,465.8,827.9,465.8z
			 M827.9,368.3c-3.5,0-7.2,5-9.9,13.2c-3,9.1-4.6,21.1-4.6,34s1.6,24.9,4.6,34c2.7,8.3,6.4,13.2,9.9,13.2s7.2-5,9.9-13.2
			c3-9.1,4.6-21.1,4.6-34s-1.6-24.9-4.6-34C835,373.3,831.3,368.4,827.9,368.3L827.9,368.3z"/>
		<path class="st1" d="M798.7,453.4c-2.3,0.1-4.6-0.7-6.3-2.3c-3.5-3.5-2.9-10.6,1.8-19.8c4.4-8.8,12-18.8,21.3-28.1
			c15.2-15.2,31.9-25.4,41.6-25.4c2.3-0.1,4.6,0.7,6.3,2.3c3.5,3.5,2.9,10.6-1.8,19.8c-4.4,8.8-12,18.8-21.3,28.1
			C825.1,443.2,808.3,453.4,798.7,453.4z M857.1,380.8c-8.8,0-25,10.1-39.5,24.5c-9.1,9.1-16.5,18.8-20.8,27.3
			c-3.9,7.8-4.8,13.9-2.4,16.4c1.2,1,2.7,1.5,4.2,1.4c8.8,0,25-10.1,39.5-24.5c9.1-9.1,16.5-18.8,20.8-27.3
			c3.9-7.8,4.8-13.9,2.4-16.4C860.1,381.2,858.6,380.7,857.1,380.8L857.1,380.8z"/>
		<path class="st1" d="M857.1,453.4c-9.7,0-26.4-10.2-41.6-25.4c-9.3-9.3-16.9-19.3-21.3-28.1c-4.7-9.3-5.3-16.3-1.8-19.8
			c1.7-1.6,4-2.4,6.3-2.3c9.7,0,26.4,10.2,41.6,25.4c9.3,9.3,16.9,19.3,21.3,28.1c4.7,9.3,5.3,16.3,1.8,19.8
			C861.7,452.7,859.4,453.5,857.1,453.4z M798.7,380.8c-1.5-0.1-3,0.4-4.2,1.4c-2.5,2.5-1.6,8.6,2.4,16.4
			c4.3,8.5,11.7,18.2,20.8,27.3c14.4,14.4,30.7,24.5,39.5,24.5c1.5,0.1,3-0.4,4.2-1.4c2.5-2.5,1.6-8.6-2.4-16.4
			c-4.3-8.5-11.7-18.2-20.8-27.3C823.7,390.9,807.5,380.8,798.7,380.8L798.7,380.8z"/>
		<path class="st1" d="M827.9,425.2c-5.3,0-9.6-4.3-9.6-9.6c0-5.3,4.3-9.6,9.6-9.6c5.3,0,9.6,4.3,9.6,9.6c0,2.4-0.9,4.8-2.6,6.5
			C833.1,424.1,830.5,425.2,827.9,425.2z M827.9,409c-1.8,0-3.6,0.8-4.8,2.1c-2.5,2.7-2.3,6.8,0.4,9.3c1.2,1.1,2.8,1.7,4.5,1.8
			c1.8,0,3.6-0.8,4.8-2.1c2.5-2.7,2.3-6.8-0.4-9.3C831.1,409.7,829.5,409,827.9,409L827.9,409z"/>
		<path class="st1" d="M331.3,130.4c-7.2,0-13-5.8-13-13c0-7.2,5.8-13,13-13s13,5.8,13,13c0,3.3-1.2,6.4-3.5,8.8
			C338.4,128.9,335,130.4,331.3,130.4z M331.3,107.4c-5.5,0-10,4.5-10,10c0,5.5,4.5,10,10,10c2.8,0,5.4-1.2,7.3-3.2
			c3.8-4,3.5-10.4-0.5-14.1C336.3,108.3,333.9,107.4,331.3,107.4L331.3,107.4z"/>
		<path class="st1" d="M256.1,115.5c-7.2,0-13-5.8-13-13c0-7.2,5.8-13,13-13c7.2,0,13,5.8,13,13c0,3.3-1.2,6.4-3.5,8.8
			C263.2,114,259.8,115.5,256.1,115.5z M256.1,92.5c-2.8,0-5.4,1.2-7.3,3.2c-3.8,4-3.5,10.4,0.5,14.1c1.8,1.7,4.3,2.7,6.8,2.7
			c2.8,0,5.4-1.2,7.3-3.2c3.8-4,3.5-10.4-0.5-14.1C261.1,93.5,258.7,92.5,256.1,92.5z"/>
		<path class="st1" d="M243.7,189.9c-0.8,0-1.5-0.7-1.5-1.5c0-0.6,0.4-1.2,1-1.4l26.9-10.1c0.8-0.3,1.6,0.1,1.9,0.9
			c0.3,0.8-0.1,1.6-0.9,1.9l-26.9,10.1C244.1,189.9,243.9,189.9,243.7,189.9z"/>
		<path class="st1" d="M300.3,154.5c-0.8,0-1.5-0.7-1.5-1.5c0-0.4,0.1-0.7,0.4-1l23.3-26.3c0.6-0.6,1.5-0.7,2.1-0.1s0.7,1.5,0.1,2.1
			l0,0L301.5,154C301.2,154.3,300.8,154.5,300.3,154.5z"/>
		<path class="st1" d="M275.1,149.2c-0.6,0-1.1-0.4-1.4-0.9l-14.6-34.4c-0.4-0.7,0-1.6,0.7-2c0.7-0.4,1.6,0,2,0.7c0,0,0,0.1,0,0.1
			l14.6,34.4c0.3,0.8,0,1.6-0.8,2C275.5,149.1,275.3,149.2,275.1,149.2z"/>
		<path class="st1" d="M945.7,151.9c-35.4,0-64.2-28.7-64.2-64.2s28.7-64.2,64.2-64.2s64.2,28.7,64.2,64.2
			C1009.8,123.2,981.1,151.9,945.7,151.9z M945.7,26.6c-33.8,0-61.2,27.4-61.2,61.2c0,33.8,27.4,61.2,61.2,61.2s61.2-27.4,61.2-61.2
			C1006.8,54,979.4,26.6,945.7,26.6L945.7,26.6z"/>
		<path class="st1" d="M967.2,145.3c-0.3-3.4,0.6-8.1,3.3-10.8c0.7-0.6,1.5-1.2,2.3-1.7c0.6-0.3,1.1-0.7,1.6-1.1
			c1.2-1.2,2.2-2.5,3-4c1.4-2.3,2.8-4.7,5.5-5.9c0.5-0.2,1-0.3,1.5-0.5c0.5-0.1,1.1-0.3,1.5-0.6c0.9-0.6,1.1-1.4,1.5-2.9
			c0.3-1.9,1.2-3.7,2.5-5.1c1-1.2,1.7-2,1.6-3.1c-0.2-2.5-2-3.4-5-4.8c-1.6-0.6-3.1-1.5-4.4-2.6l-0.8-0.8c-0.9-1-2-1.8-3.1-2.5
			c-0.5-0.2-1-0.5-1.5-0.6c-1.3-0.4-2.4-1.1-3.4-1.9c-0.2-0.2-0.5-0.5-0.7-0.8c-0.2-0.3-0.5-0.6-0.8-0.8c-1.8-1.2-6.6-1.7-8.8-1.1
			c-0.7,0.2-1.4,0.4-2.1,0.7c-1.4,0.6-2.9,1-4.4,1h0c-1.6,0-3.1-0.9-4-2.2c-0.5-0.8-0.6-1.8-0.4-2.7c0-0.2,0-0.4,0-0.5l0,0
			c-0.5-0.1-0.9-0.1-1.4,0h-0.4c-1.4,0.1-2.7-0.3-3.8-1.2c-0.6-0.6-0.9-1.4-0.9-2.3c0-0.2,0-0.5,0-0.8c-0.4,0.2-1,0.5-1.3,0.7
			c-1.3,0.7-2.6,1.5-3.9,1c-2.2-0.8-2.3-4-2.2-7.1c0-0.2,0-0.4,0-0.6c-0.1-1,0.2-2,0.9-2.8c0.4-0.4,0.8-0.6,1.3-0.8
			c1.5-0.5,3.2-0.6,4.7-0.2c0.5,0.2,1.2,0.1,1.6-0.3c0.1-0.1,0.2-0.1,0.3-0.2c0.6-0.6,1.4-1,2.3-1c1.3-0.2,2.7,0.1,3.8,0.9
			c1.5,1.1,2.1,3.6,2.6,5.7v0.1c0.2-0.9-0.1-2.3-0.6-4.3c-0.2-0.7-0.4-1.4-0.5-2c-0.1-0.6-0.1-1.2,0.2-1.7c0.6-0.9,1.5-1.5,2.5-1.7
			c0.3-0.1,0.6-0.3,0.9-0.4c0.5-0.4,0.9-0.9,1.3-1.4c0.6-0.9,1.4-1.7,2.3-2.3c0.5-0.3,0.9-0.5,1.3-0.7c1.2-0.4,2.2-1.4,2.8-2.6
			c0.3-0.5,0.6-1,0.9-1.4c1.1-1.5,3.2-2.6,5.1-1.7c0.5,0.3,1,0.7,1.5,1.1c0.2,0.2,0.4,0.4,0.7,0.5l0.2-0.1c0.1-0.1,0.2-0.4,0.1-0.5
			c-0.1-0.1-0.2-0.3-0.3-0.4c-0.7-0.6-1.2-1.5-1.2-2.4c0.1-0.9,0.7-1.8,1.5-2.2c1.4-0.7,2.9-0.9,4.5-0.7c0.9,0.2,1.9,0,2.7-0.4
			c0.1-0.1,0.3-0.2,0.4-0.3c-0.3-0.3-0.6-0.6-0.9-0.9c-1-0.7-1.8-1.7-2-2.9c-0.2-2.6-2.4-4.1-4.3-4.5c-2.1-0.7-4.3,0.1-5.6,1.8
			c-0.1,0.2-0.2,0.3-0.3,0.5c-0.5,1.2-1.5,2.1-2.7,2.5c-0.1,0-0.2,0.1-0.4,0.1c-0.3,0.3-0.5,0.7-0.7,1.1l-0.1,0.2
			c-0.3,0.9-0.7,1.7-1.4,2.4c-0.6,0.6-1.5,0.9-2.4,0.9c-0.7,0-1.4-0.3-1.9-0.8c-1.3-1.4-0.7-3-0.3-4.1c0.2-0.4,0.3-0.8,0.3-1.2
			c-0.1-0.1-0.3-0.2-0.5-0.3c-1.3-0.6-2.7-1.1-4.1-1.5c-0.9-0.2-1.7-0.6-2.3-1.1c-0.6-0.6-1-1.4-1.2-2.2c-0.4-2.6,0.7-5.2,2.8-6.7
			c1.8-1.3,3.9-2.1,6.1-2.5l0.5-0.1c1.7-0.3,3.3-0.9,4.8-1.6c0.9-0.6,1.7-1.4,2.4-2.3c0.8-1.2,1.9-2.2,3.1-3l1.5,2.6
			c-0.9,0.6-1.7,1.4-2.3,2.2c-0.9,1.2-1.9,2.2-3.2,3c-1.8,0.9-3.6,1.6-5.6,2l-0.5,0.1c-1.8,0.3-3.4,1-4.9,2
			c-1.2,0.8-1.9,2.2-1.7,3.7c0,0.2,0.1,0.5,0.3,0.6c0.3,0.2,0.7,0.4,1.1,0.4c1.6,0.5,3.1,1,4.6,1.7c0.7,0.3,1.2,0.7,1.7,1.3
			c1,1.4,0.4,2.9,0.1,3.9c-0.1,0.2-0.2,0.4-0.2,0.7c0.2-0.4,0.4-0.8,0.5-1.2l0.1-0.2c0.3-1.1,1-2,2-2.7c0.3-0.1,0.5-0.3,0.8-0.4
			c0.1,0,0.2-0.1,0.4-0.1c0.3-0.3,0.6-0.6,0.8-1c0.1-0.2,0.2-0.4,0.4-0.6c2-2.9,5.6-4.1,8.9-3.1c3.5,0.8,6.1,3.7,6.5,7.2
			c0.3,0.3,0.6,0.6,1,0.9c0.9,0.8,2.1,1.8,2,3.3c-0.1,1.1-0.7,2-1.7,2.6c-1.4,0.8-3,1.2-4.6,0.9c-0.9-0.1-1.8-0.1-2.6,0.2l0,0
			c0.2,0.2,0.5,0.5,0.7,0.8c1,1.5,0.7,3.4-0.6,4.6c-2.2,1.8-4,0.2-4.8-0.5c-0.2-0.2-0.5-0.4-0.8-0.6c-0.6,0-1.1,0.3-1.4,0.8
			c-0.3,0.4-0.5,0.7-0.7,1.1c-0.8,1.7-2.3,3-4,3.7c-0.4,0.2-0.7,0.4-1.1,0.6c-0.6,0.5-1.2,1-1.6,1.6c-0.5,0.7-1.1,1.3-1.8,1.9
			c-0.5,0.4-1.1,0.7-1.7,0.9c-0.2,0.1-0.6,0.2-0.8,0.4c0.1,0.4,0.2,0.9,0.4,1.5c0.8,2.8,2,7.4-2,8.8c-0.5,0.2-1.1,0.2-1.6,0
			c-0.5-0.3-0.9-0.7-1.1-1.3c-0.2-0.5-0.3-1.1-0.5-1.9c-0.3-1.1-0.8-3.5-1.5-4c-0.5-0.3-1.2-0.4-1.8-0.3c-0.2,0-0.4,0-0.5,0.2
			c-1.3,1.1-3,1.6-4.6,1.2c-1-0.3-2-0.2-2.9,0.1c-0.1,0-0.2,0.1-0.2,0.1c0,0.2,0,0.4,0,0.7c0,0.2,0,0.4,0,0.6
			c-0.1,1.4,0,2.8,0.3,4.1c0.4-0.2,0.9-0.4,1.3-0.7c1.5-0.8,3.1-1.8,4.5-0.9s1.3,2.5,1.3,3.7c0.4,0.3,1,0.4,1.5,0.3h0.4
			c0.9-0.1,1.9,0,2.8,0.3c1.4,0.6,2.2,2.2,1.8,3.6c0,0.2,0,0.5,0,0.8c0.3,0.5,0.9,0.8,1.5,0.8l0,0c1.2,0,2.3-0.3,3.3-0.8
			c0.8-0.4,1.7-0.6,2.5-0.9c3-0.7,8.6-0.2,11.2,1.6c0.5,0.4,1,0.8,1.4,1.4c0.2,0.2,0.3,0.4,0.5,0.6c0.7,0.6,1.5,1,2.4,1.3
			c0.6,0.2,1.2,0.5,1.8,0.8c1.4,0.8,2.7,1.8,3.8,3l0.8,0.8c1.1,0.9,2.3,1.6,3.6,2.1c2.8,1.3,6.3,2.9,6.7,7.3c0.2,2.3-1.2,4-2.3,5.3
			c-0.5,0.6-1,1.2-1.3,1.9c-0.3,0.6-0.4,1.3-0.6,2c-0.3,1.6-0.8,3.6-2.8,4.9c-0.7,0.4-1.5,0.7-2.3,0.9c-0.4,0.1-0.8,0.2-1.1,0.4
			c-1.8,0.8-2.9,2.6-4.1,4.6c-0.9,1.8-2.2,3.4-3.7,4.8c-0.6,0.5-1.3,0.9-1.9,1.3c-0.7,0.4-1.3,0.8-1.9,1.3c-1.9,1.8-2.6,5.6-2.4,8.3
			L967.2,145.3z"/>
		<path class="st1" d="M958.8,149.4c-0.1-0.2-0.1-0.3-0.2-0.5c-2-4.5-1-11.3-0.3-16.2l0.2-1.1c0.1-0.7,0.2-1.3,0.3-2
			c0.5-3.2,1.1-6.4-0.5-8.8c-0.6-0.9-1.3-1.7-2.1-2.5l-0.7-0.7c-2.5-2.7-6-6.5-5.8-10.8c0-2,1.5-3.8,2.4-4.9c0.5-0.5,0.9-1.2,1-2
			c-0.7-0.4-1.4-0.6-2.2-0.6c-1.6-0.2-3.7-0.5-4.8-2c-0.8-1.3-2.2-2.1-3.8-2c-1,0-1.9-0.5-2.5-1.3c-0.1-0.1-0.3-0.3-0.4-0.4
			c-1.9,0-3.9-0.3-5.7-0.9c-2.1-0.7-3.9-2.1-5.3-3.9c-0.4-0.6-0.7-1.3-0.9-2c-0.3,0.2-0.7,0.4-1.1,0.5c-1.9,0.4-3.4-1.4-3.7-1.8
			c-1.5-1.9-2.8-3.9-3.7-6.1c-0.5-1-1.1-1.9-1.8-2.7c-1.4-1.6-2.5-3.4-3.3-5.4c-1.4-3.5,0.1-7.7,0.9-10c0.1-0.3,0.2-0.6,0.3-0.8
			c0.3-1.6,0-3.2-0.8-4.6c-0.2-0.3-0.4-0.5-0.6-0.8c-1-1.2-2.4-2.8-3.1-7.3c-0.5-2.9-4.1-5.1-6.2-6l1.2-2.8c1.2,0.5,7.1,3.3,8,8.3
			c0.6,3.7,1.6,4.9,2.5,5.9c0.3,0.3,0.6,0.7,0.8,1c1.3,2.1,1.8,4.7,1.2,7.1c-0.1,0.2-0.2,0.5-0.3,0.9c-0.7,1.9-1.9,5.5-0.9,8
			c0.8,1.7,1.7,3.2,2.9,4.6c0.9,1.1,1.7,2.3,2.3,3.6c0.8,1.9,1.9,3.6,3.2,5.2c0.2,0.2,0.4,0.5,0.7,0.6c0.2-0.4,0.3-0.8,0.4-1.2
			c0.2-1.2,0.8-1.8,1.7-1.8c1.4,0,1.7,1.2,2.1,2.9c0.2,1,0.5,1.9,0.9,2.8c0.9,1.3,2.2,2.3,3.7,2.8c1.5,0.5,3,0.8,4.6,0.8
			c1.1-0.1,2.2,0.4,2.9,1.3c0.1,0.1,0.2,0.3,0.4,0.4c2.5,0,4.8,1.2,6.2,3.3c0.4,0.5,1.7,0.6,2.7,0.8c1.9,0.2,4.7,0.6,4.8,3.4
			c0,1.5-0.6,2.9-1.7,4c-0.6,0.7-1.7,2.1-1.7,3.1c-0.1,3.1,2.9,6.3,5,8.7l0.7,0.7c0.9,0.9,1.7,1.9,2.4,2.9c2.2,3.3,1.5,7.4,0.9,10.9
			c-0.1,0.7-0.2,1.3-0.3,2l-0.2,1.1c-0.6,4.3-1.5,10.9,0.1,14.6c0.1,0.2,0.2,0.4,0.2,0.6L958.8,149.4z"/>
		<path class="st1" d="M902.1,131.2l-2.8-1c0.7-1.8-0.1-4.4-0.7-6.7c-0.5-1.5-0.8-3.1-0.9-4.8c0-0.4,0-0.7-0.1-1.1
			c-0.2-0.3-0.4-0.6-0.6-0.8l-0.3-0.4c-1.3-1.8-2.2-3.9-2.6-6.1c-0.3-1.5-0.9-3-1.6-4.4c-0.6-0.8-1.2-1.6-1.9-2.4
			c-0.4-0.4-0.7-0.8-1.1-1.2c-0.6-0.6-1.3-1-2.2-1.1c-2.3-0.4-4.3-2-5.1-4.2l2.7-1.2c0.5,1.4,1.7,2.4,3.1,2.5c1.5,0.2,2.8,1,3.7,2.1
			c0.3,0.4,0.7,0.8,1,1.1c0.8,0.9,1.6,1.8,2.2,2.8c0.9,1.6,1.5,3.4,1.9,5.2c0.3,1.8,1,3.5,2,5l0.3,0.3c1,1,1.5,2.5,1.3,3.9
			c0.1,1.3,0.3,2.6,0.8,3.9C902.2,125.4,903.1,128.5,902.1,131.2z"/>
		<path class="st1" d="M-44.3,151.9c-35.4,0-64.1-28.7-64.2-64.2c0-35.4,28.7-64.1,64.2-64.2c35.4,0,64.1,28.7,64.2,64.2
			C19.8,123.2-8.9,151.9-44.3,151.9z M-44.3,26.6c-33.8,0-61.1,27.4-61.2,61.2c0,33.8,27.4,61.1,61.2,61.2
			c33.8,0,61.1-27.4,61.2-61.2C16.8,54-10.6,26.6-44.3,26.6L-44.3,26.6z"/>
		<path class="st1" d="M-22.8,145.3c-0.3-3.4,0.6-8.1,3.3-10.8c0.7-0.6,1.5-1.2,2.3-1.7c0.6-0.3,1.1-0.7,1.6-1.1
			c1.2-1.2,2.2-2.5,3-4c1.4-2.3,2.8-4.7,5.5-5.9c0.5-0.2,1-0.3,1.4-0.5c0.5-0.1,1.1-0.3,1.5-0.6c0.9-0.6,1.1-1.4,1.5-2.9
			c0.2-0.9,0.4-1.8,0.8-2.6c0.5-0.9,1.1-1.8,1.8-2.5c1-1.2,1.7-2,1.6-3.1c-0.2-2.5-2-3.4-4.9-4.8c-1.6-0.6-3.1-1.5-4.4-2.6l-0.8-0.8
			c-0.9-1-2-1.8-3.1-2.5c-0.5-0.2-1-0.5-1.5-0.6c-1.3-0.4-2.4-1.1-3.4-1.9c-0.2-0.2-0.5-0.5-0.7-0.8c-0.2-0.3-0.5-0.6-0.8-0.8
			c-1.8-1.2-6.6-1.7-8.9-1.1c-0.7,0.2-1.4,0.4-2.1,0.7c-1.4,0.6-2.9,1-4.4,1h0c-1.6,0-3.1-0.9-4-2.2c-0.5-0.8-0.6-1.8-0.4-2.7
			c0-0.2,0-0.4,0-0.5l0,0c-0.5-0.1-0.9-0.1-1.4,0h-0.4c-1.4,0.1-2.7-0.3-3.8-1.2c-0.6-0.6-0.9-1.4-0.9-2.3c0-0.2,0-0.5,0-0.8
			c-0.4,0.2-1,0.5-1.3,0.7c-1.3,0.7-2.6,1.5-3.9,1c-2.2-0.8-2.3-4-2.2-7.1c0-0.2,0-0.4,0-0.6c-0.1-1,0.2-2,0.9-2.8
			c0.4-0.4,0.8-0.6,1.3-0.8c1.5-0.5,3.2-0.6,4.7-0.2c0.5,0.2,1.2,0.1,1.6-0.3c0.1-0.1,0.2-0.1,0.3-0.2c0.6-0.6,1.4-1,2.3-1
			c1.3-0.2,2.7,0.1,3.8,0.9c1.5,1.1,2.1,3.6,2.6,5.7v0.1c0.2-0.9-0.1-2.3-0.6-4.3c-0.2-0.7-0.4-1.4-0.5-2c-0.1-0.6-0.1-1.2,0.2-1.7
			c0.6-0.9,1.5-1.5,2.5-1.7c0.3-0.1,0.6-0.3,0.9-0.4c0.5-0.4,0.9-0.9,1.3-1.4c0.6-0.9,1.4-1.7,2.3-2.3c0.5-0.3,0.9-0.5,1.3-0.7
			c0.6-0.3,1.2-0.6,1.7-1c0.4-0.5,0.8-1,1.1-1.5c0.3-0.5,0.6-1,0.9-1.4c1.1-1.5,3.2-2.6,5.1-1.7c0.5,0.3,1,0.7,1.5,1.1
			c0.2,0.2,0.4,0.4,0.7,0.5l0.1-0.1c0.1-0.1,0.2-0.4,0.1-0.5c-0.1-0.1-0.2-0.3-0.3-0.4c-0.7-0.6-1.2-1.5-1.1-2.4
			c0.1-0.9,0.7-1.8,1.5-2.2c1.4-0.7,2.9-0.9,4.5-0.7c0.9,0.2,1.9,0,2.7-0.4c0.1-0.1,0.3-0.2,0.4-0.3c-0.3-0.3-0.6-0.6-0.9-0.9
			c-1-0.7-1.8-1.7-2-2.9c-0.2-2.6-2.4-4.1-4.3-4.5c-2.1-0.7-4.3,0.1-5.6,1.8c-0.1,0.2-0.2,0.3-0.3,0.5c-0.4,0.9-1.1,1.6-1.9,2.1
			c-0.3,0.1-0.5,0.3-0.8,0.4c-0.1,0-0.2,0.1-0.4,0.1c-0.3,0.3-0.5,0.7-0.7,1.1l-0.1,0.2c-0.3,0.9-0.7,1.7-1.4,2.4
			c-0.6,0.6-1.5,0.9-2.4,0.9c-0.7,0-1.4-0.3-1.9-0.8c-1.3-1.4-0.7-3-0.3-4.1c0.2-0.4,0.3-0.8,0.3-1.2c-0.1-0.1-0.3-0.2-0.5-0.3
			c-1.3-0.6-2.7-1.1-4.1-1.5c-0.9-0.2-1.7-0.6-2.3-1.1c-0.6-0.6-1-1.4-1.2-2.2c-0.4-2.6,0.7-5.2,2.8-6.7c1.8-1.3,3.9-2.1,6.1-2.5
			l0.5-0.1c1.7-0.3,3.3-0.9,4.8-1.6c0.9-0.6,1.7-1.4,2.4-2.3c0.8-1.2,1.9-2.2,3.1-3l1.5,2.6c-0.9,0.6-1.7,1.4-2.3,2.2
			c-0.9,1.2-1.9,2.2-3.2,3c-1.8,0.9-3.6,1.6-5.6,2l-0.5,0.1c-1.8,0.3-3.4,1-4.9,2c-1.2,0.8-1.9,2.2-1.7,3.7c0,0.2,0.1,0.5,0.3,0.6
			c0.3,0.2,0.7,0.4,1.1,0.4c1.6,0.5,3.1,1,4.6,1.7c0.7,0.3,1.2,0.7,1.7,1.3c1,1.4,0.4,2.9,0.1,3.9c-0.1,0.2-0.2,0.4-0.2,0.7
			c0.2-0.4,0.4-0.8,0.5-1.2l0.1-0.2c0.3-1.1,1-2,2-2.7c0.3-0.1,0.5-0.3,0.8-0.4c0.1,0,0.2-0.1,0.4-0.1c0.3-0.3,0.6-0.6,0.8-1
			c0.1-0.2,0.2-0.4,0.4-0.6c2-2.9,5.6-4.1,8.9-3.1c3.5,0.8,6.1,3.7,6.6,7.2c0.3,0.3,0.6,0.6,1,0.9c0.9,0.8,2.1,1.8,2,3.3
			c-0.1,1.1-0.7,2-1.7,2.6c-1.4,0.8-3,1.2-4.6,0.9c-0.9-0.1-1.8-0.1-2.6,0.2l0,0c0.2,0.2,0.5,0.5,0.7,0.8c1,1.5,0.7,3.4-0.6,4.6
			c-2.2,1.8-4,0.2-4.8-0.5c-0.2-0.2-0.5-0.4-0.8-0.6c-0.6,0-1.1,0.3-1.4,0.8c-0.3,0.4-0.5,0.7-0.7,1.1c-0.4,0.8-0.9,1.5-1.6,2.2
			c-0.7,0.6-1.5,1.2-2.4,1.6c-0.4,0.2-0.7,0.4-1.1,0.6c-0.6,0.5-1.2,1-1.6,1.6c-0.5,0.7-1.1,1.3-1.8,1.9c-0.5,0.4-1.1,0.7-1.7,0.9
			c-0.2,0.1-0.6,0.2-0.9,0.4c0.1,0.4,0.2,0.9,0.4,1.5c0.8,2.8,2,7.4-2,8.8c-0.5,0.2-1.1,0.2-1.6,0c-0.5-0.3-0.9-0.7-1.1-1.3
			c-0.2-0.5-0.3-1.1-0.5-1.9c-0.3-1.1-0.8-3.5-1.5-4c-0.5-0.3-1.2-0.4-1.8-0.3c-0.2,0-0.4,0-0.5,0.2c-0.2,0.2-0.5,0.4-0.8,0.6
			c-1.1,0.8-2.6,1.1-3.9,0.6c-1-0.3-2-0.2-2.9,0.1c-0.1,0-0.2,0.1-0.2,0.1c0,0.2,0,0.4,0,0.7c0,0.2,0,0.4,0,0.6
			c-0.1,1.4,0,2.8,0.3,4.1c0.4-0.2,0.9-0.4,1.3-0.7c1.5-0.8,3.1-1.8,4.5-0.9s1.3,2.5,1.3,3.7c0.4,0.3,1,0.4,1.5,0.3h0.4
			c0.9-0.1,1.9,0,2.8,0.3c1.4,0.6,2.2,2.2,1.8,3.6c0,0.2,0,0.5,0,0.8c0.3,0.5,0.9,0.8,1.5,0.8l0,0c1.2,0,2.3-0.3,3.4-0.8
			c0.8-0.4,1.7-0.6,2.5-0.9c3-0.7,8.6-0.2,11.2,1.6c0.6,0.4,1,0.9,1.4,1.4c0.2,0.2,0.3,0.4,0.5,0.6c0.7,0.6,1.5,1,2.4,1.3
			c0.6,0.2,1.2,0.5,1.8,0.8c1.4,0.8,2.7,1.8,3.8,3l0.8,0.8c1.1,0.9,2.3,1.6,3.6,2.1c2.8,1.3,6.4,2.9,6.7,7.3c0.2,2.3-1.2,4-2.3,5.3
			c-0.5,0.6-1,1.2-1.4,1.9c-0.3,0.6-0.4,1.3-0.6,2c-0.3,1.6-0.8,3.6-2.8,4.9c-0.7,0.4-1.5,0.7-2.3,0.9c-0.4,0.1-0.8,0.2-1.1,0.4
			c-1.8,0.8-2.9,2.6-4.1,4.6c-0.9,1.8-2.2,3.4-3.7,4.8c-0.6,0.5-1.3,0.9-1.9,1.3c-0.7,0.4-1.3,0.8-1.9,1.3c-1.9,1.8-2.6,5.6-2.4,8.3
			L-22.8,145.3z"/>
		<path class="st1" d="M-31.2,149.4c-0.1-0.2-0.1-0.3-0.2-0.5c-2-4.5-1-11.3-0.3-16.2l0.1-1.1c0.1-0.7,0.2-1.3,0.3-2
			c0.5-3.2,1.1-6.4-0.5-8.8c-0.6-0.9-1.3-1.7-2.1-2.5l-0.7-0.7c-2.5-2.7-6-6.5-5.8-10.8c0-2,1.5-3.8,2.4-4.9c0.5-0.5,0.9-1.2,1-2
			c-0.7-0.4-1.4-0.6-2.2-0.6c-1.6-0.2-3.7-0.5-4.8-2c-0.8-1.3-2.2-2.1-3.8-2c-1,0-1.9-0.5-2.5-1.3c-0.1-0.1-0.3-0.3-0.4-0.4
			c-1.9,0.1-3.9-0.3-5.7-0.9c-2.1-0.7-3.9-2.1-5.3-3.9c-0.4-0.6-0.7-1.3-0.9-2c-0.3,0.2-0.7,0.4-1.1,0.5c-1.9,0.4-3.4-1.4-3.7-1.8
			c-1.5-1.9-2.8-3.9-3.7-6.1c-0.5-1-1.1-1.9-1.8-2.7c-1.4-1.6-2.5-3.4-3.3-5.4c-1.4-3.5,0.1-7.7,0.9-10c0.1-0.3,0.2-0.6,0.3-0.8
			c0.3-1.6,0-3.2-0.8-4.6c-0.2-0.3-0.4-0.5-0.6-0.8c-1-1.2-2.4-2.8-3.1-7.3c-0.5-2.9-4.1-5.1-6.2-6l1.2-2.8c1.2,0.5,7.1,3.3,8,8.3
			c0.6,3.7,1.6,4.9,2.4,5.9c0.3,0.3,0.6,0.7,0.8,1c1.3,2.1,1.8,4.7,1.2,7.1c-0.1,0.2-0.2,0.5-0.3,0.9c-0.7,1.9-1.9,5.5-0.9,8
			c0.8,1.7,1.7,3.2,2.9,4.6c0.9,1.1,1.7,2.3,2.3,3.6c0.8,1.9,1.9,3.6,3.2,5.2c0.2,0.2,0.4,0.5,0.7,0.6c0.2-0.4,0.3-0.8,0.4-1.2
			c0.2-1.2,0.8-1.8,1.7-1.8c1.4,0,1.7,1.2,2.1,2.9c0.2,1,0.5,1.9,0.9,2.8c0.9,1.3,2.2,2.3,3.7,2.8c1.5,0.5,3,0.8,4.6,0.8
			c1.1-0.1,2.2,0.4,2.9,1.3c0.1,0.1,0.2,0.3,0.4,0.4c2.5,0,4.8,1.2,6.2,3.3c0.4,0.5,1.7,0.6,2.7,0.8c1.9,0.2,4.7,0.6,4.8,3.4
			c0,1.5-0.6,2.9-1.7,4c-0.6,0.7-1.7,2.1-1.7,3.1c-0.1,3.1,2.9,6.3,5,8.7l0.6,0.7c0.9,0.9,1.7,1.9,2.4,2.9c2.2,3.3,1.5,7.4,0.9,10.9
			c-0.1,0.7-0.2,1.3-0.3,2l-0.1,1.1c-0.6,4.3-1.5,10.9,0.1,14.6c0.1,0.2,0.2,0.4,0.2,0.6L-31.2,149.4z"/>
		<path class="st1" d="M-87.9,131.2l-2.8-1c0.7-1.8-0.1-4.4-0.7-6.7c-0.5-1.5-0.8-3.1-0.9-4.8c0-0.4,0-0.7-0.1-1.1
			c-0.2-0.3-0.4-0.6-0.6-0.8l-0.3-0.4c-1.3-1.8-2.2-3.9-2.6-6.1c-0.3-1.5-0.9-3-1.6-4.4c-0.6-0.8-1.2-1.6-1.9-2.4
			c-0.4-0.4-0.7-0.8-1.1-1.2c-0.6-0.6-1.3-1-2.2-1.1c-2.3-0.4-4.3-2-5.1-4.2l2.7-1.2c0.5,1.4,1.7,2.4,3.1,2.5c1.5,0.2,2.8,1,3.7,2.1
			c0.3,0.4,0.7,0.8,1,1.1c0.8,0.9,1.6,1.8,2.2,2.8c0.9,1.6,1.5,3.4,1.9,5.2c0.3,1.8,1,3.5,2,5l0.3,0.3c0.5,0.5,0.9,1.1,1.1,1.8
			c0.2,0.7,0.3,1.4,0.2,2.1c0.1,1.3,0.3,2.6,0.8,3.9C-87.8,125.4-86.9,128.5-87.9,131.2z"/>
		<path class="st1" d="M829.2-4.1c-5.5,0-9-3.2-12.9-6.6c-4.1-3.6-8.4-7.4-15.1-7.4s-11,3.8-15.1,7.4c-3.8,3.4-7.4,6.6-12.9,6.6l0,0
			c-5.5,0-9-3.2-12.9-6.6c-4.1-3.6-8.4-7.4-15.1-7.4s-11,3.8-15.1,7.4c-3.8,3.4-7.4,6.6-12.9,6.6l0,0c-5.5,0-9-3.2-12.9-6.6
			c-4.1-3.6-8.4-7.4-15.1-7.4s-11,3.8-15.1,7.4c-3.8,3.4-7.4,6.6-12.9,6.6v3c6.6,0,10.8-3.7,14.9-7.3c3.8-3.4,7.5-6.7,13.1-6.7
			s9.3,3.2,13.2,6.7c4.1,3.6,8.3,7.3,14.8,7.3l0,0c6.6,0,10.8-3.7,14.9-7.3c3.8-3.4,7.5-6.7,13.1-6.7s9.3,3.2,13.2,6.7
			c4.1,3.6,8.3,7.3,14.8,7.3l0,0c6.6,0,10.8-3.7,14.9-7.3c3.8-3.4,7.5-6.7,13.1-6.7s9.3,3.2,13.2,6.7c4.1,3.6,8.3,7.3,14.8,7.3l0,0
			V-4.1L829.2-4.1z"/>
		<path class="st1" d="M829.2,15.9c-5.5,0-9-3.2-12.9-6.6c-4.1-3.6-8.4-7.4-15.1-7.4s-11,3.8-15.1,7.4c-3.8,3.4-7.4,6.6-12.9,6.6
			l0,0c-5.5,0-9-3.2-12.9-6.6c-4.1-3.6-8.4-7.4-15.1-7.4s-11,3.8-15.1,7.4c-3.8,3.4-7.4,6.6-12.9,6.6l0,0c-5.5,0-9-3.2-12.9-6.6
			c-4.1-3.6-8.4-7.4-15.1-7.4s-11,3.8-15.1,7.4c-3.8,3.4-7.4,6.6-12.9,6.6v3c6.6,0,10.8-3.7,14.9-7.3c3.8-3.4,7.5-6.7,13.1-6.7
			s9.3,3.2,13.2,6.7c4.1,3.6,8.3,7.3,14.8,7.3l0,0c6.6,0,10.8-3.7,14.9-7.3c3.8-3.4,7.5-6.7,13.1-6.7s9.3,3.2,13.2,6.7
			c4.1,3.6,8.3,7.3,14.8,7.3l0,0c6.6,0,10.8-3.7,14.9-7.3c3.8-3.4,7.5-6.7,13.1-6.7s9.3,3.2,13.2,6.7c4.1,3.6,8.3,7.3,14.8,7.3l0,0
			V15.9L829.2,15.9z"/>
		<path class="st1" d="M829.2,35.9c-5.5,0-9-3.2-12.9-6.6c-4.1-3.6-8.4-7.4-15.1-7.4s-11,3.8-15.1,7.4c-3.8,3.4-7.4,6.6-12.9,6.6
			l0,0c-5.5,0-9-3.2-12.9-6.6c-4.1-3.6-8.4-7.4-15.1-7.4s-11,3.8-15.1,7.4c-3.8,3.4-7.4,6.6-12.9,6.6l0,0c-5.5,0-9-3.2-12.9-6.6
			c-4.1-3.6-8.4-7.4-15.1-7.4s-11,3.8-15.1,7.4c-3.8,3.4-7.4,6.6-12.9,6.6v3c6.6,0,10.8-3.7,14.9-7.3c3.8-3.4,7.5-6.7,13.1-6.7
			s9.3,3.2,13.2,6.7c4.1,3.6,8.3,7.3,14.8,7.3l0,0c6.6,0,10.8-3.7,14.9-7.3c3.8-3.4,7.5-6.7,13.1-6.7s9.3,3.2,13.2,6.7
			c4.1,3.6,8.3,7.3,14.8,7.3l0,0c6.6,0,10.8-3.7,14.9-7.3c3.8-3.4,7.5-6.7,13.1-6.7s9.3,3.2,13.2,6.7c4.1,3.6,8.3,7.3,14.8,7.3l0,0
			V35.9L829.2,35.9z"/>
		<path class="st1" d="M829.2,505.9c-5.5,0-9-3.2-12.9-6.6c-4.1-3.6-8.4-7.4-15.1-7.4s-11,3.8-15.1,7.4c-3.8,3.4-7.4,6.6-12.9,6.6
			l0,0c-5.5,0-9-3.2-12.9-6.6c-4.1-3.6-8.4-7.4-15.1-7.4s-11,3.8-15.1,7.4c-3.8,3.4-7.4,6.6-12.9,6.6l0,0c-5.5,0-9-3.2-12.9-6.6
			c-4.1-3.6-8.4-7.4-15.1-7.4s-11,3.8-15.1,7.4c-3.8,3.4-7.4,6.6-12.9,6.6v3c6.6,0,10.8-3.7,14.9-7.3c3.8-3.4,7.5-6.7,13.1-6.7
			s9.3,3.2,13.2,6.7c4.1,3.6,8.3,7.3,14.8,7.3l0,0c6.6,0,10.8-3.7,14.9-7.3c3.8-3.4,7.5-6.7,13.1-6.7s9.3,3.2,13.2,6.7
			c4.1,3.6,8.3,7.3,14.8,7.3l0,0c6.6,0,10.8-3.7,14.9-7.3c3.8-3.4,7.5-6.7,13.1-6.7s9.3,3.2,13.2,6.7c4.1,3.6,8.3,7.3,14.8,7.3l0,0
			V505.9L829.2,505.9z"/>
		<path class="st1" d="M829.2,525.9c-5.5,0-9-3.2-12.9-6.6c-4.1-3.6-8.4-7.4-15.1-7.4s-11,3.8-15.1,7.4c-3.8,3.4-7.4,6.6-12.9,6.6
			l0,0c-5.5,0-9-3.2-12.9-6.6c-4.1-3.6-8.4-7.4-15.1-7.4s-11,3.8-15.1,7.4c-3.8,3.4-7.4,6.6-12.9,6.6l0,0c-5.5,0-9-3.2-12.9-6.6
			c-4.1-3.6-8.4-7.4-15.1-7.4s-11,3.8-15.1,7.4c-3.8,3.4-7.4,6.6-12.9,6.6v3c6.6,0,10.8-3.7,14.9-7.3c3.8-3.4,7.5-6.7,13.1-6.7
			s9.3,3.2,13.2,6.7c4.1,3.6,8.3,7.3,14.8,7.3l0,0c6.6,0,10.8-3.7,14.9-7.3c3.8-3.4,7.5-6.7,13.1-6.7s9.3,3.2,13.2,6.7
			c4.1,3.6,8.3,7.3,14.8,7.3l0,0c6.6,0,10.8-3.7,14.9-7.3c3.8-3.4,7.5-6.7,13.1-6.7s9.3,3.2,13.2,6.7c4.1,3.6,8.3,7.3,14.8,7.3l0,0
			V525.9L829.2,525.9z"/>
		<path class="st1" d="M829.2,545.9c-5.5,0-9-3.2-12.9-6.6c-4.1-3.6-8.4-7.4-15.1-7.4s-11,3.8-15.1,7.4c-3.8,3.4-7.4,6.6-12.9,6.6
			l0,0c-5.5,0-9-3.2-12.9-6.6c-4.1-3.6-8.4-7.4-15.1-7.4s-11,3.8-15.1,7.4c-3.8,3.4-7.4,6.6-12.9,6.6l0,0c-5.5,0-9-3.2-12.9-6.6
			c-4.1-3.6-8.4-7.4-15.1-7.4s-11,3.8-15.1,7.4c-3.8,3.4-7.4,6.6-12.9,6.6v3c6.6,0,10.8-3.7,14.9-7.3c3.8-3.4,7.5-6.7,13.1-6.7
			s9.3,3.2,13.2,6.7c4.1,3.6,8.3,7.3,14.8,7.3l0,0c6.6,0,10.8-3.7,14.9-7.3c3.8-3.4,7.5-6.7,13.1-6.7s9.3,3.2,13.2,6.7
			c4.1,3.6,8.3,7.3,14.8,7.3l0,0c6.6,0,10.8-3.7,14.9-7.3c3.8-3.4,7.5-6.7,13.1-6.7s9.3,3.2,13.2,6.7c4.1,3.6,8.3,7.3,14.8,7.3l0,0
			V545.9L829.2,545.9z"/>
	</g>
</g>
</svg>
