<svg id="Layer_1" data-name="Layer 1" xmlns="http://www.w3.org/2000/svg" xmlns:xlink="http://www.w3.org/1999/xlink" viewBox="0 0 85.12 55"><defs><clipPath id="clip-path" transform="translate(-4621.88 -7435.13)"><rect x="4636.49" y="7472.49" width="56" height="20" style="fill:none"/></clipPath><clipPath id="clip-path-2" transform="translate(-4621.88 -7435.13)"><rect x="4636.49" y="7452.49" width="56" height="20" style="fill:none"/></clipPath><clipPath id="clip-path-3" transform="translate(-4621.88 -7435.13)"><rect x="4636.49" y="7432.49" width="56" height="20" style="fill:none"/></clipPath></defs><title>wavy2</title><rect x="14.61" y="7.36" width="56" height="40" style="fill:none"/><g style="clip-path:url(#clip-path)"><path d="M4706.53,7482.54s-1.94,7.09-14,7.09-15.67-14-28-14-15.83,14-28,14-14.12-7.18-14.12-7.18" transform="translate(-4621.88 -7435.13)" style="fill:none;stroke:#009eba;stroke-miterlimit:10"/></g><g style="clip-path:url(#clip-path-2)"><path d="M4706.53,7462.54s-1.94,7.09-14,7.09-15.67-14-28-14-15.83,14-28,14-14.12-7.18-14.12-7.18" transform="translate(-4621.88 -7435.13)" style="fill:none;stroke:#009eba;stroke-miterlimit:10"/></g><g style="clip-path:url(#clip-path-3)"><path d="M4706.53,7442.54s-1.94,7.09-14,7.09-15.67-14-28-14-15.83,14-28,14-14.12-7.18-14.12-7.18" transform="translate(-4621.88 -7435.13)" style="fill:none;stroke:#009eba;stroke-miterlimit:10"/></g></svg>