<svg id="Layer_1" data-name="Layer 1" xmlns="http://www.w3.org/2000/svg" viewBox="0 0 91.86 73.78"><title>calculatorcloud</title><path d="M8916.51,7136.23a17.7,17.7,0,0,0-2.28.17,22.9,22.9,0,0,0-22.86-21.63c-10,0-17.58,7.26-20.72,16.17a23.46,23.46,0,0,0-3.89-1.36c-12-2.26-22.89,9-22.89,20.45a20.64,20.64,0,0,0,20.65,20.65h3.15v7.85a8,8,0,0,0,8,8H8902a8,8,0,0,0,7.94-8v-7.85h6.58A17.22,17.22,0,1,0,8916.51,7136.23Z" transform="translate(-8842.88 -7113.76)" style="fill:#00a9c5;opacity:0.5"/><path d="M8916.51,7136.23a17.7,17.7,0,0,0-2.28.17,22.9,22.9,0,0,0-22.86-21.63c-10,0-17.58,7.26-20.72,16.17a23.46,23.46,0,0,0-3.89-1.36c-12-2.26-22.89,9-22.89,20.45a20.64,20.64,0,0,0,20.65,20.65h3.15v7.85a8,8,0,0,0,8,8H8902a8,8,0,0,0,7.94-8v-7.85h6.58A17.22,17.22,0,1,0,8916.51,7136.23Z" transform="translate(-8842.88 -7113.76)" style="fill:none;stroke:#666;stroke-linecap:round;stroke-linejoin:round;stroke-width:2px"/><path d="M8906.67,7178.51a4.74,4.74,0,0,1-4.69,4.76h-26.35a4.74,4.74,0,0,1-4.69-4.76v-37.6a4.73,4.73,0,0,1,4.69-4.77H8902a4.73,4.73,0,0,1,4.69,4.77v37.6Z" transform="translate(-8842.88 -7113.76)" style="fill:#fff"/><path d="M8906.67,7178.51a4.74,4.74,0,0,1-4.69,4.76h-26.35a4.74,4.74,0,0,1-4.69-4.76v-37.6a4.73,4.73,0,0,1,4.69-4.77H8902a4.73,4.73,0,0,1,4.69,4.77v37.6Z" transform="translate(-8842.88 -7113.76)" style="fill:none;stroke:#666;stroke-linecap:round;stroke-linejoin:round;stroke-width:2px"/><path d="M8877,7145.41a1.85,1.85,0,0,1,1.62-2H8899a1.85,1.85,0,0,1,1.62,2v4.13a1.85,1.85,0,0,1-1.62,2h-20.42a1.85,1.85,0,0,1-1.62-2v-4.13Z" transform="translate(-8842.88 -7113.76)" style="fill:#87878a"/><path d="M8877,7145.41a1.85,1.85,0,0,1,1.62-2H8899a1.85,1.85,0,0,1,1.62,2v4.13a1.85,1.85,0,0,1-1.62,2h-20.42a1.85,1.85,0,0,1-1.62-2v-4.13Z" transform="translate(-8842.88 -7113.76)" style="fill:none;stroke:#666;stroke-linecap:round;stroke-linejoin:round;stroke-width:2px"/><path d="M8900.64,7159.27a1.18,1.18,0,0,1-1.17,1.17h-2.94a1.18,1.18,0,0,1-1.18-1.17v-2.94a1.18,1.18,0,0,1,1.18-1.17h2.94a1.17,1.17,0,0,1,1.17,1.17v2.94Z" transform="translate(-8842.88 -7113.76)" style="fill:#ffb519"/><path d="M8891.71,7159.27a1.18,1.18,0,0,1-1.17,1.17h-2.94a1.18,1.18,0,0,1-1.18-1.17v-2.94a1.18,1.18,0,0,1,1.18-1.17h2.94a1.17,1.17,0,0,1,1.17,1.17v2.94Z" transform="translate(-8842.88 -7113.76)" style="fill:#ffb519"/><rect x="34.61" y="41.4" width="5.29" height="5.28" rx="1.17" ry="1.17" style="fill:#ffb519"/><path d="M8900.64,7168.28a1.18,1.18,0,0,1-1.17,1.17h-2.94a1.18,1.18,0,0,1-1.18-1.17v-2.94a1.18,1.18,0,0,1,1.18-1.17h2.94a1.17,1.17,0,0,1,1.17,1.17v2.94Z" transform="translate(-8842.88 -7113.76)" style="fill:#ffb519"/><path d="M8891.71,7168.28a1.18,1.18,0,0,1-1.17,1.17h-2.94a1.18,1.18,0,0,1-1.18-1.17v-2.94a1.18,1.18,0,0,1,1.18-1.17h2.94a1.17,1.17,0,0,1,1.17,1.17v2.94Z" transform="translate(-8842.88 -7113.76)" style="fill:#ffb519"/><rect x="34.61" y="50.41" width="5.29" height="5.28" rx="1.17" ry="1.17" style="fill:#ffb519"/><path d="M8900.64,7177.17a1.18,1.18,0,0,1-1.17,1.17h-2.94a1.18,1.18,0,0,1-1.18-1.17v-2.94a1.18,1.18,0,0,1,1.18-1.17h2.94a1.17,1.17,0,0,1,1.17,1.17v2.94Z" transform="translate(-8842.88 -7113.76)" style="fill:#ffb519"/><path d="M8891.71,7177.17a1.18,1.18,0,0,1-1.17,1.17h-2.94a1.18,1.18,0,0,1-1.18-1.17v-2.94a1.18,1.18,0,0,1,1.18-1.17h2.94a1.17,1.17,0,0,1,1.17,1.17v2.94Z" transform="translate(-8842.88 -7113.76)" style="fill:#ffb519"/><rect x="34.61" y="59.29" width="5.29" height="5.28" rx="1.17" ry="1.17" style="fill:#ffb519"/><path d="M8900.64,7159.27a1.18,1.18,0,0,1-1.17,1.17h-2.94a1.18,1.18,0,0,1-1.18-1.17v-2.94a1.18,1.18,0,0,1,1.18-1.17h2.94a1.17,1.17,0,0,1,1.17,1.17v2.94Z" transform="translate(-8842.88 -7113.76)" style="fill:none;stroke:#666;stroke-linecap:round;stroke-linejoin:round;stroke-width:2px"/><path d="M8891.71,7159.27a1.18,1.18,0,0,1-1.17,1.17h-2.94a1.18,1.18,0,0,1-1.18-1.17v-2.94a1.18,1.18,0,0,1,1.18-1.17h2.94a1.17,1.17,0,0,1,1.17,1.17v2.94Z" transform="translate(-8842.88 -7113.76)" style="fill:none;stroke:#666;stroke-linecap:round;stroke-linejoin:round;stroke-width:2px"/><rect x="34.61" y="41.4" width="5.29" height="5.28" rx="1.17" ry="1.17" style="fill:none;stroke:#666;stroke-linecap:round;stroke-linejoin:round;stroke-width:2px"/><path d="M8900.64,7168.28a1.18,1.18,0,0,1-1.17,1.17h-2.94a1.18,1.18,0,0,1-1.18-1.17v-2.94a1.18,1.18,0,0,1,1.18-1.17h2.94a1.17,1.17,0,0,1,1.17,1.17v2.94Z" transform="translate(-8842.88 -7113.76)" style="fill:none;stroke:#666;stroke-linecap:round;stroke-linejoin:round;stroke-width:2px"/><path d="M8891.71,7168.28a1.18,1.18,0,0,1-1.17,1.17h-2.94a1.18,1.18,0,0,1-1.18-1.17v-2.94a1.18,1.18,0,0,1,1.18-1.17h2.94a1.17,1.17,0,0,1,1.17,1.17v2.94Z" transform="translate(-8842.88 -7113.76)" style="fill:none;stroke:#666;stroke-linecap:round;stroke-linejoin:round;stroke-width:2px"/><rect x="34.61" y="50.41" width="5.29" height="5.28" rx="1.17" ry="1.17" style="fill:none;stroke:#666;stroke-linecap:round;stroke-linejoin:round;stroke-width:2px"/><path d="M8900.64,7177.17a1.18,1.18,0,0,1-1.17,1.17h-2.94a1.18,1.18,0,0,1-1.18-1.17v-2.94a1.18,1.18,0,0,1,1.18-1.17h2.94a1.17,1.17,0,0,1,1.17,1.17v2.94Z" transform="translate(-8842.88 -7113.76)" style="fill:none;stroke:#666;stroke-linecap:round;stroke-linejoin:round;stroke-width:2px"/><path d="M8891.71,7177.17a1.18,1.18,0,0,1-1.17,1.17h-2.94a1.18,1.18,0,0,1-1.18-1.17v-2.94a1.18,1.18,0,0,1,1.18-1.17h2.94a1.17,1.17,0,0,1,1.17,1.17v2.94Z" transform="translate(-8842.88 -7113.76)" style="fill:none;stroke:#666;stroke-linecap:round;stroke-linejoin:round;stroke-width:2px"/><rect x="34.61" y="59.29" width="5.29" height="5.28" rx="1.17" ry="1.17" style="fill:none;stroke:#666;stroke-linecap:round;stroke-linejoin:round;stroke-width:2px"/></svg>