<svg id="Layer_1" data-name="Layer 1" xmlns="http://www.w3.org/2000/svg" viewBox="0 0 55.49 37.53"><title>casestudy</title><path d="M9060.86,9920.51h42.47v23.69a3.26,3.26,0,0,1-3.26,3.26h-35.95a3.27,3.27,0,0,1-3.26-3.26v-23.69Z" transform="translate(-9059.86 -9910.93)" style="fill:#ffb11c;opacity:0.7000000000000001"/><polygon points="1 1.41 15.7 1.41 18.97 6.31 1 6.31 1 1.41" style="fill:#ffb11c;stroke:#666;stroke-linecap:round;stroke-linejoin:round;stroke-width:2px;opacity:0.7000000000000001"/><rect x="1" y="6.31" width="42.47" height="3.27" style="fill:#fff;stroke:#666;stroke-linecap:round;stroke-linejoin:round;stroke-width:2px"/><circle cx="42.2" cy="7.89" r="6.89" style="fill:#fff"/><path d="M9060.86,9920.51h42.47v23.69a3.26,3.26,0,0,1-3.26,3.26h-35.95a3.27,3.27,0,0,1-3.26-3.26v-23.69Z" transform="translate(-9059.86 -9910.93)" style="fill:none;stroke:#666;stroke-linecap:round;stroke-linejoin:round;stroke-width:2px"/><polygon points="1 1.41 15.7 1.41 18.97 6.31 1 6.31 1 1.41" style="fill:none;stroke:#666;stroke-linecap:round;stroke-linejoin:round;stroke-width:2px"/><circle cx="42.2" cy="7.89" r="6.89" style="fill:#fff;stroke:#666;stroke-linecap:round;stroke-linejoin:round;stroke-width:2px"/><line x1="47.56" y1="13.25" x2="54.49" y2="20.19" style="fill:none;stroke:#666;stroke-linecap:round;stroke-linejoin:round;stroke-width:2px"/></svg>