<svg id="Layer_1" data-name="Layer 1" xmlns="http://www.w3.org/2000/svg" viewBox="0 0 39.73 54.67"><title>clipboard-white</title><rect x="0.75" y="4.83" width="38.22" height="49.08" rx="3" ry="3" style="fill:none;stroke:#fff;stroke-linecap:round;stroke-linejoin:round;stroke-width:1.50711178779602px"/><path d="M8376.29,11002.16h-25.68a2.52,2.52,0,0,1-2.51-2.51v-42.58h30.69v42.58A2.52,2.52,0,0,1,8376.29,11002.16Z" transform="translate(-8343.59 -10952.24)" style="fill:none;stroke:#fff;stroke-linecap:round;stroke-linejoin:round;stroke-width:1.50711178779602px"/><rect x="12.39" y="2.44" width="14.96" height="5.84" style="fill:#fff;stroke:#fff;stroke-linecap:round;stroke-linejoin:round;stroke-width:0.752998001738595px"/><circle cx="19.86" cy="3.55" r="3.13" style="fill:#fff;stroke:#fff;stroke-linecap:round;stroke-linejoin:round;stroke-width:0.825177232611971px"/><line x1="17.46" y1="28.88" x2="30.94" y2="28.88" style="fill:none;stroke:#fff;stroke-linecap:round;stroke-linejoin:round;stroke-width:1.50711178779602px"/><polyline points="9.14 28.2 10.74 30.31 14.86 25.29" style="fill:none;stroke:#fff;stroke-linecap:round;stroke-linejoin:round;stroke-width:1.50711178779602px"/><line x1="17.46" y1="18.6" x2="30.94" y2="18.6" style="fill:none;stroke:#fff;stroke-linecap:round;stroke-linejoin:round;stroke-width:1.50711178779602px"/><polyline points="9.14 18.26 10.74 20.37 14.86 15.35" style="fill:none;stroke:#fff;stroke-linecap:round;stroke-linejoin:round;stroke-width:1.50711178779602px"/><line x1="17.46" y1="39.41" x2="30.94" y2="39.41" style="fill:none;stroke:#fff;stroke-linecap:round;stroke-linejoin:round;stroke-width:1.50711178779602px"/><rect x="8.83" y="36.8" width="5.22" height="5.22" rx="1" ry="1" style="fill:none;stroke:#fff;stroke-linecap:round;stroke-linejoin:round;stroke-width:1.50711178779602px"/></svg>