<svg id="Layer_1" data-name="Layer 1" xmlns="http://www.w3.org/2000/svg" viewBox="0 0 52.72 72.55"><title>clipboard</title><rect x="1" y="6.42" width="50.72" height="65.13" rx="3" ry="3" style="fill:#f08800"/><rect x="1" y="6.42" width="50.72" height="65.13" rx="3" ry="3" style="fill:none;stroke:#666;stroke-linecap:round;stroke-linejoin:round;stroke-width:2px"/><path d="M5530.15,5512.26h-34.07a3.34,3.34,0,0,1-3.33-3.33v-56.51h40.73v56.51A3.34,3.34,0,0,1,5530.15,5512.26Z" transform="translate(-5486.75 -5446.02)" style="fill:#fff;stroke:#666;stroke-linecap:round;stroke-linejoin:round;stroke-width:2px"/><rect x="16.44" y="3.24" width="19.85" height="7.75" style="fill:#646569;stroke:#666;stroke-linecap:round;stroke-linejoin:round;stroke-width:0.999259653910303px"/><circle cx="26.36" cy="4.71" r="4.16" style="fill:#646569;stroke:#666;stroke-linecap:round;stroke-linejoin:round;stroke-width:1.09504449410312px"/><line x1="23.17" y1="38.32" x2="41.06" y2="38.32" style="fill:none;stroke:#666;stroke-linecap:round;stroke-linejoin:round;stroke-width:2px"/><polyline points="12.12 37.42 14.26 40.22 19.72 33.56" style="fill:none;stroke:#666;stroke-linecap:round;stroke-linejoin:round;stroke-width:2px"/><line x1="23.17" y1="24.68" x2="41.06" y2="24.68" style="fill:none;stroke:#666;stroke-linecap:round;stroke-linejoin:round;stroke-width:2px"/><polyline points="12.12 24.23 14.26 27.03 19.72 20.37" style="fill:none;stroke:#666;stroke-linecap:round;stroke-linejoin:round;stroke-width:2px"/><line x1="23.17" y1="52.3" x2="41.06" y2="52.3" style="fill:none;stroke:#666;stroke-linecap:round;stroke-linejoin:round;stroke-width:2px"/><rect x="11.72" y="48.83" width="6.93" height="6.93" rx="1" ry="1" style="fill:#00a9c5;opacity:0.5"/><rect x="11.72" y="48.83" width="6.93" height="6.93" rx="1" ry="1" style="fill:#00a9c5;opacity:0.5"/><rect x="11.72" y="48.83" width="6.93" height="6.93" rx="1" ry="1" style="fill:none;stroke:#666;stroke-linecap:round;stroke-linejoin:round;stroke-width:2px"/></svg>