<svg id="Layer_1" data-name="Layer 1" xmlns="http://www.w3.org/2000/svg" viewBox="0 0 76.51 74.31"><title>cloud</title><path d="M9237.53,5591.6a16.57,16.57,0,0,0-21,13.42h-0.17a14.07,14.07,0,1,0,0,28.14h41.3a17.57,17.57,0,0,0,6.7-33.87q0-.55,0-1.12A14.26,14.26,0,0,0,9237.53,5591.6Z" transform="translate(-9201.24 -5559.85)" style="fill:#80cfdc;stroke:#666;stroke-miterlimit:10;stroke-width:2px"/><path d="M9265.1,5581.69a21.56,21.56,0,0,0-30.49.06" transform="translate(-9201.24 -5559.85)" style="fill:none;stroke:#666;stroke-linecap:round;stroke-linejoin:round;stroke-width:2px"/><path d="M9272,5577.64a31.39,31.39,0,0,0-44.39.08" transform="translate(-9201.24 -5559.85)" style="fill:none;stroke:#666;stroke-linecap:round;stroke-linejoin:round;stroke-width:2px"/><path d="M9276.75,5571.94a38,38,0,0,0-53.8.1" transform="translate(-9201.24 -5559.85)" style="fill:none;stroke:#666;stroke-linecap:round;stroke-linejoin:round;stroke-width:2px"/></svg>