<svg id="Layer_1" data-name="Layer 1" xmlns="http://www.w3.org/2000/svg" viewBox="0 0 85.89 72.61"><title>deskandchair</title><rect x="1.87" y="10.85" width="38.72" height="18.42" rx="3" ry="3" style="fill:#ffb519"/><rect x="1.87" y="10.85" width="38.72" height="18.42" rx="3" ry="3" style="fill:none;stroke:#666;stroke-linecap:round;stroke-linejoin:round;stroke-width:2px"/><line x1="48.37" y1="71.61" x2="50.4" y2="71.61" style="fill:none;stroke:#666;stroke-linecap:round;stroke-linejoin:round;stroke-width:2px"/><line x1="78.17" y1="71.61" x2="80.21" y2="71.61" style="fill:none;stroke:#666;stroke-linecap:round;stroke-linejoin:round;stroke-width:2px"/><rect x="1" y="6.92" width="40.45" height="3.69" rx="1.5" ry="1.5" style="fill:#f08800"/><rect x="1" y="6.92" width="40.45" height="3.69" rx="1.5" ry="1.5" style="fill:none;stroke:#666;stroke-linecap:round;stroke-linejoin:round;stroke-width:2px"/><rect x="47.06" y="35.48" width="34.3" height="3.69" rx="1.5" ry="1.5" style="fill:#f08800"/><rect x="47.06" y="35.48" width="34.3" height="3.69" rx="1.5" ry="1.5" style="fill:none;stroke:#666;stroke-linecap:round;stroke-linejoin:round;stroke-width:2px"/><path d="M6021.79,5516.07v-27.63a3.7,3.7,0,0,1,3.69-3.69h22.41a3.7,3.7,0,0,1,3.69,3.69v27.63" transform="translate(-5972.32 -5445.57)" style="fill:none;stroke:#666;stroke-linecap:round;stroke-linejoin:round;stroke-width:2px"/><line x1="2.88" y1="71.61" x2="4.91" y2="71.61" style="fill:none;stroke:#666;stroke-linecap:round;stroke-linejoin:round;stroke-width:2px"/><line x1="37.6" y1="71.61" x2="39.64" y2="71.61" style="fill:none;stroke:#666;stroke-linecap:round;stroke-linejoin:round;stroke-width:2px"/><path d="M5976.3,5516.07V5478.6a3.7,3.7,0,0,1,3.69-3.69h27.33a3.7,3.7,0,0,1,3.69,3.69v37.47" transform="translate(-5972.32 -5445.57)" style="fill:none;stroke:#666;stroke-linecap:round;stroke-linejoin:round;stroke-width:2px"/><line x1="81.22" y1="16.52" x2="78.88" y2="35.42" style="fill:none;stroke:#666;stroke-linecap:round;stroke-linejoin:round;stroke-width:2px"/><rect x="6046.65" y="5452.65" width="15.86" height="3.69" rx="1.5" ry="1.5" transform="translate(6238.53 -5330.53) rotate(97.05)" style="fill:#f08800"/><rect x="6046.65" y="5452.65" width="15.86" height="3.69" rx="1.5" ry="1.5" transform="translate(6238.53 -5330.53) rotate(97.05)" style="fill:none;stroke:#666;stroke-linecap:round;stroke-linejoin:round;stroke-width:2px"/></svg>