<svg id="Layer_1" data-name="Layer 1" xmlns="http://www.w3.org/2000/svg" viewBox="0 0 62.63 53.83"><title>deskandchair-white</title><rect x="1.62" y="9.35" width="27.7" height="13.18" rx="3" ry="3" style="fill:none;stroke:#fff;stroke-linecap:round;stroke-linejoin:round;stroke-width:2px"/><line x1="34.89" y1="52.83" x2="36.35" y2="52.83" style="fill:none;stroke:#fff;stroke-linecap:round;stroke-linejoin:round;stroke-width:2px"/><line x1="56.22" y1="52.83" x2="57.68" y2="52.83" style="fill:none;stroke:#fff;stroke-linecap:round;stroke-linejoin:round;stroke-width:2px"/><rect x="1" y="5.52" width="28.94" height="3.66" rx="1.32" ry="1.32" style="fill:none;stroke:#fff;stroke-linecap:round;stroke-linejoin:round;stroke-width:2px"/><rect x="33.96" y="25.97" width="24.55" height="3.64" rx="1.32" ry="1.32" style="fill:none;stroke:#fff;stroke-linecap:round;stroke-linejoin:round;stroke-width:2px"/><path d="M7558.5,7866.1v-19.77a2.64,2.64,0,0,1,2.64-2.64h16a2.64,2.64,0,0,1,2.64,2.64v19.77" transform="translate(-7522.81 -7814.06)" style="fill:none;stroke:#fff;stroke-linecap:round;stroke-linejoin:round;stroke-width:2px"/><line x1="2.34" y1="52.83" x2="3.8" y2="52.83" style="fill:none;stroke:#fff;stroke-linecap:round;stroke-linejoin:round;stroke-width:2px"/><line x1="27.19" y1="52.83" x2="28.65" y2="52.83" style="fill:none;stroke:#fff;stroke-linecap:round;stroke-linejoin:round;stroke-width:2px"/><path d="M7525.95,7866.1v-26.81a2.64,2.64,0,0,1,2.64-2.64h19.56a2.64,2.64,0,0,1,2.64,2.64v26.81" transform="translate(-7522.81 -7814.06)" style="fill:none;stroke:#fff;stroke-linecap:round;stroke-linejoin:round;stroke-width:2px"/><line x1="58.65" y1="12.33" x2="56.98" y2="25.85" style="fill:none;stroke:#fff;stroke-linecap:round;stroke-linejoin:round;stroke-width:2px"/><rect x="7576.53" y="7819.05" width="11.35" height="3.41" rx="1.32" ry="1.32" transform="translate(8751.5 -6558.46) rotate(97.05)" style="fill:none;stroke:#fff;stroke-linecap:round;stroke-linejoin:round;stroke-width:2px"/></svg>