<svg id="Layer_1" data-name="Layer 1" xmlns="http://www.w3.org/2000/svg" viewBox="0 0 77.58 71.02"><title>gears</title><polygon points="74.05 27.48 71.19 31.05 66.92 29.55 62.41 31.72 60.92 36 56.35 36 54.86 31.72 50.34 29.55 46.07 31.05 43.22 27.48 45.64 23.64 44.52 18.76 40.68 16.36 41.7 11.9 46.2 11.4 49.33 7.49 48.81 2.98 52.93 1 56.13 4.21 61.13 4.21 64.33 1 68.45 2.98 67.94 7.48 71.06 11.4 75.56 11.9 76.58 16.36 72.74 18.76 71.63 23.64 74.05 27.48" style="fill:#ffb11c"/><polygon points="74.05 27.48 71.19 31.05 66.92 29.55 62.41 31.72 60.92 36 56.35 36 54.86 31.72 50.34 29.55 46.07 31.05 43.22 27.48 45.64 23.64 44.52 18.76 40.68 16.36 41.7 11.9 46.2 11.4 49.33 7.49 48.81 2.98 52.93 1 56.13 4.21 61.13 4.21 64.33 1 68.45 2.98 67.94 7.48 71.06 11.4 75.56 11.9 76.58 16.36 72.74 18.76 71.63 23.64 74.05 27.48" style="fill:none;stroke:#666;stroke-linecap:round;stroke-linejoin:round;stroke-width:2px"/><polygon points="46.38 58.65 42.41 63.47 36.59 61.32 30.38 64.2 28.25 70.02 22 69.92 20.05 64.04 13.93 60.97 8.05 62.93 4.23 57.99 7.62 52.8 6.2 46.1 1 42.73 2.48 36.66 8.66 36.07 13.01 30.78 12.4 24.61 18.07 21.99 22.38 26.45 29.23 26.55 33.67 22.23 39.26 25.03 38.46 31.18 42.64 36.6 48.79 37.38 50.09 43.49 44.79 46.7 43.16 53.35 46.38 58.65" style="fill:#005f80;opacity:0.72"/><polygon points="46.38 58.65 42.41 63.47 36.59 61.32 30.38 64.2 28.25 70.02 22 69.92 20.05 64.04 13.93 60.97 8.05 62.93 4.23 57.99 7.62 52.8 6.2 46.1 1 42.73 2.48 36.66 8.66 36.07 13.01 30.78 12.4 24.61 18.07 21.99 22.38 26.45 29.23 26.55 33.67 22.23 39.26 25.03 38.46 31.18 42.64 36.6 48.79 37.38 50.09 43.49 44.79 46.7 43.16 53.35 46.38 58.65" style="fill:none;stroke:#666;stroke-linecap:round;stroke-linejoin:round;stroke-width:2px"/><circle cx="25.54" cy="46" r="12" style="fill:#fff"/><circle cx="25.54" cy="46" r="12" style="fill:none;stroke:#666;stroke-linecap:round;stroke-linejoin:round;stroke-width:2px"/><circle cx="25.54" cy="46" r="7.29" style="fill:none;stroke:#666;stroke-linecap:round;stroke-linejoin:round;stroke-width:2px"/><circle cx="58.6" cy="18.01" r="8.1" style="fill:#fff"/><circle cx="58.6" cy="18.01" r="8.1" style="fill:none;stroke:#666;stroke-linecap:round;stroke-linejoin:round;stroke-width:2px"/></svg>