<svg id="Layer_1" data-name="Layer 1" xmlns="http://www.w3.org/2000/svg" viewBox="0 0 50.59 71.67"><title>gradebook</title><path d="M10513.65,6867.47h30.23s8,1.7,8,11.25v47.11s1.13,5.37-3.71,8l-29.79-4.19-5.63-59.93Z" transform="translate(-10502.24 -6866.73)" style="fill:#ffb11c"/><path d="M10546.21,6934.21c4.68-.78,5.59-4.67,5.59-7.72v-0.28" transform="translate(-10502.24 -6866.73)" style="fill:none;stroke:#666;stroke-linecap:round;stroke-linejoin:round;stroke-width:2px"/><path d="M10551.82,6926v-50a8.23,8.23,0,0,0-8.21-8.21h-30.27l-3.78,3.14" transform="translate(-10502.24 -6866.73)" style="fill:none;stroke:#666;stroke-linecap:round;stroke-linejoin:round;stroke-width:2px"/><path d="M10548.19,6929.19v-50a8.23,8.23,0,0,0-8.21-8.21h-30.27v66.44H10540a8.23,8.23,0,0,0,8.21-8.21v-0.28" transform="translate(-10502.24 -6866.73)" style="fill:none;stroke:#666;stroke-linecap:round;stroke-linejoin:round;stroke-width:2px"/><path d="M10548.19,6929.19v-50a8.23,8.23,0,0,0-8.21-8.21h-30.27v66.44H10540a8.23,8.23,0,0,0,8.21-8.21v-0.28" transform="translate(-10502.24 -6866.73)" style="fill:#fff"/><path d="M10548.19,6929.19v-50a8.23,8.23,0,0,0-8.21-8.21h-30.27v66.44H10540a8.23,8.23,0,0,0,8.21-8.21v-0.28" transform="translate(-10502.24 -6866.73)" style="fill:#ffb11c"/><path d="M10548.19,6929.19v-50a8.23,8.23,0,0,0-8.21-8.21h-30.27v66.44H10540a8.23,8.23,0,0,0,8.21-8.21v-0.28" transform="translate(-10502.24 -6866.73)" style="fill:none;stroke:#666;stroke-linecap:round;stroke-linejoin:round;stroke-width:2px"/><rect x="16.93" y="20.05" width="19.29" height="11.2" rx="4.79" ry="4.79" style="fill:#fff"/><rect x="16.93" y="20.05" width="19.29" height="11.2" rx="4.79" ry="4.79" style="fill:none;stroke:#666;stroke-linecap:round;stroke-linejoin:round;stroke-width:2px"/><path d="M10512.54,6884.76a8,8,0,0,1-4.23,1c-2.8,0-5.07-1-5.07-2.27s2.27-2.27,5.07-2.27a11.07,11.07,0,0,1,1.36.08" transform="translate(-10502.24 -6866.73)" style="fill:none;stroke:#666;stroke-linecap:round;stroke-linejoin:round;stroke-width:2px"/><path d="M10512.54,6881.49a8,8,0,0,1-4.23,1c-2.8,0-5.07-1-5.07-2.27s2.27-2.27,5.07-2.27a11.07,11.07,0,0,1,1.36.08" transform="translate(-10502.24 -6866.73)" style="fill:none;stroke:#666;stroke-linecap:round;stroke-linejoin:round;stroke-width:2px"/><path d="M10512.54,6906.83a8,8,0,0,1-4.23,1c-2.8,0-5.07-1-5.07-2.27s2.27-2.27,5.07-2.27a11.07,11.07,0,0,1,1.36.08" transform="translate(-10502.24 -6866.73)" style="fill:none;stroke:#666;stroke-linecap:round;stroke-linejoin:round;stroke-width:2px"/><path d="M10512.54,6903.55a8,8,0,0,1-4.23,1c-2.8,0-5.07-1-5.07-2.27s2.27-2.27,5.07-2.27a11.07,11.07,0,0,1,1.36.08" transform="translate(-10502.24 -6866.73)" style="fill:none;stroke:#666;stroke-linecap:round;stroke-linejoin:round;stroke-width:2px"/><path d="M10512.54,6929.3a8,8,0,0,1-4.23,1c-2.8,0-5.07-1-5.07-2.27s2.27-2.27,5.07-2.27a11.07,11.07,0,0,1,1.36.08" transform="translate(-10502.24 -6866.73)" style="fill:none;stroke:#666;stroke-linecap:round;stroke-linejoin:round;stroke-width:2px"/><path d="M10512.54,6926a8,8,0,0,1-4.23,1c-2.8,0-5.07-1-5.07-2.27s2.27-2.27,5.07-2.27a11.07,11.07,0,0,1,1.36.08" transform="translate(-10502.24 -6866.73)" style="fill:none;stroke:#666;stroke-linecap:round;stroke-linejoin:round;stroke-width:2px"/></svg>