<svg id="Layer_1" data-name="Layer 1" xmlns="http://www.w3.org/2000/svg" viewBox="0 0 74.46 70.82"><title>implements</title><rect x="58.03" y="0.8" width="12.6" height="11.5" style="fill:#87878a"/><rect x="58.2" y="12.63" width="12.09" height="44.33" style="fill:#f08800"/><path d="M8865.21,8814.77v-39.4h-12.43l0.07,40.83s0,1.89,2.61,1.43S8865.21,8814.77,8865.21,8814.77Z" transform="translate(-8851.56 -8757.24)" style="fill:#ffb519"/><rect x="1.08" y="1.13" width="12.43" height="6.89" rx="1" ry="1" style="fill:#f08800"/><polyline points="13.62 61.61 7.42 69.81 1.22 61.61" style="fill:none;stroke:#666;stroke-linecap:round;stroke-linejoin:round;stroke-width:2.00777292251587px"/><polyline points="1.21 61.58 1.21 17.85 13.63 17.85 13.63 61.48" style="fill:none;stroke:#666;stroke-linecap:round;stroke-linejoin:round;stroke-width:2.00777292251587px"/><rect x="1.21" y="1.15" width="12.43" height="6.89" rx="1" ry="1" style="fill:none;stroke:#666;stroke-linecap:round;stroke-linejoin:round;stroke-width:2.00777292251587px"/><line x1="1" y1="14.33" x2="13.83" y2="14.33" style="fill:none;stroke:#666;stroke-linecap:round;stroke-linejoin:round;stroke-width:2.00777292251587px"/><line x1="1" y1="11.48" x2="13.83" y2="11.48" style="fill:none;stroke:#666;stroke-linecap:round;stroke-linejoin:round;stroke-width:2.00777292251587px"/><path d="M8852.84,8816.49c4.83,2.9,6.24-2.45,11.69-1.51" transform="translate(-8851.56 -8757.24)" style="fill:none;stroke:#666;stroke-linecap:round;stroke-linejoin:round;stroke-width:2.00777292251587px"/><polyline points="70.42 58.6 64.22 69.81 58.02 58.6" style="fill:none;stroke:#666;stroke-linecap:round;stroke-linejoin:round;stroke-width:2.00777292251587px"/><path d="M8922,8815.72V8759.4a1,1,0,0,0-1-1h-10.41a1,1,0,0,0-1,1v56.43" transform="translate(-8851.56 -8757.24)" style="fill:none;stroke:#666;stroke-linecap:round;stroke-linejoin:round;stroke-width:2.00777292251587px"/><line x1="58.03" y1="12.32" x2="70.13" y2="12.32" style="fill:none;stroke:#666;stroke-linecap:round;stroke-linejoin:round;stroke-width:1.94972894696491px"/><rect x="8877.94" y="8758.22" width="17.39" height="68.57" rx="1" ry="1" transform="translate(8921.71 8827.78) rotate(-180)" style="fill:#00a9c5;opacity:0.5"/><rect x="8877.94" y="8758.22" width="17.39" height="68.57" rx="1" ry="1" transform="translate(8921.71 8827.78) rotate(-180)" style="fill:none;stroke:#666;stroke-linecap:round;stroke-linejoin:round;stroke-width:1.95984970675971px"/><line x1="26.66" y1="57.15" x2="35.32" y2="57.15" style="fill:none;stroke:#666;stroke-linecap:round;stroke-linejoin:round;stroke-width:1.95984970675971px"/><line x1="26.66" y1="42.68" x2="35.32" y2="42.68" style="fill:none;stroke:#666;stroke-linecap:round;stroke-linejoin:round;stroke-width:1.95984970675971px"/><line x1="26.66" y1="28.21" x2="35.32" y2="28.21" style="fill:none;stroke:#666;stroke-linecap:round;stroke-linejoin:round;stroke-width:1.95984970675971px"/><line x1="26.66" y1="13.74" x2="35.32" y2="13.74" style="fill:none;stroke:#666;stroke-linecap:round;stroke-linejoin:round;stroke-width:1.95984970675971px"/><line x1="26.66" y1="63.86" x2="31.64" y2="63.86" style="fill:none;stroke:#666;stroke-linecap:round;stroke-linejoin:round;stroke-width:2.00777292251587px"/><line x1="26.66" y1="49.39" x2="31.64" y2="49.39" style="fill:none;stroke:#666;stroke-linecap:round;stroke-linejoin:round;stroke-width:2.00777292251587px"/><line x1="26.66" y1="34.92" x2="31.64" y2="34.92" style="fill:none;stroke:#666;stroke-linecap:round;stroke-linejoin:round;stroke-width:2.00777292251587px"/><line x1="26.66" y1="20.45" x2="31.64" y2="20.45" style="fill:none;stroke:#666;stroke-linecap:round;stroke-linejoin:round;stroke-width:2.00777292251587px"/><line x1="26.66" y1="7.39" x2="31.64" y2="7.39" style="fill:none;stroke:#666;stroke-linecap:round;stroke-linejoin:round;stroke-width:2.00777292251587px"/><path d="M8909.6,8813.37a12.42,12.42,0,0,0,12.43,0" transform="translate(-8851.56 -8757.24)" style="fill:none;stroke:#666;stroke-linecap:round;stroke-linejoin:round;stroke-width:1.94972894696491px"/><polyline points="70.46 6.13 73.49 4.13 73.49 30.46" style="fill:none;stroke:#666;stroke-linecap:round;stroke-linejoin:round;stroke-width:1.94972894696491px"/></svg>