<svg id="Layer_1" data-name="Layer 1" xmlns="http://www.w3.org/2000/svg" xmlns:xlink="http://www.w3.org/1999/xlink" viewBox="0 0 85.32 61.93"><defs><clipPath id="clip-path" transform="translate(-2435.56 -7549.91)"><rect x="2443.87" y="7550.91" width="70.16" height="39.39" style="fill:none;stroke:#666;stroke-linecap:round;stroke-linejoin:round;stroke-width:2px"/></clipPath><clipPath id="clip-path-2" transform="translate(-2435.56 -7549.91)"><polygon points="2443.87 7590.38 2514.03 7590.38 2519.88 7610.84 2436.56 7610.84 2443.87 7590.38" style="fill:#87878a;stroke:#666;stroke-linecap:round;stroke-linejoin:round;stroke-width:2px;clip-rule:evenodd"/></clipPath><clipPath id="clip-path-3" transform="translate(-2435.56 -7549.91)"><polygon points="2443.87 7590.38 2514.03 7590.38 2519.88 7610.84 2436.56 7610.84 2443.87 7590.38" style="fill:none;stroke:#666;stroke-linecap:round;stroke-linejoin:round;stroke-width:2px;clip-rule:evenodd"/></clipPath></defs><title>laptoplock</title><g style="clip-path:url(#clip-path)"><rect x="8.31" y="1" width="70.16" height="42.39" style="fill:none;stroke:#666;stroke-linecap:round;stroke-linejoin:round;stroke-width:2px"/></g><rect x="8.31" y="1" width="70.16" height="39.39" style="fill:none;stroke:#666;stroke-linecap:round;stroke-linejoin:round;stroke-width:2px"/><g style="opacity:0.43"><polygon points="8.31 40.47 78.47 40.47 84.32 60.93 1 60.93 8.31 40.47" style="fill:#87878a;fill-rule:evenodd"/><g style="clip-path:url(#clip-path-2)"><polygon points="8.31 40.47 78.47 40.47 84.32 60.93 1 60.93 8.31 40.47" style="fill:#87878a;stroke:#666;stroke-linecap:round;stroke-linejoin:round;stroke-width:2px"/></g><polygon points="8.31 40.47 78.47 40.47 84.32 60.93 1 60.93 8.31 40.47" style="fill:none;stroke:#666;stroke-linecap:round;stroke-linejoin:round;stroke-width:2px;fill-rule:evenodd"/></g><g style="clip-path:url(#clip-path-3)"><polygon points="8.31 40.47 78.47 40.47 84.32 60.93 1 60.93 8.31 40.47" style="fill:none;stroke:#666;stroke-linecap:round;stroke-linejoin:round;stroke-width:2px"/></g><polygon points="8.31 40.47 78.47 40.47 84.32 60.93 1 60.93 8.31 40.47" style="fill:none;stroke:#666;stroke-linecap:round;stroke-linejoin:round;stroke-width:2px;fill-rule:evenodd"/><line x1="31.7" y1="55.08" x2="53.62" y2="55.08" style="fill:none;stroke:#666;stroke-linecap:round;stroke-linejoin:round;stroke-width:2px"/><line x1="59.47" y1="55.08" x2="63.85" y2="55.08" style="fill:none;stroke:#666;stroke-linecap:round;stroke-linejoin:round;stroke-width:2px"/><line x1="21.46" y1="55.08" x2="25.85" y2="55.08" style="fill:none;stroke:#666;stroke-linecap:round;stroke-linejoin:round;stroke-width:2px"/><path d="M2486.22,7565a7.58,7.58,0,0,0-15.17,0v17.69h15.17v-17.69q0,0.11,0,.22V7565Zm-2.7,3.66h-9.76v-3.27a4.47,4.47,0,0,1,4.46-4.46h0.84a4.47,4.47,0,0,1,4.46,4.46v3.27Z" transform="translate(-2435.56 -7549.91)" style="fill:#ffb519;stroke:#666;stroke-linecap:round;stroke-linejoin:round;stroke-width:1.78429460525513px"/><path d="M2486.22,7565v0Z" transform="translate(-2435.56 -7549.91)" style="fill:#ffb519;stroke:#666;stroke-linecap:round;stroke-linejoin:round;stroke-width:1.78429460525513px"/></svg>