<svg id="Layer_1" data-name="Layer 1" xmlns="http://www.w3.org/2000/svg" viewBox="0 0 72.96 89.41"><title>lightbulb</title><polygon points="29.4 83.2 33.52 88.41 38.85 88.41 43.54 81.62 29.4 83.2" style="fill:#ffb11c"/><path d="M12141.93,5805.88l0.6-.15c3.25-1.16,2.38-5.86,2.45-8.63a19.92,19.92,0,0,1,3-9.09s6.06-9.92,6.06-16.25c0-16.94-15.05-20.11-20-20.11s-20.09,3.44-20.09,20.11c0,6.34,6.06,16.25,6.06,16.25s2.86,9.55,3,14.23a5.15,5.15,0,0,0,4.68,5.1A116,116,0,0,0,12141.93,5805.88Z" transform="translate(-12097.68 -5731.14)" style="fill:#ffb519"/><path d="M12141.93,5805.88l0.6-.15c3.25-1.16,2.38-5.86,2.45-8.63a19.92,19.92,0,0,1,3-9.09s6.06-9.92,6.06-16.25c0-16.94-15.05-20.11-20-20.11s-20.09,3.44-20.09,20.11c0,6.34,6.06,16.25,6.06,16.25s2.86,9.55,3,14.23a5.15,5.15,0,0,0,4.68,5.1A116,116,0,0,0,12141.93,5805.88Z" transform="translate(-12097.68 -5731.14)" style="fill:none;stroke:#fff;stroke-linecap:round;stroke-linejoin:round;stroke-width:2px"/><path d="M12125.57,5810.52a79,79,0,0,0,16.9-1.47" transform="translate(-12097.68 -5731.14)" style="fill:none;stroke:#fff;stroke-linecap:round;stroke-linejoin:round;stroke-width:2px"/><path d="M12125.57,5813.77a79,79,0,0,0,16.9-1.47" transform="translate(-12097.68 -5731.14)" style="fill:none;stroke:#fff;stroke-linecap:round;stroke-linejoin:round;stroke-width:2px"/><polyline points="29.4 83.2 33.52 88.41 38.85 88.41 43.54 81.62" style="fill:none;stroke:#fff;stroke-linecap:round;stroke-linejoin:round;stroke-width:2px"/><polyline points="34.12 72.28 34.12 57.95 28.06 41.7" style="fill:none;stroke:#fff;stroke-linecap:round;stroke-linejoin:round;stroke-width:2px"/><polyline points="38.56 72.28 38.56 57.95 44.62 41.7" style="fill:none;stroke:#fff;stroke-linecap:round;stroke-linejoin:round;stroke-width:2px"/><line x1="36.34" y1="12.42" x2="36.34" y2="1" style="fill:none;stroke:#fff;stroke-linecap:round;stroke-linejoin:round;stroke-width:2px"/><line x1="51.51" y1="16.2" x2="57.81" y2="6.67" style="fill:none;stroke:#fff;stroke-linecap:round;stroke-linejoin:round;stroke-width:2px"/><line x1="61.45" y1="28.67" x2="71.96" y2="24.2" style="fill:none;stroke:#fff;stroke-linecap:round;stroke-linejoin:round;stroke-width:2px"/><line x1="21.44" y1="16.2" x2="15.15" y2="6.67" style="fill:none;stroke:#fff;stroke-linecap:round;stroke-linejoin:round;stroke-width:2px"/><line x1="11.5" y1="28.67" x2="1" y2="24.2" style="fill:none;stroke:#fff;stroke-linecap:round;stroke-linejoin:round;stroke-width:2px"/></svg>