<svg id="Layer_1" data-name="Layer 1" xmlns="http://www.w3.org/2000/svg" viewBox="0 0 19.16 19.16"><title>LIN</title><rect width="19.16" height="19.16" rx="3" ry="3" style="fill:#80cfdc"/><path d="M11973.08,8033.77v-9.1h2v9.1h-2Zm1-10.18a1.21,1.21,0,1,1,1.3-1.21A1.2,1.2,0,0,1,11974.05,8023.59Zm9.28,5.53a1.94,1.94,0,0,0-1.82-2,1.61,1.61,0,0,0-1.81.93,3.17,3.17,0,0,0-.17.92v4.8h-2.33v-9.1h2.42l0.12,1.19h0.05a2.87,2.87,0,0,1,2.58-1.19c1.75,0,3.31,1.38,3.31,3.92v5.18h-2.34v-4.65Z" transform="translate(-11969.66 -8017.89)" style="fill:#fff"/></svg>