<svg id="Layer_1" data-name="Layer 1" xmlns="http://www.w3.org/2000/svg" viewBox="0 0 200 44.8"><title>JMPRP_Logo</title><path d="M44.06,18.44A19.63,19.63,0,0,0,36.92,5,22.58,22.58,0,0,0,22.59,0,21.2,21.2,0,0,0,7.26,6.45,22.31,22.31,0,0,0,2.48,29.79a1,1,0,0,0,0,1l-0.1.06A0.78,0.78,0,0,0,2,31.86S4.61,34.93,5.3,36,10,44.48,10,44.48a0.78,0.78,0,0,0,1.08.18h0c0.15,0.21,1-.08,1.93-0.65s1.55-1.22,1.42-1.45h0a0.78,0.78,0,0,0,.3-1.05S9.79,34.64,9.1,33.54s-2.3-4.68-2.3-4.68a0.78,0.78,0,0,0-1.08-.18l-0.1.06a1,1,0,0,0-.82-0.38A19.65,19.65,0,0,1,9.17,8.31,18.55,18.55,0,0,1,22.59,2.66a19.91,19.91,0,0,1,12.64,4.4,16.76,16.76,0,0,1,6.18,11.62A15.52,15.52,0,0,1,35.2,32.88a13.57,13.57,0,0,1-16-.24,13,13,0,0,1-4.48-11.82,7.77,7.77,0,0,1,5.59-6.28,6.9,6.9,0,0,1,5.43.47,7.06,7.06,0,0,1,2.63,2.52,1.11,1.11,0,0,0,0,.16H28.17a0.74,0.74,0,0,0-.74.74A7.16,7.16,0,0,1,27,21.29c-1,1.74-1.42,1.2-1.42,2.34v0.16a0.46,0.46,0,0,0,.53.48h1.4v2.23L27.6,27l0,0.3a0.6,0.6,0,0,0,.11.35,0.35,0.35,0,0,0,.26.11h0.49a0.36,0.36,0,0,0,.26-0.12,0.44,0.44,0,0,0,.09-0.23V27.3c0-.27.08-0.54,0.12-0.81V24.26h1.92v2.23C31,26.76,31,27,31,27.3v0.07a0.44,0.44,0,0,0,.09.23,0.36,0.36,0,0,0,.26.12h0.49a0.35,0.35,0,0,0,.26-0.11,0.6,0.6,0,0,0,.11-0.35l0-.3,0.07-.47V24.26h1.4a0.46,0.46,0,0,0,.53-0.48V23.63c0-1.14-.46-0.6-1.42-2.34a7.16,7.16,0,0,1-.42-2.87,0.74,0.74,0,0,0-.74-0.74H31.63a1.14,1.14,0,0,0-.61-0.8,9.82,9.82,0,0,0-4-4.22A9.54,9.54,0,0,0,19.47,12a10.43,10.43,0,0,0-7.41,8.33A15.56,15.56,0,0,0,17.5,34.71,15.58,15.58,0,0,0,27.25,38a16.48,16.48,0,0,0,9.49-3A18.19,18.19,0,0,0,44.06,18.44Z" transform="translate(-1.04)" style="fill:#fff"/><path d="M51.57,35.84a12.58,12.58,0,0,0,2.42.31c2.73,0,3.71-1.94,3.71-4.23V7.72h3.65v24.2c0,4.16-2,7.7-7.36,7.7a15.92,15.92,0,0,1-2.76-.41Z" transform="translate(-1.04)" style="fill:#fff"/><path d="M75.29,15.28H78.8V31.2H75.29V28.88a5.43,5.43,0,0,1-4.74,2.66c-3.89,0-6.2-2.49-6.17-7V15.28H67.9v8.86c0,2.62,1.4,4,3.31,4s4.09-1.13,4.09-4.29V15.28Z" transform="translate(-1.04)" style="fill:#fff"/><path d="M96.35,22.65V31.2H92.84V22.27c0-2.45-1.36-3.89-3.24-3.89-2,0-4,1.16-4,4.26V31.2H82.07V15.28h3.51v2.39c1.06-2.22,3.75-2.73,5-2.73a5,5,0,0,1,5,3.17A5.77,5.77,0,0,1,101,14.94c3.92,0,6.14,2.56,6.14,7.09V31.2h-3.51V22.34c0-2.49-1.33-4-3.37-4C97.89,18.39,96.35,20.09,96.35,22.65Z" transform="translate(-1.04)" style="fill:#fff"/><path d="M113.7,17.64A6.17,6.17,0,0,1,119,14.94c4.29,0,7.91,3.31,7.91,8.32s-3.61,8.28-7.91,8.28a6,6,0,0,1-5.32-2.62v10h-3.51V15.28h3.51v2.35Zm4.87,10.53a4.64,4.64,0,0,0,4.77-4.84,4.81,4.81,0,1,0-9.61,0A4.7,4.7,0,0,0,118.57,28.17Z" transform="translate(-1.04)" style="fill:#fff"/><path d="M146.55,31.2h-4.4l-5.86-8.62h-2.52V31.2h-3.65V7.72h9.17c5,0,7.16,3.72,7.16,7.46,0,3.44-1.74,6.78-6.07,7.26ZM133.77,11.06v8.21H139c2.62,0,3.68-2.08,3.68-4.09s-1-4.12-3.54-4.12h-5.39Z" transform="translate(-1.04)" style="fill:#fff"/><path d="M147.33,23.19a8.32,8.32,0,0,1,16.63,0A8.32,8.32,0,1,1,147.33,23.19Zm13.12,0a4.82,4.82,0,0,0-9.65,0A4.82,4.82,0,1,0,160.45,23.19Z" transform="translate(-1.04)" style="fill:#fff"/><path d="M169.72,17.64A6.17,6.17,0,0,1,175,14.94c4.29,0,7.91,3.31,7.91,8.32s-3.61,8.28-7.91,8.28a6,6,0,0,1-5.32-2.62v10h-3.51V15.28h3.51v2.35Zm4.87,10.53a4.64,4.64,0,0,0,4.77-4.84,4.81,4.81,0,1,0-9.61,0A4.7,4.7,0,0,0,174.6,28.17Z" transform="translate(-1.04)" style="fill:#fff"/><path d="M201,24.49H188.36a4.62,4.62,0,0,0,4.87,4,4.91,4.91,0,0,0,4.33-2.28c0.89,0.41,1.94.85,2.86,1.26a8.36,8.36,0,0,1-15.54-4.26,7.91,7.91,0,0,1,8.18-8.25c4.53,0,8,3.2,8,8.25C201,23.57,201,24.15,201,24.49Zm-3.41-2.56A4.32,4.32,0,0,0,193.07,18a4.47,4.47,0,0,0-4.7,3.92h9.24Z" transform="translate(-1.04)" style="fill:#fff"/></svg>