<svg id="Layer_1" data-name="Layer 1" xmlns="http://www.w3.org/2000/svg" viewBox="0 0 200 44.8"><title>logo-grey</title><path d="M1678.17,10928.34a19.63,19.63,0,0,0-7.14-13.43,22.58,22.58,0,0,0-14.34-5,21.2,21.2,0,0,0-15.33,6.45,22.31,22.31,0,0,0-4.78,23.33,1,1,0,0,0,0,1l-0.1.06a0.78,0.78,0,0,0-.3,1.05s2.57,3.07,3.26,4.17,4.67,8.45,4.67,8.45a0.78,0.78,0,0,0,1.08.18h0c0.15,0.21,1-.08,1.93-0.65s1.55-1.22,1.42-1.45h0a0.78,0.78,0,0,0,.3-1.05s-4.95-6.84-5.64-7.94-2.3-4.68-2.3-4.68a0.78,0.78,0,0,0-1.08-.18l-0.1.06a1,1,0,0,0-.82-0.38,19.65,19.65,0,0,1,4.37-20.05,18.55,18.55,0,0,1,13.42-5.65,19.91,19.91,0,0,1,12.64,4.4,16.76,16.76,0,0,1,6.18,11.62,15.52,15.52,0,0,1-6.21,14.19,13.57,13.57,0,0,1-16-.24,13,13,0,0,1-4.48-11.82,7.77,7.77,0,0,1,5.59-6.28,6.9,6.9,0,0,1,5.43.47,7.06,7.06,0,0,1,2.63,2.52,1.11,1.11,0,0,0,0,.16h-0.12a0.74,0.74,0,0,0-.74.74,7.16,7.16,0,0,1-.42,2.87c-1,1.74-1.42,1.2-1.42,2.34v0.16a0.46,0.46,0,0,0,.53.48h1.4v2.23l0.07,0.47,0,0.3a0.6,0.6,0,0,0,.11.35,0.35,0.35,0,0,0,.26.11h0.49a0.36,0.36,0,0,0,.26-0.12,0.44,0.44,0,0,0,.09-0.23v-0.07c0-.27.08-0.54,0.12-0.81v-2.23H1665v2.23c0,0.27.08,0.54,0.12,0.81v0.07a0.44,0.44,0,0,0,.09.23,0.36,0.36,0,0,0,.26.12H1666a0.35,0.35,0,0,0,.26-0.11,0.6,0.6,0,0,0,.11-0.35l0-.3,0.07-.47v-2.23h1.4a0.46,0.46,0,0,0,.53-0.48v-0.16c0-1.14-.46-0.6-1.42-2.34a7.16,7.16,0,0,1-.42-2.87,0.74,0.74,0,0,0-.74-0.74h-0.12a1.14,1.14,0,0,0-.61-0.8,9.82,9.82,0,0,0-4-4.22,9.54,9.54,0,0,0-7.51-.67,10.43,10.43,0,0,0-7.41,8.33,15.11,15.11,0,0,0,15.18,17.71,16.48,16.48,0,0,0,9.49-3A18.19,18.19,0,0,0,1678.17,10928.34Z" transform="translate(-1635.15 -10909.9)" style="fill:#929292"/><path d="M1685.68,10945.73a12.58,12.58,0,0,0,2.42.31c2.73,0,3.71-1.94,3.71-4.23v-24.2h3.65v24.2c0,4.16-2,7.7-7.36,7.7a15.92,15.92,0,0,1-2.76-.41Z" transform="translate(-1635.15 -10909.9)" style="fill:#929292"/><path d="M1709.4,10925.18h3.51v15.92h-3.51v-2.32a5.43,5.43,0,0,1-4.74,2.66c-3.89,0-6.2-2.49-6.17-7v-9.27H1702v8.86c0,2.62,1.4,4,3.31,4s4.09-1.13,4.09-4.29v-8.55Z" transform="translate(-1635.15 -10909.9)" style="fill:#929292"/><path d="M1730.46,10932.54v8.55H1727v-8.93c0-2.45-1.36-3.89-3.24-3.89-2,0-4,1.16-4,4.26v8.55h-3.51v-15.92h3.51v2.39c1.06-2.22,3.75-2.73,5-2.73a5,5,0,0,1,5,3.17,5.77,5.77,0,0,1,5.35-3.17c3.92,0,6.14,2.56,6.14,7.09v9.17h-3.51v-8.86c0-2.49-1.33-4-3.37-4C1732,10928.28,1730.46,10930,1730.46,10932.54Z" transform="translate(-1635.15 -10909.9)" style="fill:#929292"/><path d="M1747.81,10927.53a6.17,6.17,0,0,1,5.32-2.69c4.29,0,7.91,3.31,7.91,8.32s-3.61,8.28-7.91,8.28a6,6,0,0,1-5.32-2.62v10h-3.51v-23.65h3.51v2.35Zm4.87,10.53a4.64,4.64,0,0,0,4.77-4.84A4.81,4.81,0,1,0,1752.68,10938.07Z" transform="translate(-1635.15 -10909.9)" style="fill:#929292"/><path d="M1780.66,10941.1h-4.4l-5.86-8.62h-2.52v8.62h-3.65v-23.48h9.17c5,0,7.16,3.72,7.16,7.46,0,3.44-1.74,6.78-6.07,7.26Zm-12.78-20.14v8.21h5.25c2.62,0,3.68-2.08,3.68-4.09s-1-4.12-3.54-4.12h-5.39Z" transform="translate(-1635.15 -10909.9)" style="fill:#929292"/><path d="M1781.44,10933.09a8.32,8.32,0,0,1,16.63,0A8.32,8.32,0,1,1,1781.44,10933.09Zm13.12,0a4.82,4.82,0,0,0-9.65,0A4.82,4.82,0,1,0,1794.56,10933.09Z" transform="translate(-1635.15 -10909.9)" style="fill:#929292"/><path d="M1803.83,10927.53a6.17,6.17,0,0,1,5.32-2.69c4.29,0,7.91,3.31,7.91,8.32s-3.61,8.28-7.91,8.28a6,6,0,0,1-5.32-2.62v10h-3.51v-23.65h3.51v2.35Zm4.87,10.53a4.64,4.64,0,0,0,4.77-4.84A4.81,4.81,0,1,0,1808.7,10938.07Z" transform="translate(-1635.15 -10909.9)" style="fill:#929292"/><path d="M1835.12,10934.39h-12.64a4.62,4.62,0,0,0,4.87,4,4.91,4.91,0,0,0,4.33-2.28c0.89,0.41,1.94.85,2.86,1.26a8.33,8.33,0,1,1-7.36-12.51c4.53,0,8,3.2,8,8.25C1835.15,10933.46,1835.15,10934,1835.12,10934.39Zm-3.41-2.56a4.32,4.32,0,0,0-4.53-3.92,4.47,4.47,0,0,0-4.7,3.92h9.24Z" transform="translate(-1635.15 -10909.9)" style="fill:#929292"/></svg>