<svg id="Layer_1" data-name="Layer 1" xmlns="http://www.w3.org/2000/svg" viewBox="0 0 78.23 80.88"><title>nodes</title><circle cx="13" cy="17.37" r="5" style="fill:none;stroke:#666;stroke-miterlimit:10;stroke-width:2px"/><circle cx="50" cy="38.37" r="5" style="fill:none;stroke:#666;stroke-miterlimit:10;stroke-width:2px"/><circle cx="6" cy="33.37" r="5" style="fill:none;stroke:#666;stroke-miterlimit:10;stroke-width:2px"/><path d="M8513.27,5574.94h5a5,5,0,0,1,5,5v31" transform="translate(-8495.27 -5556.56)" style="fill:none;stroke:#666;stroke-miterlimit:10;stroke-width:2px"/><path d="M8506.27,5589.94h5a5,5,0,0,1,5,5v16" transform="translate(-8495.27 -5556.56)" style="fill:none;stroke:#666;stroke-miterlimit:10;stroke-width:2px"/><path d="M8540.27,5594.94h-5a5,5,0,0,0-5,5v11" transform="translate(-8495.27 -5556.56)" style="fill:none;stroke:#666;stroke-miterlimit:10;stroke-width:2px"/><path d="M8550.76,5595.17h3.86a3.85,3.85,0,0,0,3.86-3.86v-15.14" transform="translate(-8495.27 -5556.56)" style="fill:none;stroke:#666;stroke-miterlimit:10;stroke-width:2px"/><circle cx="28.25" cy="65.61" r="14.27" style="fill:#80cfdc;stroke:#666;stroke-miterlimit:10;stroke-width:2px"/><circle cx="28.25" cy="65.61" r="14.27" style="fill:none;stroke:#666;stroke-linecap:round;stroke-linejoin:round;stroke-width:2px"/><polyline points="23.34 66.54 26.16 69.71 33.77 61.45" style="fill:none;stroke:#666;stroke-linecap:round;stroke-linejoin:round;stroke-width:2px"/><circle cx="62.96" cy="15.27" r="14.27" style="fill:#80cfdc;stroke:#666;stroke-miterlimit:10;stroke-width:2px"/><polyline points="57.74 16.23 60.57 19.4 68.18 11.13" style="fill:none;stroke:#666;stroke-linecap:round;stroke-linejoin:round;stroke-width:2px"/></svg>