<svg id="Layer_1" data-name="Layer 1" xmlns="http://www.w3.org/2000/svg" viewBox="0 0 56 80.16"><title>nodes2</title><circle cx="13" cy="6" r="5" style="fill:none;stroke:#666;stroke-miterlimit:10;stroke-width:2px"/><circle cx="50" cy="74.16" r="5" style="fill:none;stroke:#666;stroke-miterlimit:10;stroke-width:2px"/><circle cx="6" cy="22" r="5" style="fill:none;stroke:#666;stroke-miterlimit:10;stroke-width:2px"/><path d="M8878.81,5864.6h5a5,5,0,0,1,5,5v31" transform="translate(-8860.81 -5857.6)" style="fill:none;stroke:#666;stroke-miterlimit:10;stroke-width:2px"/><path d="M8871.81,5879.6h5a5,5,0,0,1,5,5v16" transform="translate(-8860.81 -5857.6)" style="fill:none;stroke:#666;stroke-miterlimit:10;stroke-width:2px"/><path d="M8905.81,5931.76h-5a5,5,0,0,1-5-5v-11" transform="translate(-8860.81 -5857.6)" style="fill:none;stroke:#666;stroke-miterlimit:10;stroke-width:2px"/><circle cx="28.38" cy="47.9" r="14.27" style="fill:#ffb11c;stroke:#666;stroke-miterlimit:10;stroke-width:2px"/><circle cx="28.38" cy="47.9" r="14.27" style="fill:none;stroke:#666;stroke-linecap:round;stroke-linejoin:round;stroke-width:2px"/><polygon points="28.38 52.52 23.82 54.92 24.69 49.84 21 46.24 26.1 45.5 28.38 40.88 30.67 45.5 35.77 46.24 32.08 49.84 32.95 54.92 28.38 52.52" style="fill:none;stroke:#666;stroke-linecap:round;stroke-linejoin:round;stroke-width:2px"/></svg>