<svg id="Layer_3" data-name="Layer 3" xmlns="http://www.w3.org/2000/svg" viewBox="0 0 64.7 64.7"><title>pencil</title><path d="M679.85,212.78l33.39-33.37L702.8,169l-34.53,34.65s-1.58,1.62,1,3.4S679.85,212.78,679.85,212.78Z" transform="translate(-663.34 -154.12)" style="fill:#ffb519"/><rect x="711.99" y="158.45" width="14.77" height="8.25" rx="1" ry="1" transform="translate(-337.68 -615.17) rotate(45)" style="fill:#f08800"/><polyline points="13.03 62.1 0.86 63.84 2.6 51.68" style="fill:none;stroke:#666;stroke-linecap:round;stroke-linejoin:round;stroke-width:1.72732973098755px"/><polyline points="2.61 51.64 39.67 14.59 50.11 25.04 13.15 62" style="fill:none;stroke:#666;stroke-linecap:round;stroke-linejoin:round;stroke-width:1.72732973098755px"/><rect x="712.07" y="158.58" width="14.77" height="8.25" rx="1" ry="1" transform="translate(-337.57 -615.2) rotate(45)" style="fill:none;stroke:#666;stroke-linecap:round;stroke-linejoin:round;stroke-width:1.72732973098755px"/><line x1="42.48" y1="11.44" x2="53.26" y2="22.23" style="fill:none;stroke:#666;stroke-linecap:round;stroke-linejoin:round;stroke-width:1.72732973098755px"/><line x1="44.89" y1="9.03" x2="55.67" y2="19.81" style="fill:none;stroke:#666;stroke-linecap:round;stroke-linejoin:round;stroke-width:1.72732973098755px"/><path d="M668,203.85c1.6,6.52,7.32,3.17,11.11,8.55" transform="translate(-663.34 -154.12)" style="fill:none;stroke:#666;stroke-linecap:round;stroke-linejoin:round;stroke-width:1.72732973098755px"/></svg>