<svg id="Layer_1" data-name="Layer 1" xmlns="http://www.w3.org/2000/svg" xmlns:xlink="http://www.w3.org/1999/xlink" viewBox="0 0 85.32 61.93"><defs><clipPath id="clip-path" transform="translate(-3969.49 -10073.07)"><rect x="3977.8" y="10074.07" width="70.16" height="39.39" style="fill:none;stroke:#666;stroke-linecap:round;stroke-linejoin:round;stroke-width:2px"/></clipPath></defs><title>privacy</title><g style="clip-path:url(#clip-path)"><rect x="8.31" y="1" width="70.16" height="42.39" style="fill:none;stroke:#666;stroke-linecap:round;stroke-linejoin:round;stroke-width:2px"/></g><rect x="8.31" y="1" width="70.16" height="39.39" style="fill:none;stroke:#666;stroke-linecap:round;stroke-linejoin:round;stroke-width:2px"/><g style="opacity:0.43"><polygon points="8.31 40.47 78.47 40.47 84.32 60.93 1 60.93 8.31 40.47" style="fill:#929292;fill-rule:evenodd"/><polygon points="8.31 40.47 78.47 40.47 84.32 60.93 1 60.93 8.31 40.47" style="fill:none;stroke:#666;stroke-linecap:round;stroke-linejoin:round;stroke-width:2px;fill-rule:evenodd"/></g><polygon points="8.31 40.47 78.47 40.47 84.32 60.93 1 60.93 8.31 40.47" style="fill:none;stroke:#666;stroke-linecap:round;stroke-linejoin:round;stroke-width:2px;fill-rule:evenodd"/><line x1="31.7" y1="55.08" x2="53.62" y2="55.08" style="fill:none;stroke:#666;stroke-linecap:round;stroke-linejoin:round;stroke-width:2px"/><line x1="59.47" y1="55.08" x2="63.85" y2="55.08" style="fill:none;stroke:#666;stroke-linecap:round;stroke-linejoin:round;stroke-width:2px"/><line x1="21.46" y1="55.08" x2="25.85" y2="55.08" style="fill:none;stroke:#666;stroke-linecap:round;stroke-linejoin:round;stroke-width:2px"/><path d="M4020.15,10088.21a7.58,7.58,0,0,0-15.17,0v17.69h15.17v-17.69q0,0.11,0,.22v-0.24Zm-2.7,3.66h-9.76v-3.27a4.47,4.47,0,0,1,4.46-4.46H4013a4.47,4.47,0,0,1,4.46,4.46v3.27Z" transform="translate(-3969.49 -10073.07)" style="fill:#ffb11c;stroke:#666;stroke-linecap:round;stroke-linejoin:round;stroke-width:2px"/><path d="M4020.15,10088.21h0v0Z" transform="translate(-3969.49 -10073.07)" style="fill:#ffb11c;stroke:#666;stroke-linecap:round;stroke-linejoin:round;stroke-width:2px"/></svg>