<svg id="Layer_1" data-name="Layer 1" xmlns="http://www.w3.org/2000/svg" viewBox="0 0 80.54 79"><title>recirc</title><circle cx="40.09" cy="43.45" r="13.43" style="fill:#f89f42;stroke:#666;stroke-miterlimit:10;stroke-width:2px"/><path d="M8556.57,5928.4a34.51,34.51,0,0,1-55.85-21" transform="translate(-8494.11 -5858.18)" style="fill:none;stroke:#666;stroke-linecap:round;stroke-linejoin:round;stroke-width:2px"/><path d="M8548.57,5870.06a34.51,34.51,0,0,1,14.31,51.59" transform="translate(-8494.11 -5858.18)" style="fill:none;stroke:#666;stroke-linecap:round;stroke-linejoin:round;stroke-width:2px"/><path d="M8500.42,5898.16a34.53,34.53,0,0,1,39.2-30.64" transform="translate(-8494.11 -5858.18)" style="fill:none;stroke:#666;stroke-linecap:round;stroke-linejoin:round;stroke-width:2px"/><polyline points="38.04 1 46.02 9.37 37.65 17.35" style="fill:none;stroke:#666;stroke-linecap:round;stroke-linejoin:round;stroke-width:2px"/><polyline points="79.54 60.81 68.41 63.95 65.27 52.82" style="fill:none;stroke:#666;stroke-linecap:round;stroke-linejoin:round;stroke-width:2px"/><polyline points="1 59.01 6.51 48.84 16.68 54.35" style="fill:none;stroke:#666;stroke-linecap:round;stroke-linejoin:round;stroke-width:2px"/><line x1="40.09" y1="36.45" x2="40.09" y2="50.45" style="fill:none;stroke:#666;stroke-linecap:round;stroke-linejoin:round;stroke-width:2px"/><line x1="33.09" y1="43.45" x2="47.09" y2="43.45" style="fill:none;stroke:#666;stroke-linecap:round;stroke-linejoin:round;stroke-width:2px"/></svg>