<svg id="Layer_1" data-name="Layer 1" xmlns="http://www.w3.org/2000/svg" viewBox="0 0 63.97 79.5"><title>reporting</title><polygon points="49.96 40.34 49.96 78.5 1 78.5 1 40.34 1 12.26 37 12.26 49.96 25.22 49.96 40.34" style="fill:none;stroke:#666;stroke-linecap:round;stroke-linejoin:round;stroke-width:2px"/><polygon points="37 25.22 49.96 25.22 37 12.26 37 25.22" style="fill:#e68400;stroke:#666;stroke-linecap:round;stroke-linejoin:round;stroke-width:2px"/><polyline points="14.01 11.76 14.01 1 62.97 1 62.97 67.24 50.2 67.24" style="fill:none;stroke:#666;stroke-linecap:round;stroke-linejoin:round;stroke-width:2px"/><line x1="20.36" y1="31.95" x2="40.29" y2="31.95" style="fill:none;stroke:#666;stroke-linecap:round;stroke-linejoin:round;stroke-width:2px"/><line x1="20.36" y1="47.95" x2="40.29" y2="47.95" style="fill:none;stroke:#666;stroke-linecap:round;stroke-linejoin:round;stroke-width:2px"/><line x1="20.36" y1="63.95" x2="40.29" y2="63.95" style="fill:none;stroke:#666;stroke-linecap:round;stroke-linejoin:round;stroke-width:2px"/><circle cx="12.2" cy="31.31" r="3" style="fill:none;stroke:#666;stroke-miterlimit:10;stroke-width:2px"/><circle cx="12.2" cy="47.75" r="3" style="fill:none;stroke:#666;stroke-miterlimit:10;stroke-width:2px"/><circle cx="12.2" cy="64.2" r="3" style="fill:none;stroke:#666;stroke-miterlimit:10;stroke-width:2px"/><line x1="43.12" y1="18.45" x2="55.04" y2="18.45" style="fill:none;stroke:#666;stroke-linecap:round;stroke-linejoin:round;stroke-width:2px"/><line x1="50.12" y1="34.45" x2="55.04" y2="34.45" style="fill:none;stroke:#666;stroke-linecap:round;stroke-linejoin:round;stroke-width:2px"/><line x1="50.12" y1="50.45" x2="55.04" y2="50.45" style="fill:none;stroke:#666;stroke-linecap:round;stroke-linejoin:round;stroke-width:2px"/></svg>