<svg id="Layer_1" data-name="Layer 1" xmlns="http://www.w3.org/2000/svg" viewBox="0 0 101.62 59.47"><title>securitycloud</title><path d="M2149.62,11189a19.16,19.16,0,1,1,0-38.31h0.23a22.54,22.54,0,0,1,42.9-5.73,24,24,0,1,1,13.49,44h-56.61Z" transform="translate(-2129.34 -11130.54)" style="fill:#80cfdc"/><path d="M2146.9,11155.88a11.89,11.89,0,0,0-11.89,11.89" transform="translate(-2129.34 -11130.54)" style="fill:none;stroke:#666;stroke-linecap:round;stroke-linejoin:round;stroke-width:2px"/><path d="M2182.45,11166.08a6,6,0,1,0-5.44,0v9.35h5.44v-9.35Z" transform="translate(-2129.34 -11130.54)" style="fill:#fff;stroke:#666;stroke-linecap:round;stroke-linejoin:round;stroke-width:2px"/><path d="M2149.62,11189a19.16,19.16,0,1,1,0-38.31h0.23a22.54,22.54,0,0,1,42.9-5.73,24,24,0,1,1,13.49,44h-56.61Z" transform="translate(-2129.34 -11130.54)" style="fill:none;stroke:#666;stroke-linecap:round;stroke-linejoin:round;stroke-width:2px"/></svg>