<svg id="Layer_1" data-name="Layer 1" xmlns="http://www.w3.org/2000/svg" viewBox="0 0 15.97 15.62"><title>share-lin</title><path d="M5390.47,11856.23v-11.28H5393v11.28h-2.54Zm1.21-12.62a1.5,1.5,0,1,1,1.62-1.5A1.49,1.49,0,0,1,5391.68,11843.61Zm11.51,6.85a2.4,2.4,0,0,0-2.26-2.47c-0.91,0-1.72,0-2.25,1.15a3.93,3.93,0,0,0-.21,1.14v5.95h-2.89v-11.28h3l0.15,1.47h0.06a3.56,3.56,0,0,1,3.2-1.47c2.17,0,4.11,1.72,4.11,4.86v6.42h-2.91v-5.77Z" transform="translate(-5390.13 -11840.61)" style="fill:#fff"/></svg>