<svg id="Layer_1" data-name="Layer 1" xmlns="http://www.w3.org/2000/svg" viewBox="0 0 19.78 16.24"><title>share-tw</title><path d="M5357.39,11842.83a5.68,5.68,0,0,0,2.22-.61s-0.15.56-2.06,2.31c0,0,.64,9.48-9.15,11.8,0,0-5,1.08-8.57-1.67,0,0,3.77.68,5.89-1.7a3.86,3.86,0,0,1-3.6-2.8,3.23,3.23,0,0,0,1.65-.06,4,4,0,0,1-3-4.08,2.57,2.57,0,0,0,1.59.51s-2.79-2.41-1.06-5.41c0,0,3.74,4.49,8.37,4.22a4.12,4.12,0,0,1-.12-1,4,4,0,0,1,4-4,3.94,3.94,0,0,1,2.84,1.21,4.51,4.51,0,0,0,2.71-.88S5359.09,11841.5,5357.39,11842.83Z" transform="translate(-5339.83 -11840.3)" style="fill:#fff"/></svg>