<svg id="Layer_1" data-name="Layer 1" xmlns="http://www.w3.org/2000/svg" viewBox="0 0 87.71 82.03"><title>terms</title><polyline points="49 59.94 49 73 1 73 1 1 49 1 49 18.98" style="fill:none;stroke:#666;stroke-linecap:round;stroke-linejoin:round;stroke-width:2px"/><circle cx="44.2" cy="39.4" r="20.8" style="fill:#80cfdc;stroke:#666;stroke-linecap:round;stroke-linejoin:round;stroke-width:2px"/><line x1="60.2" y1="54.52" x2="86.71" y2="81.03" style="fill:none;stroke:#666;stroke-linecap:round;stroke-linejoin:round;stroke-width:2px"/><line x1="12.2" y1="12.2" x2="37.8" y2="12.2" style="fill:none;stroke:#666;stroke-linecap:round;stroke-linejoin:round;stroke-width:2px"/><line x1="12.2" y1="23.4" x2="29.87" y2="23.4" style="fill:none;stroke:#666;stroke-linecap:round;stroke-linejoin:round;stroke-width:2px"/><line x1="12.2" y1="58.6" x2="34.6" y2="58.6" style="fill:none;stroke:#666;stroke-linecap:round;stroke-linejoin:round;stroke-width:2px"/><line x1="12.2" y1="34.6" x2="23.4" y2="34.6" style="fill:none;stroke:#666;stroke-linecap:round;stroke-linejoin:round;stroke-width:2px"/><line x1="12.2" y1="47.4" x2="23.4" y2="47.4" style="fill:none;stroke:#666;stroke-linecap:round;stroke-linejoin:round;stroke-width:2px"/><path d="M712.88,11157.9a7.58,7.58,0,0,0-15.17,0v17.69h15.17v-17.69q0,0.11,0,.22v-0.24Zm-2.7,3.66h-9.76v-3.27a4.47,4.47,0,0,1,4.46-4.46h0.84a4.47,4.47,0,0,1,4.46,4.46v3.27Z" transform="translate(-661.15 -11124.76)" style="fill:#ffb11c;stroke:#666;stroke-linecap:round;stroke-linejoin:round;stroke-width:2px"/><path d="M712.88,11157.9v0Z" transform="translate(-661.15 -11124.76)" style="fill:#ffb11c;stroke:#666;stroke-linecap:round;stroke-linejoin:round;stroke-width:2px"/></svg>