<svg id="Layer_1" data-name="Layer 1" xmlns="http://www.w3.org/2000/svg" viewBox="0 0 19.16 19.16"><title>TW</title><rect width="19.16" height="19.16" rx="3" ry="3" style="fill:#80cfdc"/><path d="M12100,8023.83a4,4,0,0,0,1.55-.42,5.38,5.38,0,0,1-1.44,1.61,8,8,0,0,1-6.37,8.22s-3.46.75-6-1.16c0,0,2.62.47,4.1-1.18a2.69,2.69,0,0,1-2.51-2,2.25,2.25,0,0,0,1.15,0,2.78,2.78,0,0,1-2.12-2.84,1.79,1.79,0,0,0,1.11.36,3.08,3.08,0,0,1-.74-3.77s2.6,3.13,5.83,2.94a2.87,2.87,0,0,1-.09-0.7,2.79,2.79,0,0,1,2.77-2.81,2.75,2.75,0,0,1,2,.84,3.14,3.14,0,0,0,1.89-.61S12101.19,8022.9,12100,8023.83Z" transform="translate(-12085.24 -8017.78)" style="fill:#fff"/></svg>