<svg id="Layer_1" data-name="Layer 1" xmlns="http://www.w3.org/2000/svg" viewBox="0 0 39.73 51.73"><title>whitepaper</title><polyline points="4.86 4.86 4.86 0.86 38.86 0.86 38.86 46.86 34.86 46.86" style="fill:#80cfdc"/><polyline points="4.86 4.86 4.86 0.86 38.86 0.86 38.86 46.86 34.86 46.86" style="fill:none;stroke:#646569;stroke-linecap:round;stroke-linejoin:round;stroke-width:1.72732973098755px"/><polygon points="34.86 24.36 34.86 50.86 0.86 50.86 0.86 24.36 0.86 4.86 25.86 4.86 34.86 13.86 34.86 24.36" style="fill:#fff;stroke:#646569;stroke-linecap:round;stroke-linejoin:round;stroke-width:1.72732973098755px"/><polygon points="25.86 13.86 34.86 13.86 25.86 4.86 25.86 13.86" style="fill:none;stroke:#646569;stroke-linecap:round;stroke-linejoin:round;stroke-width:1.72732973098755px"/><line x1="7.34" y1="13.68" x2="21.09" y2="13.68" style="fill:none;stroke:#646569;stroke-linecap:round;stroke-linejoin:round;stroke-width:1.72732973098755px"/><line x1="7.34" y1="21.43" x2="28.09" y2="21.43" style="fill:none;stroke:#646569;stroke-linecap:round;stroke-linejoin:round;stroke-width:1.72732973098755px"/><line x1="7.34" y1="29.18" x2="28.09" y2="29.18" style="fill:none;stroke:#646569;stroke-linecap:round;stroke-linejoin:round;stroke-width:1.72732973098755px"/><line x1="7.34" y1="36.93" x2="28.09" y2="36.93" style="fill:none;stroke:#646569;stroke-linecap:round;stroke-linejoin:round;stroke-width:1.72732973098755px"/><line x1="7.34" y1="44.68" x2="28.09" y2="44.68" style="fill:none;stroke:#646569;stroke-linecap:round;stroke-linejoin:round;stroke-width:1.72732973098755px"/></svg>