<svg style="display: none;" viewBox="0 0 100 100" xmlns="http://www.w3.org/2000/svg"><defs><clipPath id="laptoplock-clip-path" transform="translate(-2435.56 -7549.91)"><rect x="2443.87" y="7550.91" width="70.16" height="39.39" style="fill:none;stroke:#666;stroke-linecap:round;stroke-linejoin:round;stroke-width:2px"/></clipPath><clipPath id="laptoplock-clip-path-2" transform="translate(-2435.56 -7549.91)"><polygon points="2443.87 7590.38 2514.03 7590.38 2519.88 7610.84 2436.56 7610.84 2443.87 7590.38" style="fill:#87878a;stroke:#666;stroke-linecap:round;stroke-linejoin:round;stroke-width:2px;clip-rule:evenodd"/></clipPath><clipPath id="laptoplock-clip-path-3" transform="translate(-2435.56 -7549.91)"><polygon points="2443.87 7590.38 2514.03 7590.38 2519.88 7610.84 2436.56 7610.84 2443.87 7590.38" style="fill:none;stroke:#666;stroke-linecap:round;stroke-linejoin:round;stroke-width:2px;clip-rule:evenodd"/></clipPath><clipPath id="privacy-clip-path" transform="translate(-3969.49 -10073.07)"><rect x="3977.8" y="10074.07" width="70.16" height="39.39" style="fill:none;stroke:#666;stroke-linecap:round;stroke-linejoin:round;stroke-width:2px"/></clipPath></defs><symbol viewBox="0 0 70 72.75" id="icon-JMP-RopeGraphic"><title>JMP_WebDesign_Final</title><path d="M3828.24,8970.3a31.87,31.87,0,0,0-11.59-21.82,36.67,36.67,0,0,0-23.28-8.13,34.42,34.42,0,0,0-24.9,10.48,36.23,36.23,0,0,0-7.76,37.9,1.67,1.67,0,0,0-.06,1.55l-0.17.1a1.27,1.27,0,0,0-.49,1.71s4.18,5,5.3,6.77,7.59,13.73,7.59,13.73a1.27,1.27,0,0,0,1.75.3l0,0c0.25,0.35,1.64-.12,3.13-1.06s2.51-2,2.31-2.36l0,0a1.27,1.27,0,0,0,.49-1.71s-8-11.11-9.15-12.89-3.73-7.6-3.73-7.6a1.27,1.27,0,0,0-1.75-.3l-0.17.1a1.67,1.67,0,0,0-1.33-.62,31.91,31.91,0,0,1,7.1-32.56,30.13,30.13,0,0,1,21.79-9.17,32.33,32.33,0,0,1,20.53,7.15,27.21,27.21,0,0,1,10,18.87c0.86,9.21-3,18-10.08,23-7.87,5.56-18.82,5.39-26-.4-5.47-4.38-8.53-12.46-7.28-19.2a12.63,12.63,0,0,1,9.08-10.19,11.21,11.21,0,0,1,8.82.76,11.47,11.47,0,0,1,4.27,4.1,1.81,1.81,0,0,0-.07.25h-0.2a1.21,1.21,0,0,0-1.2,1.2s0.15,3.16-.68,4.66c-1.56,2.82-2.3,1.95-2.3,3.8V8979a0.74,0.74,0,0,0,.86.78h2.28v3.62l0.12,0.76,0.08,0.49a1,1,0,0,0,.19.57,0.58,0.58,0,0,0,.41.18h0.8a0.58,0.58,0,0,0,.43-0.19,0.72,0.72,0,0,0,.15-0.38l0-.11c0.08-.43.13-0.87,0.2-1.31v-3.62h3.12v3.62c0.07,0.44.12,0.87,0.2,1.31l0,0.11a0.72,0.72,0,0,0,.15.38,0.58,0.58,0,0,0,.43.19h0.8a0.58,0.58,0,0,0,.41-0.18,1,1,0,0,0,.19-0.57l0.08-.49,0.12-.76v-3.62h2.28a0.74,0.74,0,0,0,.86-0.78v-0.25c0-1.85-.75-1-2.3-3.8-0.83-1.5-.68-4.66-0.68-4.66a1.21,1.21,0,0,0-1.2-1.2h-0.2a1.86,1.86,0,0,0-1-1.3,16,16,0,0,0-6.57-6.85,15.49,15.49,0,0,0-12.2-1.08,16.93,16.93,0,0,0-12,13.53,24.54,24.54,0,0,0,24.66,28.75,26.77,26.77,0,0,0,15.41-4.83C3824.68,8991.39,3829.24,8981.05,3828.24,8970.3Z" transform="translate(-3758.38 -8940.35)" style="fill:#fff"/></symbol><symbol viewBox="0 0 19.16 19.16" id="icon-LIN"><title>LIN</title><rect width="19.16" height="19.16" rx="3" ry="3" style="fill:#80cfdc"/><path d="M11973.08,8033.77v-9.1h2v9.1h-2Zm1-10.18a1.21,1.21,0,1,1,1.3-1.21A1.2,1.2,0,0,1,11974.05,8023.59Zm9.28,5.53a1.94,1.94,0,0,0-1.82-2,1.61,1.61,0,0,0-1.81.93,3.17,3.17,0,0,0-.17.92v4.8h-2.33v-9.1h2.42l0.12,1.19h0.05a2.87,2.87,0,0,1,2.58-1.19c1.75,0,3.31,1.38,3.31,3.92v5.18h-2.34v-4.65Z" transform="translate(-11969.66 -8017.89)" style="fill:#fff"/></symbol><symbol viewBox="0 0 12.44 10.27" id="icon-LiCheck"><title>LiCheck</title><path d="M9084.18,7517.77h0a1,1,0,0,1-.74-0.33l-2.83-3.17a1,1,0,0,1,1.49-1.33l2.09,2.35,6.86-7.45a1,1,0,1,1,1.47,1.36l-7.61,8.27A1,1,0,0,1,9084.18,7517.77Z" transform="translate(-9080.35 -7507.5)" style="fill:#929292"/></symbol><symbol viewBox="0 0 19.16 19.16" id="icon-TW"><title>TW</title><rect width="19.16" height="19.16" rx="3" ry="3" style="fill:#80cfdc"/><path d="M12100,8023.83a4,4,0,0,0,1.55-.42,5.38,5.38,0,0,1-1.44,1.61,8,8,0,0,1-6.37,8.22s-3.46.75-6-1.16c0,0,2.62.47,4.1-1.18a2.69,2.69,0,0,1-2.51-2,2.25,2.25,0,0,0,1.15,0,2.78,2.78,0,0,1-2.12-2.84,1.79,1.79,0,0,0,1.11.36,3.08,3.08,0,0,1-.74-3.77s2.6,3.13,5.83,2.94a2.87,2.87,0,0,1-.09-0.7,2.79,2.79,0,0,1,2.77-2.81,2.75,2.75,0,0,1,2,.84,3.14,3.14,0,0,0,1.89-.61S12101.19,8022.9,12100,8023.83Z" transform="translate(-12085.24 -8017.78)" style="fill:#fff"/></symbol><symbol viewBox="0 0 72.96 89.41" id="icon-bulb"><title>bulb</title><polygon points="29.4 83.2 33.52 88.41 38.85 88.41 43.54 81.62 29.4 83.2" style="fill:#ffb11c"/><path d="M12141.93,5805.88l0.6-.15c3.25-1.16,2.38-5.86,2.45-8.63a19.92,19.92,0,0,1,3-9.09s6.06-9.92,6.06-16.25c0-16.94-15.05-20.11-20-20.11s-20.09,3.44-20.09,20.11c0,6.34,6.06,16.25,6.06,16.25s2.86,9.55,3,14.23a5.15,5.15,0,0,0,4.68,5.1A116,116,0,0,0,12141.93,5805.88Z" transform="translate(-12097.68 -5731.14)" style="fill:#ffb519"/><path d="M12141.93,5805.88l0.6-.15c3.25-1.16,2.38-5.86,2.45-8.63a19.92,19.92,0,0,1,3-9.09s6.06-9.92,6.06-16.25c0-16.94-15.05-20.11-20-20.11s-20.09,3.44-20.09,20.11c0,6.34,6.06,16.25,6.06,16.25s2.86,9.55,3,14.23a5.15,5.15,0,0,0,4.68,5.1A116,116,0,0,0,12141.93,5805.88Z" transform="translate(-12097.68 -5731.14)" style="fill:none;stroke:#fff;stroke-linecap:round;stroke-linejoin:round;stroke-width:2px"/><path d="M12125.57,5810.52a79,79,0,0,0,16.9-1.47" transform="translate(-12097.68 -5731.14)" style="fill:none;stroke:#fff;stroke-linecap:round;stroke-linejoin:round;stroke-width:2px"/><path d="M12125.57,5813.77a79,79,0,0,0,16.9-1.47" transform="translate(-12097.68 -5731.14)" style="fill:none;stroke:#fff;stroke-linecap:round;stroke-linejoin:round;stroke-width:2px"/><polyline points="29.4 83.2 33.52 88.41 38.85 88.41 43.54 81.62" style="fill:none;stroke:#fff;stroke-linecap:round;stroke-linejoin:round;stroke-width:2px"/><polyline points="34.12 72.28 34.12 57.95 28.06 41.7" style="fill:none;stroke:#fff;stroke-linecap:round;stroke-linejoin:round;stroke-width:2px"/><polyline points="38.56 72.28 38.56 57.95 44.62 41.7" style="fill:none;stroke:#fff;stroke-linecap:round;stroke-linejoin:round;stroke-width:2px"/><line x1="36.34" y1="12.42" x2="36.34" y2="1" style="fill:none;stroke:#fff;stroke-linecap:round;stroke-linejoin:round;stroke-width:2px"/><line x1="51.51" y1="16.2" x2="57.81" y2="6.67" style="fill:none;stroke:#fff;stroke-linecap:round;stroke-linejoin:round;stroke-width:2px"/><line x1="61.45" y1="28.67" x2="71.96" y2="24.2" style="fill:none;stroke:#fff;stroke-linecap:round;stroke-linejoin:round;stroke-width:2px"/><line x1="21.44" y1="16.2" x2="15.15" y2="6.67" style="fill:none;stroke:#fff;stroke-linecap:round;stroke-linejoin:round;stroke-width:2px"/><line x1="11.5" y1="28.67" x2="1" y2="24.2" style="fill:none;stroke:#fff;stroke-linecap:round;stroke-linejoin:round;stroke-width:2px"/></symbol><symbol viewBox="0 0 91.86 73.78" id="icon-calculatorcloud"><title>calculatorcloud</title><path d="M8916.51,7136.23a17.7,17.7,0,0,0-2.28.17,22.9,22.9,0,0,0-22.86-21.63c-10,0-17.58,7.26-20.72,16.17a23.46,23.46,0,0,0-3.89-1.36c-12-2.26-22.89,9-22.89,20.45a20.64,20.64,0,0,0,20.65,20.65h3.15v7.85a8,8,0,0,0,8,8H8902a8,8,0,0,0,7.94-8v-7.85h6.58A17.22,17.22,0,1,0,8916.51,7136.23Z" transform="translate(-8842.88 -7113.76)" style="fill:#00a9c5;opacity:0.5"/><path d="M8916.51,7136.23a17.7,17.7,0,0,0-2.28.17,22.9,22.9,0,0,0-22.86-21.63c-10,0-17.58,7.26-20.72,16.17a23.46,23.46,0,0,0-3.89-1.36c-12-2.26-22.89,9-22.89,20.45a20.64,20.64,0,0,0,20.65,20.65h3.15v7.85a8,8,0,0,0,8,8H8902a8,8,0,0,0,7.94-8v-7.85h6.58A17.22,17.22,0,1,0,8916.51,7136.23Z" transform="translate(-8842.88 -7113.76)" style="fill:none;stroke:#666;stroke-linecap:round;stroke-linejoin:round;stroke-width:2px"/><path d="M8906.67,7178.51a4.74,4.74,0,0,1-4.69,4.76h-26.35a4.74,4.74,0,0,1-4.69-4.76v-37.6a4.73,4.73,0,0,1,4.69-4.77H8902a4.73,4.73,0,0,1,4.69,4.77v37.6Z" transform="translate(-8842.88 -7113.76)" style="fill:#fff"/><path d="M8906.67,7178.51a4.74,4.74,0,0,1-4.69,4.76h-26.35a4.74,4.74,0,0,1-4.69-4.76v-37.6a4.73,4.73,0,0,1,4.69-4.77H8902a4.73,4.73,0,0,1,4.69,4.77v37.6Z" transform="translate(-8842.88 -7113.76)" style="fill:none;stroke:#666;stroke-linecap:round;stroke-linejoin:round;stroke-width:2px"/><path d="M8877,7145.41a1.85,1.85,0,0,1,1.62-2H8899a1.85,1.85,0,0,1,1.62,2v4.13a1.85,1.85,0,0,1-1.62,2h-20.42a1.85,1.85,0,0,1-1.62-2v-4.13Z" transform="translate(-8842.88 -7113.76)" style="fill:#87878a"/><path d="M8877,7145.41a1.85,1.85,0,0,1,1.62-2H8899a1.85,1.85,0,0,1,1.62,2v4.13a1.85,1.85,0,0,1-1.62,2h-20.42a1.85,1.85,0,0,1-1.62-2v-4.13Z" transform="translate(-8842.88 -7113.76)" style="fill:none;stroke:#666;stroke-linecap:round;stroke-linejoin:round;stroke-width:2px"/><path d="M8900.64,7159.27a1.18,1.18,0,0,1-1.17,1.17h-2.94a1.18,1.18,0,0,1-1.18-1.17v-2.94a1.18,1.18,0,0,1,1.18-1.17h2.94a1.17,1.17,0,0,1,1.17,1.17v2.94Z" transform="translate(-8842.88 -7113.76)" style="fill:#ffb519"/><path d="M8891.71,7159.27a1.18,1.18,0,0,1-1.17,1.17h-2.94a1.18,1.18,0,0,1-1.18-1.17v-2.94a1.18,1.18,0,0,1,1.18-1.17h2.94a1.17,1.17,0,0,1,1.17,1.17v2.94Z" transform="translate(-8842.88 -7113.76)" style="fill:#ffb519"/><rect x="34.61" y="41.4" width="5.29" height="5.28" rx="1.17" ry="1.17" style="fill:#ffb519"/><path d="M8900.64,7168.28a1.18,1.18,0,0,1-1.17,1.17h-2.94a1.18,1.18,0,0,1-1.18-1.17v-2.94a1.18,1.18,0,0,1,1.18-1.17h2.94a1.17,1.17,0,0,1,1.17,1.17v2.94Z" transform="translate(-8842.88 -7113.76)" style="fill:#ffb519"/><path d="M8891.71,7168.28a1.18,1.18,0,0,1-1.17,1.17h-2.94a1.18,1.18,0,0,1-1.18-1.17v-2.94a1.18,1.18,0,0,1,1.18-1.17h2.94a1.17,1.17,0,0,1,1.17,1.17v2.94Z" transform="translate(-8842.88 -7113.76)" style="fill:#ffb519"/><rect x="34.61" y="50.41" width="5.29" height="5.28" rx="1.17" ry="1.17" style="fill:#ffb519"/><path d="M8900.64,7177.17a1.18,1.18,0,0,1-1.17,1.17h-2.94a1.18,1.18,0,0,1-1.18-1.17v-2.94a1.18,1.18,0,0,1,1.18-1.17h2.94a1.17,1.17,0,0,1,1.17,1.17v2.94Z" transform="translate(-8842.88 -7113.76)" style="fill:#ffb519"/><path d="M8891.71,7177.17a1.18,1.18,0,0,1-1.17,1.17h-2.94a1.18,1.18,0,0,1-1.18-1.17v-2.94a1.18,1.18,0,0,1,1.18-1.17h2.94a1.17,1.17,0,0,1,1.17,1.17v2.94Z" transform="translate(-8842.88 -7113.76)" style="fill:#ffb519"/><rect x="34.61" y="59.29" width="5.29" height="5.28" rx="1.17" ry="1.17" style="fill:#ffb519"/><path d="M8900.64,7159.27a1.18,1.18,0,0,1-1.17,1.17h-2.94a1.18,1.18,0,0,1-1.18-1.17v-2.94a1.18,1.18,0,0,1,1.18-1.17h2.94a1.17,1.17,0,0,1,1.17,1.17v2.94Z" transform="translate(-8842.88 -7113.76)" style="fill:none;stroke:#666;stroke-linecap:round;stroke-linejoin:round;stroke-width:2px"/><path d="M8891.71,7159.27a1.18,1.18,0,0,1-1.17,1.17h-2.94a1.18,1.18,0,0,1-1.18-1.17v-2.94a1.18,1.18,0,0,1,1.18-1.17h2.94a1.17,1.17,0,0,1,1.17,1.17v2.94Z" transform="translate(-8842.88 -7113.76)" style="fill:none;stroke:#666;stroke-linecap:round;stroke-linejoin:round;stroke-width:2px"/><rect x="34.61" y="41.4" width="5.29" height="5.28" rx="1.17" ry="1.17" style="fill:none;stroke:#666;stroke-linecap:round;stroke-linejoin:round;stroke-width:2px"/><path d="M8900.64,7168.28a1.18,1.18,0,0,1-1.17,1.17h-2.94a1.18,1.18,0,0,1-1.18-1.17v-2.94a1.18,1.18,0,0,1,1.18-1.17h2.94a1.17,1.17,0,0,1,1.17,1.17v2.94Z" transform="translate(-8842.88 -7113.76)" style="fill:none;stroke:#666;stroke-linecap:round;stroke-linejoin:round;stroke-width:2px"/><path d="M8891.71,7168.28a1.18,1.18,0,0,1-1.17,1.17h-2.94a1.18,1.18,0,0,1-1.18-1.17v-2.94a1.18,1.18,0,0,1,1.18-1.17h2.94a1.17,1.17,0,0,1,1.17,1.17v2.94Z" transform="translate(-8842.88 -7113.76)" style="fill:none;stroke:#666;stroke-linecap:round;stroke-linejoin:round;stroke-width:2px"/><rect x="34.61" y="50.41" width="5.29" height="5.28" rx="1.17" ry="1.17" style="fill:none;stroke:#666;stroke-linecap:round;stroke-linejoin:round;stroke-width:2px"/><path d="M8900.64,7177.17a1.18,1.18,0,0,1-1.17,1.17h-2.94a1.18,1.18,0,0,1-1.18-1.17v-2.94a1.18,1.18,0,0,1,1.18-1.17h2.94a1.17,1.17,0,0,1,1.17,1.17v2.94Z" transform="translate(-8842.88 -7113.76)" style="fill:none;stroke:#666;stroke-linecap:round;stroke-linejoin:round;stroke-width:2px"/><path d="M8891.71,7177.17a1.18,1.18,0,0,1-1.17,1.17h-2.94a1.18,1.18,0,0,1-1.18-1.17v-2.94a1.18,1.18,0,0,1,1.18-1.17h2.94a1.17,1.17,0,0,1,1.17,1.17v2.94Z" transform="translate(-8842.88 -7113.76)" style="fill:none;stroke:#666;stroke-linecap:round;stroke-linejoin:round;stroke-width:2px"/><rect x="34.61" y="59.29" width="5.29" height="5.28" rx="1.17" ry="1.17" style="fill:none;stroke:#666;stroke-linecap:round;stroke-linejoin:round;stroke-width:2px"/></symbol><symbol viewBox="0 0 55.49 37.53" id="icon-casestudy"><title>casestudy</title><path d="M9060.86,9920.51h42.47v23.69a3.26,3.26,0,0,1-3.26,3.26h-35.95a3.27,3.27,0,0,1-3.26-3.26v-23.69Z" transform="translate(-9059.86 -9910.93)" style="fill:#ffb11c;opacity:0.7000000000000001"/><polygon points="1 1.41 15.7 1.41 18.97 6.31 1 6.31 1 1.41" style="fill:#ffb11c;stroke:#666;stroke-linecap:round;stroke-linejoin:round;stroke-width:2px;opacity:0.7000000000000001"/><rect x="1" y="6.31" width="42.47" height="3.27" style="fill:#fff;stroke:#666;stroke-linecap:round;stroke-linejoin:round;stroke-width:2px"/><circle cx="42.2" cy="7.89" r="6.89" style="fill:#fff"/><path d="M9060.86,9920.51h42.47v23.69a3.26,3.26,0,0,1-3.26,3.26h-35.95a3.27,3.27,0,0,1-3.26-3.26v-23.69Z" transform="translate(-9059.86 -9910.93)" style="fill:none;stroke:#666;stroke-linecap:round;stroke-linejoin:round;stroke-width:2px"/><polygon points="1 1.41 15.7 1.41 18.97 6.31 1 6.31 1 1.41" style="fill:none;stroke:#666;stroke-linecap:round;stroke-linejoin:round;stroke-width:2px"/><circle cx="42.2" cy="7.89" r="6.89" style="fill:#fff;stroke:#666;stroke-linecap:round;stroke-linejoin:round;stroke-width:2px"/><line x1="47.56" y1="13.25" x2="54.49" y2="20.19" style="fill:none;stroke:#666;stroke-linecap:round;stroke-linejoin:round;stroke-width:2px"/></symbol><symbol viewBox="0 0 39.73 54.67" id="icon-clipboard-white"><title>clipboard-white</title><rect x="0.75" y="4.83" width="38.22" height="49.08" rx="3" ry="3" style="fill:none;stroke:#fff;stroke-linecap:round;stroke-linejoin:round;stroke-width:1.50711178779602px"/><path d="M8376.29,11002.16h-25.68a2.52,2.52,0,0,1-2.51-2.51v-42.58h30.69v42.58A2.52,2.52,0,0,1,8376.29,11002.16Z" transform="translate(-8343.59 -10952.24)" style="fill:none;stroke:#fff;stroke-linecap:round;stroke-linejoin:round;stroke-width:1.50711178779602px"/><rect x="12.39" y="2.44" width="14.96" height="5.84" style="fill:#fff;stroke:#fff;stroke-linecap:round;stroke-linejoin:round;stroke-width:0.752998001738595px"/><circle cx="19.86" cy="3.55" r="3.13" style="fill:#fff;stroke:#fff;stroke-linecap:round;stroke-linejoin:round;stroke-width:0.825177232611971px"/><line x1="17.46" y1="28.88" x2="30.94" y2="28.88" style="fill:none;stroke:#fff;stroke-linecap:round;stroke-linejoin:round;stroke-width:1.50711178779602px"/><polyline points="9.14 28.2 10.74 30.31 14.86 25.29" style="fill:none;stroke:#fff;stroke-linecap:round;stroke-linejoin:round;stroke-width:1.50711178779602px"/><line x1="17.46" y1="18.6" x2="30.94" y2="18.6" style="fill:none;stroke:#fff;stroke-linecap:round;stroke-linejoin:round;stroke-width:1.50711178779602px"/><polyline points="9.14 18.26 10.74 20.37 14.86 15.35" style="fill:none;stroke:#fff;stroke-linecap:round;stroke-linejoin:round;stroke-width:1.50711178779602px"/><line x1="17.46" y1="39.41" x2="30.94" y2="39.41" style="fill:none;stroke:#fff;stroke-linecap:round;stroke-linejoin:round;stroke-width:1.50711178779602px"/><rect x="8.83" y="36.8" width="5.22" height="5.22" rx="1" ry="1" style="fill:none;stroke:#fff;stroke-linecap:round;stroke-linejoin:round;stroke-width:1.50711178779602px"/></symbol><symbol viewBox="0 0 52.72 72.55" id="icon-clipboard"><title>clipboard</title><rect x="1" y="6.42" width="50.72" height="65.13" rx="3" ry="3" style="fill:#f08800"/><rect x="1" y="6.42" width="50.72" height="65.13" rx="3" ry="3" style="fill:none;stroke:#666;stroke-linecap:round;stroke-linejoin:round;stroke-width:2px"/><path d="M5530.15,5512.26h-34.07a3.34,3.34,0,0,1-3.33-3.33v-56.51h40.73v56.51A3.34,3.34,0,0,1,5530.15,5512.26Z" transform="translate(-5486.75 -5446.02)" style="fill:#fff;stroke:#666;stroke-linecap:round;stroke-linejoin:round;stroke-width:2px"/><rect x="16.44" y="3.24" width="19.85" height="7.75" style="fill:#646569;stroke:#666;stroke-linecap:round;stroke-linejoin:round;stroke-width:0.999259653910303px"/><circle cx="26.36" cy="4.71" r="4.16" style="fill:#646569;stroke:#666;stroke-linecap:round;stroke-linejoin:round;stroke-width:1.09504449410312px"/><line x1="23.17" y1="38.32" x2="41.06" y2="38.32" style="fill:none;stroke:#666;stroke-linecap:round;stroke-linejoin:round;stroke-width:2px"/><polyline points="12.12 37.42 14.26 40.22 19.72 33.56" style="fill:none;stroke:#666;stroke-linecap:round;stroke-linejoin:round;stroke-width:2px"/><line x1="23.17" y1="24.68" x2="41.06" y2="24.68" style="fill:none;stroke:#666;stroke-linecap:round;stroke-linejoin:round;stroke-width:2px"/><polyline points="12.12 24.23 14.26 27.03 19.72 20.37" style="fill:none;stroke:#666;stroke-linecap:round;stroke-linejoin:round;stroke-width:2px"/><line x1="23.17" y1="52.3" x2="41.06" y2="52.3" style="fill:none;stroke:#666;stroke-linecap:round;stroke-linejoin:round;stroke-width:2px"/><rect x="11.72" y="48.83" width="6.93" height="6.93" rx="1" ry="1" style="fill:#00a9c5;opacity:0.5"/><rect x="11.72" y="48.83" width="6.93" height="6.93" rx="1" ry="1" style="fill:#00a9c5;opacity:0.5"/><rect x="11.72" y="48.83" width="6.93" height="6.93" rx="1" ry="1" style="fill:none;stroke:#666;stroke-linecap:round;stroke-linejoin:round;stroke-width:2px"/></symbol><symbol viewBox="0 0 76.51 74.31" id="icon-cloud"><title>cloud</title><path d="M9237.53,5591.6a16.57,16.57,0,0,0-21,13.42h-0.17a14.07,14.07,0,1,0,0,28.14h41.3a17.57,17.57,0,0,0,6.7-33.87q0-.55,0-1.12A14.26,14.26,0,0,0,9237.53,5591.6Z" transform="translate(-9201.24 -5559.85)" style="fill:#80cfdc;stroke:#666;stroke-miterlimit:10;stroke-width:2px"/><path d="M9265.1,5581.69a21.56,21.56,0,0,0-30.49.06" transform="translate(-9201.24 -5559.85)" style="fill:none;stroke:#666;stroke-linecap:round;stroke-linejoin:round;stroke-width:2px"/><path d="M9272,5577.64a31.39,31.39,0,0,0-44.39.08" transform="translate(-9201.24 -5559.85)" style="fill:none;stroke:#666;stroke-linecap:round;stroke-linejoin:round;stroke-width:2px"/><path d="M9276.75,5571.94a38,38,0,0,0-53.8.1" transform="translate(-9201.24 -5559.85)" style="fill:none;stroke:#666;stroke-linecap:round;stroke-linejoin:round;stroke-width:2px"/></symbol><symbol viewBox="0 0 98 74.83" id="icon-conversation"><title>conversation</title><path d="M9249,5882.05v-12.5a8.27,8.27,0,0,0-8.27-8.29H9201a8.27,8.27,0,0,0-8.27,8.27v43l11.92-9.93h27.63" transform="translate(-9191.75 -5860.27)" style="fill:none;stroke:#666;stroke-linecap:round;stroke-linejoin:round;stroke-width:2px"/><path d="M9244.39,5924.16h36.09a8.27,8.27,0,0,0,8.27-8.27v-24.83a8.28,8.28,0,0,0-8.27-8.27h-39.73a8.27,8.27,0,0,0-8.27,8.27v43Z" transform="translate(-9191.75 -5860.27)" style="fill:none;stroke:#666;stroke-linecap:round;stroke-linejoin:round;stroke-width:2px"/><circle cx="52.31" cy="44.03" r="3.31" style="fill:#e68400;stroke:#666;stroke-linecap:round;stroke-linejoin:round;stroke-width:2px"/><circle cx="68.86" cy="44.03" r="3.31" style="fill:#e68400;stroke:#666;stroke-linecap:round;stroke-linejoin:round;stroke-width:2px"/><circle cx="85.41" cy="44.03" r="3.31" style="fill:#e68400;stroke:#666;stroke-linecap:round;stroke-linejoin:round;stroke-width:2px"/><circle cx="12.59" cy="22.52" r="3.31" style="fill:#f08800;stroke:#666;stroke-linecap:round;stroke-linejoin:round;stroke-width:2px"/><circle cx="29.14" cy="22.52" r="3.31" style="fill:#f08800;stroke:#666;stroke-linecap:round;stroke-linejoin:round;stroke-width:2px"/></symbol><symbol viewBox="0 0 62.63 53.83" id="icon-deskandchair-white"><title>deskandchair-white</title><rect x="1.62" y="9.35" width="27.7" height="13.18" rx="3" ry="3" style="fill:none;stroke:#fff;stroke-linecap:round;stroke-linejoin:round;stroke-width:2px"/><line x1="34.89" y1="52.83" x2="36.35" y2="52.83" style="fill:none;stroke:#fff;stroke-linecap:round;stroke-linejoin:round;stroke-width:2px"/><line x1="56.22" y1="52.83" x2="57.68" y2="52.83" style="fill:none;stroke:#fff;stroke-linecap:round;stroke-linejoin:round;stroke-width:2px"/><rect x="1" y="5.52" width="28.94" height="3.66" rx="1.32" ry="1.32" style="fill:none;stroke:#fff;stroke-linecap:round;stroke-linejoin:round;stroke-width:2px"/><rect x="33.96" y="25.97" width="24.55" height="3.64" rx="1.32" ry="1.32" style="fill:none;stroke:#fff;stroke-linecap:round;stroke-linejoin:round;stroke-width:2px"/><path d="M7558.5,7866.1v-19.77a2.64,2.64,0,0,1,2.64-2.64h16a2.64,2.64,0,0,1,2.64,2.64v19.77" transform="translate(-7522.81 -7814.06)" style="fill:none;stroke:#fff;stroke-linecap:round;stroke-linejoin:round;stroke-width:2px"/><line x1="2.34" y1="52.83" x2="3.8" y2="52.83" style="fill:none;stroke:#fff;stroke-linecap:round;stroke-linejoin:round;stroke-width:2px"/><line x1="27.19" y1="52.83" x2="28.65" y2="52.83" style="fill:none;stroke:#fff;stroke-linecap:round;stroke-linejoin:round;stroke-width:2px"/><path d="M7525.95,7866.1v-26.81a2.64,2.64,0,0,1,2.64-2.64h19.56a2.64,2.64,0,0,1,2.64,2.64v26.81" transform="translate(-7522.81 -7814.06)" style="fill:none;stroke:#fff;stroke-linecap:round;stroke-linejoin:round;stroke-width:2px"/><line x1="58.65" y1="12.33" x2="56.98" y2="25.85" style="fill:none;stroke:#fff;stroke-linecap:round;stroke-linejoin:round;stroke-width:2px"/><rect x="7576.53" y="7819.05" width="11.35" height="3.41" rx="1.32" ry="1.32" transform="translate(8751.5 -6558.46) rotate(97.05)" style="fill:none;stroke:#fff;stroke-linecap:round;stroke-linejoin:round;stroke-width:2px"/></symbol><symbol viewBox="0 0 85.89 72.61" id="icon-deskandchair"><title>deskandchair</title><rect x="1.87" y="10.85" width="38.72" height="18.42" rx="3" ry="3" style="fill:#ffb519"/><rect x="1.87" y="10.85" width="38.72" height="18.42" rx="3" ry="3" style="fill:none;stroke:#666;stroke-linecap:round;stroke-linejoin:round;stroke-width:2px"/><line x1="48.37" y1="71.61" x2="50.4" y2="71.61" style="fill:none;stroke:#666;stroke-linecap:round;stroke-linejoin:round;stroke-width:2px"/><line x1="78.17" y1="71.61" x2="80.21" y2="71.61" style="fill:none;stroke:#666;stroke-linecap:round;stroke-linejoin:round;stroke-width:2px"/><rect x="1" y="6.92" width="40.45" height="3.69" rx="1.5" ry="1.5" style="fill:#f08800"/><rect x="1" y="6.92" width="40.45" height="3.69" rx="1.5" ry="1.5" style="fill:none;stroke:#666;stroke-linecap:round;stroke-linejoin:round;stroke-width:2px"/><rect x="47.06" y="35.48" width="34.3" height="3.69" rx="1.5" ry="1.5" style="fill:#f08800"/><rect x="47.06" y="35.48" width="34.3" height="3.69" rx="1.5" ry="1.5" style="fill:none;stroke:#666;stroke-linecap:round;stroke-linejoin:round;stroke-width:2px"/><path d="M6021.79,5516.07v-27.63a3.7,3.7,0,0,1,3.69-3.69h22.41a3.7,3.7,0,0,1,3.69,3.69v27.63" transform="translate(-5972.32 -5445.57)" style="fill:none;stroke:#666;stroke-linecap:round;stroke-linejoin:round;stroke-width:2px"/><line x1="2.88" y1="71.61" x2="4.91" y2="71.61" style="fill:none;stroke:#666;stroke-linecap:round;stroke-linejoin:round;stroke-width:2px"/><line x1="37.6" y1="71.61" x2="39.64" y2="71.61" style="fill:none;stroke:#666;stroke-linecap:round;stroke-linejoin:round;stroke-width:2px"/><path d="M5976.3,5516.07V5478.6a3.7,3.7,0,0,1,3.69-3.69h27.33a3.7,3.7,0,0,1,3.69,3.69v37.47" transform="translate(-5972.32 -5445.57)" style="fill:none;stroke:#666;stroke-linecap:round;stroke-linejoin:round;stroke-width:2px"/><line x1="81.22" y1="16.52" x2="78.88" y2="35.42" style="fill:none;stroke:#666;stroke-linecap:round;stroke-linejoin:round;stroke-width:2px"/><rect x="6046.65" y="5452.65" width="15.86" height="3.69" rx="1.5" ry="1.5" transform="translate(6238.53 -5330.53) rotate(97.05)" style="fill:#f08800"/><rect x="6046.65" y="5452.65" width="15.86" height="3.69" rx="1.5" ry="1.5" transform="translate(6238.53 -5330.53) rotate(97.05)" style="fill:none;stroke:#666;stroke-linecap:round;stroke-linejoin:round;stroke-width:2px"/></symbol><symbol viewBox="0 0 77.58 71.02" id="icon-gears"><title>gears</title><polygon points="74.05 27.48 71.19 31.05 66.92 29.55 62.41 31.72 60.92 36 56.35 36 54.86 31.72 50.34 29.55 46.07 31.05 43.22 27.48 45.64 23.64 44.52 18.76 40.68 16.36 41.7 11.9 46.2 11.4 49.33 7.49 48.81 2.98 52.93 1 56.13 4.21 61.13 4.21 64.33 1 68.45 2.98 67.94 7.48 71.06 11.4 75.56 11.9 76.58 16.36 72.74 18.76 71.63 23.64 74.05 27.48" style="fill:#ffb11c"/><polygon points="74.05 27.48 71.19 31.05 66.92 29.55 62.41 31.72 60.92 36 56.35 36 54.86 31.72 50.34 29.55 46.07 31.05 43.22 27.48 45.64 23.64 44.52 18.76 40.68 16.36 41.7 11.9 46.2 11.4 49.33 7.49 48.81 2.98 52.93 1 56.13 4.21 61.13 4.21 64.33 1 68.45 2.98 67.94 7.48 71.06 11.4 75.56 11.9 76.58 16.36 72.74 18.76 71.63 23.64 74.05 27.48" style="fill:none;stroke:#666;stroke-linecap:round;stroke-linejoin:round;stroke-width:2px"/><polygon points="46.38 58.65 42.41 63.47 36.59 61.32 30.38 64.2 28.25 70.02 22 69.92 20.05 64.04 13.93 60.97 8.05 62.93 4.23 57.99 7.62 52.8 6.2 46.1 1 42.73 2.48 36.66 8.66 36.07 13.01 30.78 12.4 24.61 18.07 21.99 22.38 26.45 29.23 26.55 33.67 22.23 39.26 25.03 38.46 31.18 42.64 36.6 48.79 37.38 50.09 43.49 44.79 46.7 43.16 53.35 46.38 58.65" style="fill:#005f80;opacity:0.72"/><polygon points="46.38 58.65 42.41 63.47 36.59 61.32 30.38 64.2 28.25 70.02 22 69.92 20.05 64.04 13.93 60.97 8.05 62.93 4.23 57.99 7.62 52.8 6.2 46.1 1 42.73 2.48 36.66 8.66 36.07 13.01 30.78 12.4 24.61 18.07 21.99 22.38 26.45 29.23 26.55 33.67 22.23 39.26 25.03 38.46 31.18 42.64 36.6 48.79 37.38 50.09 43.49 44.79 46.7 43.16 53.35 46.38 58.65" style="fill:none;stroke:#666;stroke-linecap:round;stroke-linejoin:round;stroke-width:2px"/><circle cx="25.54" cy="46" r="12" style="fill:#fff"/><circle cx="25.54" cy="46" r="12" style="fill:none;stroke:#666;stroke-linecap:round;stroke-linejoin:round;stroke-width:2px"/><circle cx="25.54" cy="46" r="7.29" style="fill:none;stroke:#666;stroke-linecap:round;stroke-linejoin:round;stroke-width:2px"/><circle cx="58.6" cy="18.01" r="8.1" style="fill:#fff"/><circle cx="58.6" cy="18.01" r="8.1" style="fill:none;stroke:#666;stroke-linecap:round;stroke-linejoin:round;stroke-width:2px"/></symbol><symbol viewBox="0 0 50.59 71.67" id="icon-gradebook"><title>gradebook</title><path d="M10513.65,6867.47h30.23s8,1.7,8,11.25v47.11s1.13,5.37-3.71,8l-29.79-4.19-5.63-59.93Z" transform="translate(-10502.24 -6866.73)" style="fill:#ffb11c"/><path d="M10546.21,6934.21c4.68-.78,5.59-4.67,5.59-7.72v-0.28" transform="translate(-10502.24 -6866.73)" style="fill:none;stroke:#666;stroke-linecap:round;stroke-linejoin:round;stroke-width:2px"/><path d="M10551.82,6926v-50a8.23,8.23,0,0,0-8.21-8.21h-30.27l-3.78,3.14" transform="translate(-10502.24 -6866.73)" style="fill:none;stroke:#666;stroke-linecap:round;stroke-linejoin:round;stroke-width:2px"/><path d="M10548.19,6929.19v-50a8.23,8.23,0,0,0-8.21-8.21h-30.27v66.44H10540a8.23,8.23,0,0,0,8.21-8.21v-0.28" transform="translate(-10502.24 -6866.73)" style="fill:none;stroke:#666;stroke-linecap:round;stroke-linejoin:round;stroke-width:2px"/><path d="M10548.19,6929.19v-50a8.23,8.23,0,0,0-8.21-8.21h-30.27v66.44H10540a8.23,8.23,0,0,0,8.21-8.21v-0.28" transform="translate(-10502.24 -6866.73)" style="fill:#fff"/><path d="M10548.19,6929.19v-50a8.23,8.23,0,0,0-8.21-8.21h-30.27v66.44H10540a8.23,8.23,0,0,0,8.21-8.21v-0.28" transform="translate(-10502.24 -6866.73)" style="fill:#ffb11c"/><path d="M10548.19,6929.19v-50a8.23,8.23,0,0,0-8.21-8.21h-30.27v66.44H10540a8.23,8.23,0,0,0,8.21-8.21v-0.28" transform="translate(-10502.24 -6866.73)" style="fill:none;stroke:#666;stroke-linecap:round;stroke-linejoin:round;stroke-width:2px"/><rect x="16.93" y="20.05" width="19.29" height="11.2" rx="4.79" ry="4.79" style="fill:#fff"/><rect x="16.93" y="20.05" width="19.29" height="11.2" rx="4.79" ry="4.79" style="fill:none;stroke:#666;stroke-linecap:round;stroke-linejoin:round;stroke-width:2px"/><path d="M10512.54,6884.76a8,8,0,0,1-4.23,1c-2.8,0-5.07-1-5.07-2.27s2.27-2.27,5.07-2.27a11.07,11.07,0,0,1,1.36.08" transform="translate(-10502.24 -6866.73)" style="fill:none;stroke:#666;stroke-linecap:round;stroke-linejoin:round;stroke-width:2px"/><path d="M10512.54,6881.49a8,8,0,0,1-4.23,1c-2.8,0-5.07-1-5.07-2.27s2.27-2.27,5.07-2.27a11.07,11.07,0,0,1,1.36.08" transform="translate(-10502.24 -6866.73)" style="fill:none;stroke:#666;stroke-linecap:round;stroke-linejoin:round;stroke-width:2px"/><path d="M10512.54,6906.83a8,8,0,0,1-4.23,1c-2.8,0-5.07-1-5.07-2.27s2.27-2.27,5.07-2.27a11.07,11.07,0,0,1,1.36.08" transform="translate(-10502.24 -6866.73)" style="fill:none;stroke:#666;stroke-linecap:round;stroke-linejoin:round;stroke-width:2px"/><path d="M10512.54,6903.55a8,8,0,0,1-4.23,1c-2.8,0-5.07-1-5.07-2.27s2.27-2.27,5.07-2.27a11.07,11.07,0,0,1,1.36.08" transform="translate(-10502.24 -6866.73)" style="fill:none;stroke:#666;stroke-linecap:round;stroke-linejoin:round;stroke-width:2px"/><path d="M10512.54,6929.3a8,8,0,0,1-4.23,1c-2.8,0-5.07-1-5.07-2.27s2.27-2.27,5.07-2.27a11.07,11.07,0,0,1,1.36.08" transform="translate(-10502.24 -6866.73)" style="fill:none;stroke:#666;stroke-linecap:round;stroke-linejoin:round;stroke-width:2px"/><path d="M10512.54,6926a8,8,0,0,1-4.23,1c-2.8,0-5.07-1-5.07-2.27s2.27-2.27,5.07-2.27a11.07,11.07,0,0,1,1.36.08" transform="translate(-10502.24 -6866.73)" style="fill:none;stroke:#666;stroke-linecap:round;stroke-linejoin:round;stroke-width:2px"/></symbol><symbol viewBox="0 0 74.46 70.82" id="icon-implements"><title>implements</title><rect x="58.03" y="0.8" width="12.6" height="11.5" style="fill:#87878a"/><rect x="58.2" y="12.63" width="12.09" height="44.33" style="fill:#f08800"/><path d="M8865.21,8814.77v-39.4h-12.43l0.07,40.83s0,1.89,2.61,1.43S8865.21,8814.77,8865.21,8814.77Z" transform="translate(-8851.56 -8757.24)" style="fill:#ffb519"/><rect x="1.08" y="1.13" width="12.43" height="6.89" rx="1" ry="1" style="fill:#f08800"/><polyline points="13.62 61.61 7.42 69.81 1.22 61.61" style="fill:none;stroke:#666;stroke-linecap:round;stroke-linejoin:round;stroke-width:2.00777292251587px"/><polyline points="1.21 61.58 1.21 17.85 13.63 17.85 13.63 61.48" style="fill:none;stroke:#666;stroke-linecap:round;stroke-linejoin:round;stroke-width:2.00777292251587px"/><rect x="1.21" y="1.15" width="12.43" height="6.89" rx="1" ry="1" style="fill:none;stroke:#666;stroke-linecap:round;stroke-linejoin:round;stroke-width:2.00777292251587px"/><line x1="1" y1="14.33" x2="13.83" y2="14.33" style="fill:none;stroke:#666;stroke-linecap:round;stroke-linejoin:round;stroke-width:2.00777292251587px"/><line x1="1" y1="11.48" x2="13.83" y2="11.48" style="fill:none;stroke:#666;stroke-linecap:round;stroke-linejoin:round;stroke-width:2.00777292251587px"/><path d="M8852.84,8816.49c4.83,2.9,6.24-2.45,11.69-1.51" transform="translate(-8851.56 -8757.24)" style="fill:none;stroke:#666;stroke-linecap:round;stroke-linejoin:round;stroke-width:2.00777292251587px"/><polyline points="70.42 58.6 64.22 69.81 58.02 58.6" style="fill:none;stroke:#666;stroke-linecap:round;stroke-linejoin:round;stroke-width:2.00777292251587px"/><path d="M8922,8815.72V8759.4a1,1,0,0,0-1-1h-10.41a1,1,0,0,0-1,1v56.43" transform="translate(-8851.56 -8757.24)" style="fill:none;stroke:#666;stroke-linecap:round;stroke-linejoin:round;stroke-width:2.00777292251587px"/><line x1="58.03" y1="12.32" x2="70.13" y2="12.32" style="fill:none;stroke:#666;stroke-linecap:round;stroke-linejoin:round;stroke-width:1.94972894696491px"/><rect x="8877.94" y="8758.22" width="17.39" height="68.57" rx="1" ry="1" transform="translate(8921.71 8827.78) rotate(-180)" style="fill:#00a9c5;opacity:0.5"/><rect x="8877.94" y="8758.22" width="17.39" height="68.57" rx="1" ry="1" transform="translate(8921.71 8827.78) rotate(-180)" style="fill:none;stroke:#666;stroke-linecap:round;stroke-linejoin:round;stroke-width:1.95984970675971px"/><line x1="26.66" y1="57.15" x2="35.32" y2="57.15" style="fill:none;stroke:#666;stroke-linecap:round;stroke-linejoin:round;stroke-width:1.95984970675971px"/><line x1="26.66" y1="42.68" x2="35.32" y2="42.68" style="fill:none;stroke:#666;stroke-linecap:round;stroke-linejoin:round;stroke-width:1.95984970675971px"/><line x1="26.66" y1="28.21" x2="35.32" y2="28.21" style="fill:none;stroke:#666;stroke-linecap:round;stroke-linejoin:round;stroke-width:1.95984970675971px"/><line x1="26.66" y1="13.74" x2="35.32" y2="13.74" style="fill:none;stroke:#666;stroke-linecap:round;stroke-linejoin:round;stroke-width:1.95984970675971px"/><line x1="26.66" y1="63.86" x2="31.64" y2="63.86" style="fill:none;stroke:#666;stroke-linecap:round;stroke-linejoin:round;stroke-width:2.00777292251587px"/><line x1="26.66" y1="49.39" x2="31.64" y2="49.39" style="fill:none;stroke:#666;stroke-linecap:round;stroke-linejoin:round;stroke-width:2.00777292251587px"/><line x1="26.66" y1="34.92" x2="31.64" y2="34.92" style="fill:none;stroke:#666;stroke-linecap:round;stroke-linejoin:round;stroke-width:2.00777292251587px"/><line x1="26.66" y1="20.45" x2="31.64" y2="20.45" style="fill:none;stroke:#666;stroke-linecap:round;stroke-linejoin:round;stroke-width:2.00777292251587px"/><line x1="26.66" y1="7.39" x2="31.64" y2="7.39" style="fill:none;stroke:#666;stroke-linecap:round;stroke-linejoin:round;stroke-width:2.00777292251587px"/><path d="M8909.6,8813.37a12.42,12.42,0,0,0,12.43,0" transform="translate(-8851.56 -8757.24)" style="fill:none;stroke:#666;stroke-linecap:round;stroke-linejoin:round;stroke-width:1.94972894696491px"/><polyline points="70.46 6.13 73.49 4.13 73.49 30.46" style="fill:none;stroke:#666;stroke-linecap:round;stroke-linejoin:round;stroke-width:1.94972894696491px"/></symbol><symbol viewBox="0 0 85.32 61.93" id="icon-laptoplock"><title>laptoplock</title><g style="clip-path:url(#laptoplock-clip-path)"><rect x="8.31" y="1" width="70.16" height="42.39" style="fill:none;stroke:#666;stroke-linecap:round;stroke-linejoin:round;stroke-width:2px"/></g><rect x="8.31" y="1" width="70.16" height="39.39" style="fill:none;stroke:#666;stroke-linecap:round;stroke-linejoin:round;stroke-width:2px"/><g style="opacity:0.43"><polygon points="8.31 40.47 78.47 40.47 84.32 60.93 1 60.93 8.31 40.47" style="fill:#87878a;fill-rule:evenodd"/><g style="clip-path:url(#laptoplock-clip-path-2)"><polygon points="8.31 40.47 78.47 40.47 84.32 60.93 1 60.93 8.31 40.47" style="fill:#87878a;stroke:#666;stroke-linecap:round;stroke-linejoin:round;stroke-width:2px"/></g><polygon points="8.31 40.47 78.47 40.47 84.32 60.93 1 60.93 8.31 40.47" style="fill:none;stroke:#666;stroke-linecap:round;stroke-linejoin:round;stroke-width:2px;fill-rule:evenodd"/></g><g style="clip-path:url(#laptoplock-clip-path-3)"><polygon points="8.31 40.47 78.47 40.47 84.32 60.93 1 60.93 8.31 40.47" style="fill:none;stroke:#666;stroke-linecap:round;stroke-linejoin:round;stroke-width:2px"/></g><polygon points="8.31 40.47 78.47 40.47 84.32 60.93 1 60.93 8.31 40.47" style="fill:none;stroke:#666;stroke-linecap:round;stroke-linejoin:round;stroke-width:2px;fill-rule:evenodd"/><line x1="31.7" y1="55.08" x2="53.62" y2="55.08" style="fill:none;stroke:#666;stroke-linecap:round;stroke-linejoin:round;stroke-width:2px"/><line x1="59.47" y1="55.08" x2="63.85" y2="55.08" style="fill:none;stroke:#666;stroke-linecap:round;stroke-linejoin:round;stroke-width:2px"/><line x1="21.46" y1="55.08" x2="25.85" y2="55.08" style="fill:none;stroke:#666;stroke-linecap:round;stroke-linejoin:round;stroke-width:2px"/><path d="M2486.22,7565a7.58,7.58,0,0,0-15.17,0v17.69h15.17v-17.69q0,0.11,0,.22V7565Zm-2.7,3.66h-9.76v-3.27a4.47,4.47,0,0,1,4.46-4.46h0.84a4.47,4.47,0,0,1,4.46,4.46v3.27Z" transform="translate(-2435.56 -7549.91)" style="fill:#ffb519;stroke:#666;stroke-linecap:round;stroke-linejoin:round;stroke-width:1.78429460525513px"/><path d="M2486.22,7565v0Z" transform="translate(-2435.56 -7549.91)" style="fill:#ffb519;stroke:#666;stroke-linecap:round;stroke-linejoin:round;stroke-width:1.78429460525513px"/></symbol><symbol viewBox="0 0 72.96 89.41" id="icon-lightbulb"><title>lightbulb</title><polygon points="29.4 83.2 33.52 88.41 38.85 88.41 43.54 81.62 29.4 83.2" style="fill:#ffb11c"/><path d="M12141.93,5805.88l0.6-.15c3.25-1.16,2.38-5.86,2.45-8.63a19.92,19.92,0,0,1,3-9.09s6.06-9.92,6.06-16.25c0-16.94-15.05-20.11-20-20.11s-20.09,3.44-20.09,20.11c0,6.34,6.06,16.25,6.06,16.25s2.86,9.55,3,14.23a5.15,5.15,0,0,0,4.68,5.1A116,116,0,0,0,12141.93,5805.88Z" transform="translate(-12097.68 -5731.14)" style="fill:#ffb519"/><path d="M12141.93,5805.88l0.6-.15c3.25-1.16,2.38-5.86,2.45-8.63a19.92,19.92,0,0,1,3-9.09s6.06-9.92,6.06-16.25c0-16.94-15.05-20.11-20-20.11s-20.09,3.44-20.09,20.11c0,6.34,6.06,16.25,6.06,16.25s2.86,9.55,3,14.23a5.15,5.15,0,0,0,4.68,5.1A116,116,0,0,0,12141.93,5805.88Z" transform="translate(-12097.68 -5731.14)" style="fill:none;stroke:#fff;stroke-linecap:round;stroke-linejoin:round;stroke-width:2px"/><path d="M12125.57,5810.52a79,79,0,0,0,16.9-1.47" transform="translate(-12097.68 -5731.14)" style="fill:none;stroke:#fff;stroke-linecap:round;stroke-linejoin:round;stroke-width:2px"/><path d="M12125.57,5813.77a79,79,0,0,0,16.9-1.47" transform="translate(-12097.68 -5731.14)" style="fill:none;stroke:#fff;stroke-linecap:round;stroke-linejoin:round;stroke-width:2px"/><polyline points="29.4 83.2 33.52 88.41 38.85 88.41 43.54 81.62" style="fill:none;stroke:#fff;stroke-linecap:round;stroke-linejoin:round;stroke-width:2px"/><polyline points="34.12 72.28 34.12 57.95 28.06 41.7" style="fill:none;stroke:#fff;stroke-linecap:round;stroke-linejoin:round;stroke-width:2px"/><polyline points="38.56 72.28 38.56 57.95 44.62 41.7" style="fill:none;stroke:#fff;stroke-linecap:round;stroke-linejoin:round;stroke-width:2px"/><line x1="36.34" y1="12.42" x2="36.34" y2="1" style="fill:none;stroke:#fff;stroke-linecap:round;stroke-linejoin:round;stroke-width:2px"/><line x1="51.51" y1="16.2" x2="57.81" y2="6.67" style="fill:none;stroke:#fff;stroke-linecap:round;stroke-linejoin:round;stroke-width:2px"/><line x1="61.45" y1="28.67" x2="71.96" y2="24.2" style="fill:none;stroke:#fff;stroke-linecap:round;stroke-linejoin:round;stroke-width:2px"/><line x1="21.44" y1="16.2" x2="15.15" y2="6.67" style="fill:none;stroke:#fff;stroke-linecap:round;stroke-linejoin:round;stroke-width:2px"/><line x1="11.5" y1="28.67" x2="1" y2="24.2" style="fill:none;stroke:#fff;stroke-linecap:round;stroke-linejoin:round;stroke-width:2px"/></symbol><symbol viewBox="0 0 200 44.8" id="icon-logo-grey"><title>logo-grey</title><path d="M1678.17,10928.34a19.63,19.63,0,0,0-7.14-13.43,22.58,22.58,0,0,0-14.34-5,21.2,21.2,0,0,0-15.33,6.45,22.31,22.31,0,0,0-4.78,23.33,1,1,0,0,0,0,1l-0.1.06a0.78,0.78,0,0,0-.3,1.05s2.57,3.07,3.26,4.17,4.67,8.45,4.67,8.45a0.78,0.78,0,0,0,1.08.18h0c0.15,0.21,1-.08,1.93-0.65s1.55-1.22,1.42-1.45h0a0.78,0.78,0,0,0,.3-1.05s-4.95-6.84-5.64-7.94-2.3-4.68-2.3-4.68a0.78,0.78,0,0,0-1.08-.18l-0.1.06a1,1,0,0,0-.82-0.38,19.65,19.65,0,0,1,4.37-20.05,18.55,18.55,0,0,1,13.42-5.65,19.91,19.91,0,0,1,12.64,4.4,16.76,16.76,0,0,1,6.18,11.62,15.52,15.52,0,0,1-6.21,14.19,13.57,13.57,0,0,1-16-.24,13,13,0,0,1-4.48-11.82,7.77,7.77,0,0,1,5.59-6.28,6.9,6.9,0,0,1,5.43.47,7.06,7.06,0,0,1,2.63,2.52,1.11,1.11,0,0,0,0,.16h-0.12a0.74,0.74,0,0,0-.74.74,7.16,7.16,0,0,1-.42,2.87c-1,1.74-1.42,1.2-1.42,2.34v0.16a0.46,0.46,0,0,0,.53.48h1.4v2.23l0.07,0.47,0,0.3a0.6,0.6,0,0,0,.11.35,0.35,0.35,0,0,0,.26.11h0.49a0.36,0.36,0,0,0,.26-0.12,0.44,0.44,0,0,0,.09-0.23v-0.07c0-.27.08-0.54,0.12-0.81v-2.23H1665v2.23c0,0.27.08,0.54,0.12,0.81v0.07a0.44,0.44,0,0,0,.09.23,0.36,0.36,0,0,0,.26.12H1666a0.35,0.35,0,0,0,.26-0.11,0.6,0.6,0,0,0,.11-0.35l0-.3,0.07-.47v-2.23h1.4a0.46,0.46,0,0,0,.53-0.48v-0.16c0-1.14-.46-0.6-1.42-2.34a7.16,7.16,0,0,1-.42-2.87,0.74,0.74,0,0,0-.74-0.74h-0.12a1.14,1.14,0,0,0-.61-0.8,9.82,9.82,0,0,0-4-4.22,9.54,9.54,0,0,0-7.51-.67,10.43,10.43,0,0,0-7.41,8.33,15.11,15.11,0,0,0,15.18,17.71,16.48,16.48,0,0,0,9.49-3A18.19,18.19,0,0,0,1678.17,10928.34Z" transform="translate(-1635.15 -10909.9)" style="fill:#929292"/><path d="M1685.68,10945.73a12.58,12.58,0,0,0,2.42.31c2.73,0,3.71-1.94,3.71-4.23v-24.2h3.65v24.2c0,4.16-2,7.7-7.36,7.7a15.92,15.92,0,0,1-2.76-.41Z" transform="translate(-1635.15 -10909.9)" style="fill:#929292"/><path d="M1709.4,10925.18h3.51v15.92h-3.51v-2.32a5.43,5.43,0,0,1-4.74,2.66c-3.89,0-6.2-2.49-6.17-7v-9.27H1702v8.86c0,2.62,1.4,4,3.31,4s4.09-1.13,4.09-4.29v-8.55Z" transform="translate(-1635.15 -10909.9)" style="fill:#929292"/><path d="M1730.46,10932.54v8.55H1727v-8.93c0-2.45-1.36-3.89-3.24-3.89-2,0-4,1.16-4,4.26v8.55h-3.51v-15.92h3.51v2.39c1.06-2.22,3.75-2.73,5-2.73a5,5,0,0,1,5,3.17,5.77,5.77,0,0,1,5.35-3.17c3.92,0,6.14,2.56,6.14,7.09v9.17h-3.51v-8.86c0-2.49-1.33-4-3.37-4C1732,10928.28,1730.46,10930,1730.46,10932.54Z" transform="translate(-1635.15 -10909.9)" style="fill:#929292"/><path d="M1747.81,10927.53a6.17,6.17,0,0,1,5.32-2.69c4.29,0,7.91,3.31,7.91,8.32s-3.61,8.28-7.91,8.28a6,6,0,0,1-5.32-2.62v10h-3.51v-23.65h3.51v2.35Zm4.87,10.53a4.64,4.64,0,0,0,4.77-4.84A4.81,4.81,0,1,0,1752.68,10938.07Z" transform="translate(-1635.15 -10909.9)" style="fill:#929292"/><path d="M1780.66,10941.1h-4.4l-5.86-8.62h-2.52v8.62h-3.65v-23.48h9.17c5,0,7.16,3.72,7.16,7.46,0,3.44-1.74,6.78-6.07,7.26Zm-12.78-20.14v8.21h5.25c2.62,0,3.68-2.08,3.68-4.09s-1-4.12-3.54-4.12h-5.39Z" transform="translate(-1635.15 -10909.9)" style="fill:#929292"/><path d="M1781.44,10933.09a8.32,8.32,0,0,1,16.63,0A8.32,8.32,0,1,1,1781.44,10933.09Zm13.12,0a4.82,4.82,0,0,0-9.65,0A4.82,4.82,0,1,0,1794.56,10933.09Z" transform="translate(-1635.15 -10909.9)" style="fill:#929292"/><path d="M1803.83,10927.53a6.17,6.17,0,0,1,5.32-2.69c4.29,0,7.91,3.31,7.91,8.32s-3.61,8.28-7.91,8.28a6,6,0,0,1-5.32-2.62v10h-3.51v-23.65h3.51v2.35Zm4.87,10.53a4.64,4.64,0,0,0,4.77-4.84A4.81,4.81,0,1,0,1808.7,10938.07Z" transform="translate(-1635.15 -10909.9)" style="fill:#929292"/><path d="M1835.12,10934.39h-12.64a4.62,4.62,0,0,0,4.87,4,4.91,4.91,0,0,0,4.33-2.28c0.89,0.41,1.94.85,2.86,1.26a8.33,8.33,0,1,1-7.36-12.51c4.53,0,8,3.2,8,8.25C1835.15,10933.46,1835.15,10934,1835.12,10934.39Zm-3.41-2.56a4.32,4.32,0,0,0-4.53-3.92,4.47,4.47,0,0,0-4.7,3.92h9.24Z" transform="translate(-1635.15 -10909.9)" style="fill:#929292"/></symbol><symbol viewBox="0 0 200 44.8" id="icon-logo"><title>JMPRP_Logo</title><path d="M44.06,18.44A19.63,19.63,0,0,0,36.92,5,22.58,22.58,0,0,0,22.59,0,21.2,21.2,0,0,0,7.26,6.45,22.31,22.31,0,0,0,2.48,29.79a1,1,0,0,0,0,1l-0.1.06A0.78,0.78,0,0,0,2,31.86S4.61,34.93,5.3,36,10,44.48,10,44.48a0.78,0.78,0,0,0,1.08.18h0c0.15,0.21,1-.08,1.93-0.65s1.55-1.22,1.42-1.45h0a0.78,0.78,0,0,0,.3-1.05S9.79,34.64,9.1,33.54s-2.3-4.68-2.3-4.68a0.78,0.78,0,0,0-1.08-.18l-0.1.06a1,1,0,0,0-.82-0.38A19.65,19.65,0,0,1,9.17,8.31,18.55,18.55,0,0,1,22.59,2.66a19.91,19.91,0,0,1,12.64,4.4,16.76,16.76,0,0,1,6.18,11.62A15.52,15.52,0,0,1,35.2,32.88a13.57,13.57,0,0,1-16-.24,13,13,0,0,1-4.48-11.82,7.77,7.77,0,0,1,5.59-6.28,6.9,6.9,0,0,1,5.43.47,7.06,7.06,0,0,1,2.63,2.52,1.11,1.11,0,0,0,0,.16H28.17a0.74,0.74,0,0,0-.74.74A7.16,7.16,0,0,1,27,21.29c-1,1.74-1.42,1.2-1.42,2.34v0.16a0.46,0.46,0,0,0,.53.48h1.4v2.23L27.6,27l0,0.3a0.6,0.6,0,0,0,.11.35,0.35,0.35,0,0,0,.26.11h0.49a0.36,0.36,0,0,0,.26-0.12,0.44,0.44,0,0,0,.09-0.23V27.3c0-.27.08-0.54,0.12-0.81V24.26h1.92v2.23C31,26.76,31,27,31,27.3v0.07a0.44,0.44,0,0,0,.09.23,0.36,0.36,0,0,0,.26.12h0.49a0.35,0.35,0,0,0,.26-0.11,0.6,0.6,0,0,0,.11-0.35l0-.3,0.07-.47V24.26h1.4a0.46,0.46,0,0,0,.53-0.48V23.63c0-1.14-.46-0.6-1.42-2.34a7.16,7.16,0,0,1-.42-2.87,0.74,0.74,0,0,0-.74-0.74H31.63a1.14,1.14,0,0,0-.61-0.8,9.82,9.82,0,0,0-4-4.22A9.54,9.54,0,0,0,19.47,12a10.43,10.43,0,0,0-7.41,8.33A15.56,15.56,0,0,0,17.5,34.71,15.58,15.58,0,0,0,27.25,38a16.48,16.48,0,0,0,9.49-3A18.19,18.19,0,0,0,44.06,18.44Z" transform="translate(-1.04)" style="fill:#fff"/><path d="M51.57,35.84a12.58,12.58,0,0,0,2.42.31c2.73,0,3.71-1.94,3.71-4.23V7.72h3.65v24.2c0,4.16-2,7.7-7.36,7.7a15.92,15.92,0,0,1-2.76-.41Z" transform="translate(-1.04)" style="fill:#fff"/><path d="M75.29,15.28H78.8V31.2H75.29V28.88a5.43,5.43,0,0,1-4.74,2.66c-3.89,0-6.2-2.49-6.17-7V15.28H67.9v8.86c0,2.62,1.4,4,3.31,4s4.09-1.13,4.09-4.29V15.28Z" transform="translate(-1.04)" style="fill:#fff"/><path d="M96.35,22.65V31.2H92.84V22.27c0-2.45-1.36-3.89-3.24-3.89-2,0-4,1.16-4,4.26V31.2H82.07V15.28h3.51v2.39c1.06-2.22,3.75-2.73,5-2.73a5,5,0,0,1,5,3.17A5.77,5.77,0,0,1,101,14.94c3.92,0,6.14,2.56,6.14,7.09V31.2h-3.51V22.34c0-2.49-1.33-4-3.37-4C97.89,18.39,96.35,20.09,96.35,22.65Z" transform="translate(-1.04)" style="fill:#fff"/><path d="M113.7,17.64A6.17,6.17,0,0,1,119,14.94c4.29,0,7.91,3.31,7.91,8.32s-3.61,8.28-7.91,8.28a6,6,0,0,1-5.32-2.62v10h-3.51V15.28h3.51v2.35Zm4.87,10.53a4.64,4.64,0,0,0,4.77-4.84,4.81,4.81,0,1,0-9.61,0A4.7,4.7,0,0,0,118.57,28.17Z" transform="translate(-1.04)" style="fill:#fff"/><path d="M146.55,31.2h-4.4l-5.86-8.62h-2.52V31.2h-3.65V7.72h9.17c5,0,7.16,3.72,7.16,7.46,0,3.44-1.74,6.78-6.07,7.26ZM133.77,11.06v8.21H139c2.62,0,3.68-2.08,3.68-4.09s-1-4.12-3.54-4.12h-5.39Z" transform="translate(-1.04)" style="fill:#fff"/><path d="M147.33,23.19a8.32,8.32,0,0,1,16.63,0A8.32,8.32,0,1,1,147.33,23.19Zm13.12,0a4.82,4.82,0,0,0-9.65,0A4.82,4.82,0,1,0,160.45,23.19Z" transform="translate(-1.04)" style="fill:#fff"/><path d="M169.72,17.64A6.17,6.17,0,0,1,175,14.94c4.29,0,7.91,3.31,7.91,8.32s-3.61,8.28-7.91,8.28a6,6,0,0,1-5.32-2.62v10h-3.51V15.28h3.51v2.35Zm4.87,10.53a4.64,4.64,0,0,0,4.77-4.84,4.81,4.81,0,1,0-9.61,0A4.7,4.7,0,0,0,174.6,28.17Z" transform="translate(-1.04)" style="fill:#fff"/><path d="M201,24.49H188.36a4.62,4.62,0,0,0,4.87,4,4.91,4.91,0,0,0,4.33-2.28c0.89,0.41,1.94.85,2.86,1.26a8.36,8.36,0,0,1-15.54-4.26,7.91,7.91,0,0,1,8.18-8.25c4.53,0,8,3.2,8,8.25C201,23.57,201,24.15,201,24.49Zm-3.41-2.56A4.32,4.32,0,0,0,193.07,18a4.47,4.47,0,0,0-4.7,3.92h9.24Z" transform="translate(-1.04)" style="fill:#fff"/></symbol><symbol viewBox="0 0 78.23 80.88" id="icon-nodes"><title>nodes</title><circle cx="13" cy="17.37" r="5" style="fill:none;stroke:#666;stroke-miterlimit:10;stroke-width:2px"/><circle cx="50" cy="38.37" r="5" style="fill:none;stroke:#666;stroke-miterlimit:10;stroke-width:2px"/><circle cx="6" cy="33.37" r="5" style="fill:none;stroke:#666;stroke-miterlimit:10;stroke-width:2px"/><path d="M8513.27,5574.94h5a5,5,0,0,1,5,5v31" transform="translate(-8495.27 -5556.56)" style="fill:none;stroke:#666;stroke-miterlimit:10;stroke-width:2px"/><path d="M8506.27,5589.94h5a5,5,0,0,1,5,5v16" transform="translate(-8495.27 -5556.56)" style="fill:none;stroke:#666;stroke-miterlimit:10;stroke-width:2px"/><path d="M8540.27,5594.94h-5a5,5,0,0,0-5,5v11" transform="translate(-8495.27 -5556.56)" style="fill:none;stroke:#666;stroke-miterlimit:10;stroke-width:2px"/><path d="M8550.76,5595.17h3.86a3.85,3.85,0,0,0,3.86-3.86v-15.14" transform="translate(-8495.27 -5556.56)" style="fill:none;stroke:#666;stroke-miterlimit:10;stroke-width:2px"/><circle cx="28.25" cy="65.61" r="14.27" style="fill:#80cfdc;stroke:#666;stroke-miterlimit:10;stroke-width:2px"/><circle cx="28.25" cy="65.61" r="14.27" style="fill:none;stroke:#666;stroke-linecap:round;stroke-linejoin:round;stroke-width:2px"/><polyline points="23.34 66.54 26.16 69.71 33.77 61.45" style="fill:none;stroke:#666;stroke-linecap:round;stroke-linejoin:round;stroke-width:2px"/><circle cx="62.96" cy="15.27" r="14.27" style="fill:#80cfdc;stroke:#666;stroke-miterlimit:10;stroke-width:2px"/><polyline points="57.74 16.23 60.57 19.4 68.18 11.13" style="fill:none;stroke:#666;stroke-linecap:round;stroke-linejoin:round;stroke-width:2px"/></symbol><symbol viewBox="0 0 56 80.16" id="icon-nodes2"><title>nodes2</title><circle cx="13" cy="6" r="5" style="fill:none;stroke:#666;stroke-miterlimit:10;stroke-width:2px"/><circle cx="50" cy="74.16" r="5" style="fill:none;stroke:#666;stroke-miterlimit:10;stroke-width:2px"/><circle cx="6" cy="22" r="5" style="fill:none;stroke:#666;stroke-miterlimit:10;stroke-width:2px"/><path d="M8878.81,5864.6h5a5,5,0,0,1,5,5v31" transform="translate(-8860.81 -5857.6)" style="fill:none;stroke:#666;stroke-miterlimit:10;stroke-width:2px"/><path d="M8871.81,5879.6h5a5,5,0,0,1,5,5v16" transform="translate(-8860.81 -5857.6)" style="fill:none;stroke:#666;stroke-miterlimit:10;stroke-width:2px"/><path d="M8905.81,5931.76h-5a5,5,0,0,1-5-5v-11" transform="translate(-8860.81 -5857.6)" style="fill:none;stroke:#666;stroke-miterlimit:10;stroke-width:2px"/><circle cx="28.38" cy="47.9" r="14.27" style="fill:#ffb11c;stroke:#666;stroke-miterlimit:10;stroke-width:2px"/><circle cx="28.38" cy="47.9" r="14.27" style="fill:none;stroke:#666;stroke-linecap:round;stroke-linejoin:round;stroke-width:2px"/><polygon points="28.38 52.52 23.82 54.92 24.69 49.84 21 46.24 26.1 45.5 28.38 40.88 30.67 45.5 35.77 46.24 32.08 49.84 32.95 54.92 28.38 52.52" style="fill:none;stroke:#666;stroke-linecap:round;stroke-linejoin:round;stroke-width:2px"/></symbol><symbol viewBox="0 0 85.32 61.93" id="icon-privacy"><title>privacy</title><g style="clip-path:url(#privacy-clip-path)"><rect x="8.31" y="1" width="70.16" height="42.39" style="fill:none;stroke:#666;stroke-linecap:round;stroke-linejoin:round;stroke-width:2px"/></g><rect x="8.31" y="1" width="70.16" height="39.39" style="fill:none;stroke:#666;stroke-linecap:round;stroke-linejoin:round;stroke-width:2px"/><g style="opacity:0.43"><polygon points="8.31 40.47 78.47 40.47 84.32 60.93 1 60.93 8.31 40.47" style="fill:#929292;fill-rule:evenodd"/><polygon points="8.31 40.47 78.47 40.47 84.32 60.93 1 60.93 8.31 40.47" style="fill:none;stroke:#666;stroke-linecap:round;stroke-linejoin:round;stroke-width:2px;fill-rule:evenodd"/></g><polygon points="8.31 40.47 78.47 40.47 84.32 60.93 1 60.93 8.31 40.47" style="fill:none;stroke:#666;stroke-linecap:round;stroke-linejoin:round;stroke-width:2px;fill-rule:evenodd"/><line x1="31.7" y1="55.08" x2="53.62" y2="55.08" style="fill:none;stroke:#666;stroke-linecap:round;stroke-linejoin:round;stroke-width:2px"/><line x1="59.47" y1="55.08" x2="63.85" y2="55.08" style="fill:none;stroke:#666;stroke-linecap:round;stroke-linejoin:round;stroke-width:2px"/><line x1="21.46" y1="55.08" x2="25.85" y2="55.08" style="fill:none;stroke:#666;stroke-linecap:round;stroke-linejoin:round;stroke-width:2px"/><path d="M4020.15,10088.21a7.58,7.58,0,0,0-15.17,0v17.69h15.17v-17.69q0,0.11,0,.22v-0.24Zm-2.7,3.66h-9.76v-3.27a4.47,4.47,0,0,1,4.46-4.46H4013a4.47,4.47,0,0,1,4.46,4.46v3.27Z" transform="translate(-3969.49 -10073.07)" style="fill:#ffb11c;stroke:#666;stroke-linecap:round;stroke-linejoin:round;stroke-width:2px"/><path d="M4020.15,10088.21h0v0Z" transform="translate(-3969.49 -10073.07)" style="fill:#ffb11c;stroke:#666;stroke-linecap:round;stroke-linejoin:round;stroke-width:2px"/></symbol><symbol viewBox="0 0 20.2 16.83" id="icon-rarr-blue"><title>rarr-blue</title><path d="M9289.18,6911.66a14.35,14.35,0,0,0-6.47,3.63s2.11-7.74,11.88-8.39v-5.74l8.32,8.27-8.32,8.56v-6.54A10.09,10.09,0,0,0,9289.18,6911.66Z" transform="translate(-9282.71 -6901.16)" style="fill:#80cfdc"/></symbol><symbol viewBox="0 0 20.2 16.83" id="icon-rarr-white"><title>rarr-white</title><path d="M9088.11,7874.21a14.35,14.35,0,0,0-6.47,3.63s2.11-7.74,11.88-8.39v-5.74l8.32,8.27-8.32,8.56V7874A10.09,10.09,0,0,0,9088.11,7874.21Z" transform="translate(-9081.63 -7863.7)" style="fill:#fff"/></symbol><symbol viewBox="0 0 20.2 16.83" id="icon-rarr-yellow"><title>rarr-yellow</title><path d="M9287.09,10003.79a14.35,14.35,0,0,0-6.47,3.63s2.11-7.74,11.88-8.39v-5.74l8.32,8.27-8.32,8.56v-6.54A10.09,10.09,0,0,0,9287.09,10003.79Z" transform="translate(-9280.62 -9993.28)" style="fill:#ffb11c;opacity:0.7000000000000001"/></symbol><symbol viewBox="0 0 80.54 79" id="icon-recirc"><title>recirc</title><circle cx="40.09" cy="43.45" r="13.43" style="fill:#f89f42;stroke:#666;stroke-miterlimit:10;stroke-width:2px"/><path d="M8556.57,5928.4a34.51,34.51,0,0,1-55.85-21" transform="translate(-8494.11 -5858.18)" style="fill:none;stroke:#666;stroke-linecap:round;stroke-linejoin:round;stroke-width:2px"/><path d="M8548.57,5870.06a34.51,34.51,0,0,1,14.31,51.59" transform="translate(-8494.11 -5858.18)" style="fill:none;stroke:#666;stroke-linecap:round;stroke-linejoin:round;stroke-width:2px"/><path d="M8500.42,5898.16a34.53,34.53,0,0,1,39.2-30.64" transform="translate(-8494.11 -5858.18)" style="fill:none;stroke:#666;stroke-linecap:round;stroke-linejoin:round;stroke-width:2px"/><polyline points="38.04 1 46.02 9.37 37.65 17.35" style="fill:none;stroke:#666;stroke-linecap:round;stroke-linejoin:round;stroke-width:2px"/><polyline points="79.54 60.81 68.41 63.95 65.27 52.82" style="fill:none;stroke:#666;stroke-linecap:round;stroke-linejoin:round;stroke-width:2px"/><polyline points="1 59.01 6.51 48.84 16.68 54.35" style="fill:none;stroke:#666;stroke-linecap:round;stroke-linejoin:round;stroke-width:2px"/><line x1="40.09" y1="36.45" x2="40.09" y2="50.45" style="fill:none;stroke:#666;stroke-linecap:round;stroke-linejoin:round;stroke-width:2px"/><line x1="33.09" y1="43.45" x2="47.09" y2="43.45" style="fill:none;stroke:#666;stroke-linecap:round;stroke-linejoin:round;stroke-width:2px"/></symbol><symbol viewBox="0 0 63.97 79.5" id="icon-reporting"><title>reporting</title><polygon points="49.96 40.34 49.96 78.5 1 78.5 1 40.34 1 12.26 37 12.26 49.96 25.22 49.96 40.34" style="fill:none;stroke:#666;stroke-linecap:round;stroke-linejoin:round;stroke-width:2px"/><polygon points="37 25.22 49.96 25.22 37 12.26 37 25.22" style="fill:#e68400;stroke:#666;stroke-linecap:round;stroke-linejoin:round;stroke-width:2px"/><polyline points="14.01 11.76 14.01 1 62.97 1 62.97 67.24 50.2 67.24" style="fill:none;stroke:#666;stroke-linecap:round;stroke-linejoin:round;stroke-width:2px"/><line x1="20.36" y1="31.95" x2="40.29" y2="31.95" style="fill:none;stroke:#666;stroke-linecap:round;stroke-linejoin:round;stroke-width:2px"/><line x1="20.36" y1="47.95" x2="40.29" y2="47.95" style="fill:none;stroke:#666;stroke-linecap:round;stroke-linejoin:round;stroke-width:2px"/><line x1="20.36" y1="63.95" x2="40.29" y2="63.95" style="fill:none;stroke:#666;stroke-linecap:round;stroke-linejoin:round;stroke-width:2px"/><circle cx="12.2" cy="31.31" r="3" style="fill:none;stroke:#666;stroke-miterlimit:10;stroke-width:2px"/><circle cx="12.2" cy="47.75" r="3" style="fill:none;stroke:#666;stroke-miterlimit:10;stroke-width:2px"/><circle cx="12.2" cy="64.2" r="3" style="fill:none;stroke:#666;stroke-miterlimit:10;stroke-width:2px"/><line x1="43.12" y1="18.45" x2="55.04" y2="18.45" style="fill:none;stroke:#666;stroke-linecap:round;stroke-linejoin:round;stroke-width:2px"/><line x1="50.12" y1="34.45" x2="55.04" y2="34.45" style="fill:none;stroke:#666;stroke-linecap:round;stroke-linejoin:round;stroke-width:2px"/><line x1="50.12" y1="50.45" x2="55.04" y2="50.45" style="fill:none;stroke:#666;stroke-linecap:round;stroke-linejoin:round;stroke-width:2px"/></symbol><symbol viewBox="0 0 101.62 59.47" id="icon-securitycloud"><title>securitycloud</title><path d="M2149.62,11189a19.16,19.16,0,1,1,0-38.31h0.23a22.54,22.54,0,0,1,42.9-5.73,24,24,0,1,1,13.49,44h-56.61Z" transform="translate(-2129.34 -11130.54)" style="fill:#80cfdc"/><path d="M2146.9,11155.88a11.89,11.89,0,0,0-11.89,11.89" transform="translate(-2129.34 -11130.54)" style="fill:none;stroke:#666;stroke-linecap:round;stroke-linejoin:round;stroke-width:2px"/><path d="M2182.45,11166.08a6,6,0,1,0-5.44,0v9.35h5.44v-9.35Z" transform="translate(-2129.34 -11130.54)" style="fill:#fff;stroke:#666;stroke-linecap:round;stroke-linejoin:round;stroke-width:2px"/><path d="M2149.62,11189a19.16,19.16,0,1,1,0-38.31h0.23a22.54,22.54,0,0,1,42.9-5.73,24,24,0,1,1,13.49,44h-56.61Z" transform="translate(-2129.34 -11130.54)" style="fill:none;stroke:#666;stroke-linecap:round;stroke-linejoin:round;stroke-width:2px"/></symbol><symbol viewBox="0 0 9.17 17.65" id="icon-share-fb"><title>share-fb</title><path id="share-fb-f" d="M5303.7,11857.25v-8.05h2.7l0.4-3.14h-3.11v-2a1.3,1.3,0,0,1,1.56-1.53h1.66v-2.81a22.24,22.24,0,0,0-2.42-.12,3.78,3.78,0,0,0-4,4.15v2.31h-2.71v3.14h2.71v8.05h3.24Z" transform="translate(-5297.75 -11839.59)" style="fill:#fff"/></symbol><symbol viewBox="0 0 15.97 15.62" id="icon-share-lin"><title>share-lin</title><path d="M5390.47,11856.23v-11.28H5393v11.28h-2.54Zm1.21-12.62a1.5,1.5,0,1,1,1.62-1.5A1.49,1.49,0,0,1,5391.68,11843.61Zm11.51,6.85a2.4,2.4,0,0,0-2.26-2.47c-0.91,0-1.72,0-2.25,1.15a3.93,3.93,0,0,0-.21,1.14v5.95h-2.89v-11.28h3l0.15,1.47h0.06a3.56,3.56,0,0,1,3.2-1.47c2.17,0,4.11,1.72,4.11,4.86v6.42h-2.91v-5.77Z" transform="translate(-5390.13 -11840.61)" style="fill:#fff"/></symbol><symbol viewBox="0 0 19.78 16.24" id="icon-share-tw"><title>share-tw</title><path d="M5357.39,11842.83a5.68,5.68,0,0,0,2.22-.61s-0.15.56-2.06,2.31c0,0,.64,9.48-9.15,11.8,0,0-5,1.08-8.57-1.67,0,0,3.77.68,5.89-1.7a3.86,3.86,0,0,1-3.6-2.8,3.23,3.23,0,0,0,1.65-.06,4,4,0,0,1-3-4.08,2.57,2.57,0,0,0,1.59.51s-2.79-2.41-1.06-5.41c0,0,3.74,4.49,8.37,4.22a4.12,4.12,0,0,1-.12-1,4,4,0,0,1,4-4,3.94,3.94,0,0,1,2.84,1.21,4.51,4.51,0,0,0,2.71-.88S5359.09,11841.5,5357.39,11842.83Z" transform="translate(-5339.83 -11840.3)" style="fill:#fff"/></symbol><symbol viewBox="0 0 24 19.65" id="icon-share-white"><title>share-white</title><polyline points="23 12.61 23 18.65 1 18.65 1 3.95 10.68 3.95" style="fill:none;stroke:#fff;stroke-linecap:round;stroke-linejoin:round;stroke-width:2px"/><polyline points="17.59 1 22.97 2.79 21.18 8.17" style="fill:none;stroke:#fff;stroke-linecap:round;stroke-linejoin:round;stroke-width:2px"/><path d="M5455,11849c0.42-3.37,2.52-7.75,10.22-9.12" transform="translate(-5442.5 -11836.93)" style="fill:none;stroke:#fff;stroke-linecap:round;stroke-linejoin:round;stroke-width:2px"/></symbol><symbol viewBox="0 0 24 19.65" id="icon-share"><title>share</title><polyline points="23 12.61 23 18.65 1 18.65 1 3.95 10.68 3.95" style="fill:none;stroke:#005f80;stroke-linecap:round;stroke-linejoin:round;stroke-width:2px"/><polyline points="17.59 1 22.97 2.79 21.18 8.17" style="fill:none;stroke:#005f80;stroke-linecap:round;stroke-linejoin:round;stroke-width:2px"/><path d="M5626.14,7565.82c0.42-3.37,2.52-7.75,10.22-9.12" transform="translate(-5613.65 -7553.76)" style="fill:none;stroke:#005f80;stroke-linecap:round;stroke-linejoin:round;stroke-width:2px"/></symbol><symbol viewBox="0 0 87.71 82.03" id="icon-terms"><title>terms</title><polyline points="49 59.94 49 73 1 73 1 1 49 1 49 18.98" style="fill:none;stroke:#666;stroke-linecap:round;stroke-linejoin:round;stroke-width:2px"/><circle cx="44.2" cy="39.4" r="20.8" style="fill:#80cfdc;stroke:#666;stroke-linecap:round;stroke-linejoin:round;stroke-width:2px"/><line x1="60.2" y1="54.52" x2="86.71" y2="81.03" style="fill:none;stroke:#666;stroke-linecap:round;stroke-linejoin:round;stroke-width:2px"/><line x1="12.2" y1="12.2" x2="37.8" y2="12.2" style="fill:none;stroke:#666;stroke-linecap:round;stroke-linejoin:round;stroke-width:2px"/><line x1="12.2" y1="23.4" x2="29.87" y2="23.4" style="fill:none;stroke:#666;stroke-linecap:round;stroke-linejoin:round;stroke-width:2px"/><line x1="12.2" y1="58.6" x2="34.6" y2="58.6" style="fill:none;stroke:#666;stroke-linecap:round;stroke-linejoin:round;stroke-width:2px"/><line x1="12.2" y1="34.6" x2="23.4" y2="34.6" style="fill:none;stroke:#666;stroke-linecap:round;stroke-linejoin:round;stroke-width:2px"/><line x1="12.2" y1="47.4" x2="23.4" y2="47.4" style="fill:none;stroke:#666;stroke-linecap:round;stroke-linejoin:round;stroke-width:2px"/><path d="M712.88,11157.9a7.58,7.58,0,0,0-15.17,0v17.69h15.17v-17.69q0,0.11,0,.22v-0.24Zm-2.7,3.66h-9.76v-3.27a4.47,4.47,0,0,1,4.46-4.46h0.84a4.47,4.47,0,0,1,4.46,4.46v3.27Z" transform="translate(-661.15 -11124.76)" style="fill:#ffb11c;stroke:#666;stroke-linecap:round;stroke-linejoin:round;stroke-width:2px"/><path d="M712.88,11157.9v0Z" transform="translate(-661.15 -11124.76)" style="fill:#ffb11c;stroke:#666;stroke-linecap:round;stroke-linejoin:round;stroke-width:2px"/></symbol><symbol viewBox="0 0 39.73 51.73" id="icon-whitepaper"><title>whitepaper</title><polyline points="4.86 4.86 4.86 0.86 38.86 0.86 38.86 46.86 34.86 46.86" style="fill:#80cfdc"/><polyline points="4.86 4.86 4.86 0.86 38.86 0.86 38.86 46.86 34.86 46.86" style="fill:none;stroke:#646569;stroke-linecap:round;stroke-linejoin:round;stroke-width:1.72732973098755px"/><polygon points="34.86 24.36 34.86 50.86 0.86 50.86 0.86 24.36 0.86 4.86 25.86 4.86 34.86 13.86 34.86 24.36" style="fill:#fff;stroke:#646569;stroke-linecap:round;stroke-linejoin:round;stroke-width:1.72732973098755px"/><polygon points="25.86 13.86 34.86 13.86 25.86 4.86 25.86 13.86" style="fill:none;stroke:#646569;stroke-linecap:round;stroke-linejoin:round;stroke-width:1.72732973098755px"/><line x1="7.34" y1="13.68" x2="21.09" y2="13.68" style="fill:none;stroke:#646569;stroke-linecap:round;stroke-linejoin:round;stroke-width:1.72732973098755px"/><line x1="7.34" y1="21.43" x2="28.09" y2="21.43" style="fill:none;stroke:#646569;stroke-linecap:round;stroke-linejoin:round;stroke-width:1.72732973098755px"/><line x1="7.34" y1="29.18" x2="28.09" y2="29.18" style="fill:none;stroke:#646569;stroke-linecap:round;stroke-linejoin:round;stroke-width:1.72732973098755px"/><line x1="7.34" y1="36.93" x2="28.09" y2="36.93" style="fill:none;stroke:#646569;stroke-linecap:round;stroke-linejoin:round;stroke-width:1.72732973098755px"/><line x1="7.34" y1="44.68" x2="28.09" y2="44.68" style="fill:none;stroke:#646569;stroke-linecap:round;stroke-linejoin:round;stroke-width:1.72732973098755px"/></symbol></svg>