<svg id="Layer_1" data-name="Layer 1" xmlns="http://www.w3.org/2000/svg" viewBox="0 0 70 72.75"><title>JMP_WebDesign_Final</title><path d="M3828.24,8970.3a31.87,31.87,0,0,0-11.59-21.82,36.67,36.67,0,0,0-23.28-8.13,34.42,34.42,0,0,0-24.9,10.48,36.23,36.23,0,0,0-7.76,37.9,1.67,1.67,0,0,0-.06,1.55l-0.17.1a1.27,1.27,0,0,0-.49,1.71s4.18,5,5.3,6.77,7.59,13.73,7.59,13.73a1.27,1.27,0,0,0,1.75.3l0,0c0.25,0.35,1.64-.12,3.13-1.06s2.51-2,2.31-2.36l0,0a1.27,1.27,0,0,0,.49-1.71s-8-11.11-9.15-12.89-3.73-7.6-3.73-7.6a1.27,1.27,0,0,0-1.75-.3l-0.17.1a1.67,1.67,0,0,0-1.33-.62,31.91,31.91,0,0,1,7.1-32.56,30.13,30.13,0,0,1,21.79-9.17,32.33,32.33,0,0,1,20.53,7.15,27.21,27.21,0,0,1,10,18.87c0.86,9.21-3,18-10.08,23-7.87,5.56-18.82,5.39-26-.4-5.47-4.38-8.53-12.46-7.28-19.2a12.63,12.63,0,0,1,9.08-10.19,11.21,11.21,0,0,1,8.82.76,11.47,11.47,0,0,1,4.27,4.1,1.81,1.81,0,0,0-.07.25h-0.2a1.21,1.21,0,0,0-1.2,1.2s0.15,3.16-.68,4.66c-1.56,2.82-2.3,1.95-2.3,3.8V8979a0.74,0.74,0,0,0,.86.78h2.28v3.62l0.12,0.76,0.08,0.49a1,1,0,0,0,.19.57,0.58,0.58,0,0,0,.41.18h0.8a0.58,0.58,0,0,0,.43-0.19,0.72,0.72,0,0,0,.15-0.38l0-.11c0.08-.43.13-0.87,0.2-1.31v-3.62h3.12v3.62c0.07,0.44.12,0.87,0.2,1.31l0,0.11a0.72,0.72,0,0,0,.15.38,0.58,0.58,0,0,0,.43.19h0.8a0.58,0.58,0,0,0,.41-0.18,1,1,0,0,0,.19-0.57l0.08-.49,0.12-.76v-3.62h2.28a0.74,0.74,0,0,0,.86-0.78v-0.25c0-1.85-.75-1-2.3-3.8-0.83-1.5-.68-4.66-0.68-4.66a1.21,1.21,0,0,0-1.2-1.2h-0.2a1.86,1.86,0,0,0-1-1.3,16,16,0,0,0-6.57-6.85,15.49,15.49,0,0,0-12.2-1.08,16.93,16.93,0,0,0-12,13.53,24.54,24.54,0,0,0,24.66,28.75,26.77,26.77,0,0,0,15.41-4.83C3824.68,8991.39,3829.24,8981.05,3828.24,8970.3Z" transform="translate(-3758.38 -8940.35)" style="fill:#fff"/></svg>